{
.appVersion = "1141";
classes = (
{
automatic = 1;
code = "A Aacute Abreve Acircumflex Adieresis Agrave Amacron Aogonek Aring Atilde AE B C Cacute Ccaron Ccedilla Cdotaccent D Eth Dcaron Dcroat E Eacute Ecaron Ecircumflex Edieresis Edotaccent Egrave Emacron Eogonek F G Gbreve Gcommaaccent Gdotaccent H Hbar I Iacute Icircumflex Idieresis Idotaccent Igrave Imacron Iogonek J K Kcommaaccent L Lacute Lcaron Lcommaaccent Lslash M N Nacute Ncaron Ncommaaccent Eng Ntilde O Oacute Ocircumflex Odieresis Ograve Ohungarumlaut Omacron Oslash Otilde OE P Thorn Q R Racute Rcaron Rcommaaccent S Sacute Scaron Scedilla Scommaaccent T Tbar Tcaron Tcedilla Tcommaaccent U Uacute Ucircumflex Udieresis Ugrave Uhungarumlaut Umacron Uogonek Uring V W Wacute Wcircumflex Wdieresis Wgrave X Y Yacute Ycircumflex Ydieresis Ygrave Z Zacute Zcaron Zdotaccent";
name = Uppercase;
}
);
copyright = "Copyright (c) 2018, Dale Sattler [Noponies] <dale@noponies.com>.";
customParameters = (
{
name = license;
value = "This Font Software is licensed under the SIL Open Font License, Version 1.1. This license is available with a FAQ at: http://scripts.sil.org/OFL";
},
{
name = licenseURL;
value = "http://scripts.sil.org/OFL";
},
{
name = fsType;
value = (
);
},
{
name = "Use Typo Metrics";
value = 1;
},
{
name = "Disable Last Change";
value = 1;
},
{
name = "Use Line Breaks";
value = 1;
},
{
name = vendorID;
value = NOPN;
}
);
date = "2018-07-24 10:04:33 +0000";
designer = "Noponies / Dale Sattler";
designerURL = "http://noponies.com";
familyName = "Kulim Park";
featurePrefixes = (
{
automatic = 1;
code = "languagesystem DFLT dflt;
languagesystem latn dflt;
languagesystem latn ROM;
languagesystem latn MOL;
languagesystem latn KAZ;
languagesystem latn TAT;
languagesystem latn TRK;
languagesystem latn CRT;
languagesystem latn AZE;
";
name = Languagesystems;
}
);
features = (
{
automatic = 1;
code = "feature ccmp;
feature locl;
feature sups;
feature numr;
feature dnom;
feature frac;
feature ordn;
feature pnum;

glyphs = (
{
color = 5;
glyphname = A;
layers = (
{
anchors = (
{
name = bottom;
position = "{298, 0}";
},
{
name = ogonek;
position = "{564, 0}";
},
{
name = top;
position = "{384, 700}";
}
);
layerId = "4BC9CD2E-8AD0-40CC-97AA-8C7B556514B0";
paths = (
{
closed = 1;
nodes = (
"134 1 LINE",
"366 550 LINE",
"462 1 LINE",
"589 1 LINE",
"458 700 LINE",
"307 700 LINE",
"5 1 LINE"
);
},
{
closed = 1;
nodes = (
"483 170 LINE",
"496 274 LINE",
"165 274 LINE",
"152 170 LINE"
);
}
);
width = 664;
},
{
anchors = (
{
name = bottom;
position = "{285, 0}";
},
{
name = ogonek;
position = "{543, 10}";
},
{
name = top;
position = "{371, 700}";
}
);
layerId = "3C8330F3-4770-4812-9C95-859F387513C1";
paths = (
{
closed = 1;
nodes = (
"61 0 LINE",
"364 640 LINE",
"511 0 LINE",
"565 0 LINE",
"405 700 LINE",
"337 700 LINE",
"5 0 LINE"
);
},
{
closed = 1;
nodes = (
"486 183 LINE",
"491 225 LINE",
"143 225 LINE",
"138 183 LINE"
);
}
);
width = 640;
}
);
leftKerningGroup = "upper-A";
unicode = 0041;
},
{
color = 5;
glyphname = AE;
layers = (
{
layerId = "4BC9CD2E-8AD0-40CC-97AA-8C7B556514B0";
paths = (
{
closed = 1;
nodes = (
"136 0 LINE",
"201 155 LINE",
"430 155 LINE",
"460 0 LINE",
"784 0 LINE",
"799 122 LINE",
"566 122 LINE",
"535 287 LINE",
"771 287 LINE",
"784 398 LINE",
"514 398 LINE",
"481 578 LINE",
"855 578 LINE",
"870 700 LINE",
"301 700 LINE",
"5 0 LINE"
);
},
{
closed = 1;
nodes = (
"362 548 LINE",
"406 281 LINE",
"254 281 LINE"
);
}
);
width = 869;
},
{
layerId = "3C8330F3-4770-4812-9C95-859F387513C1";
paths = (
{
closed = 1;
nodes = (
"61 0 LINE",
"147 183 LINE",
"469 183 LINE",
"511 0 LINE",
"727 0 LINE",
"733 46 LINE",
"555 46 LINE",
"492 320 LINE",
"705 320 LINE",
"710 366 LINE",
"481 366 LINE",
"415 654 LINE",
"808 654 LINE",
"813 700 LINE",
"337 700 LINE",
"5 0 LINE"
);
},
{
closed = 1;
nodes = (
"364 640 LINE",
"459 226 LINE",
"167 226 LINE"
);
}
);
width = 812;
}
);
leftKerningGroup = "upper-A";
unicode = 00C6;
},
{
color = 5;
glyphname = B;
layers = (
{
layerId = "4BC9CD2E-8AD0-40CC-97AA-8C7B556514B0";
paths = (
{
closed = 1;
nodes = (
"325 0 LINE SMOOTH",
"427 0 OFFCURVE",
"520 106 OFFCURVE",
"533 207 CURVE SMOOTH",
"541 274 OFFCURVE",
"519 334 OFFCURVE",
"480 369 CURVE",
"514 410 OFFCURVE",
"531 456 OFFCURVE",
"536 496 CURVE SMOOTH",
"549 604 OFFCURVE",
"487 700 OFFCURVE",
"377 700 CURVE SMOOTH",
"113 700 LINE",
"27 0 LINE"
);
},
{
closed = 1;
nodes = (
"186 290 LINE",
"363 290 LINE SMOOTH",
"397 290 OFFCURVE",
"416 259 OFFCURVE",
"411 219 CURVE SMOOTH",
"406 174 OFFCURVE",
"367 125 OFFCURVE",
"335 125 CURVE SMOOTH",
"166 125 LINE"
);
},
{
closed = 1;
nodes = (
"221 575 LINE",
"366 575 LINE SMOOTH",
"403 575 OFFCURVE",
"420 543 OFFCURVE",
"416 508 CURVE SMOOTH",
"410 461 OFFCURVE",
"373 410 OFFCURVE",
"338 410 CURVE SMOOTH",
"201 410 LINE"
);
}
);
width = 579;
},
{
layerId = "3C8330F3-4770-4812-9C95-859F387513C1";
paths = (
{
closed = 1;
nodes = (
"322 0 LINE SMOOTH",
"414 0 OFFCURVE",
"508 99 OFFCURVE",
"520 193 CURVE SMOOTH",
"528 262 OFFCURVE",
"503 318 OFFCURVE",
"433 364 CURVE",
"491 421 OFFCURVE",
"514 456 OFFCURVE",
"522 518 CURVE SMOOTH",
"535 622 OFFCURVE",
"470 700 OFFCURVE",
"372 700 CURVE SMOOTH",
"113 700 LINE",
"27 0 LINE"
);
},
{
closed = 1;
nodes = (
"119 327 LINE",
"365 327 LINE SMOOTH",
"437 327 OFFCURVE",
"476 266 OFFCURVE",
"468 199 CURVE SMOOTH",
"459 130 OFFCURVE",
"396 50 OFFCURVE",
"326 50 CURVE SMOOTH",
"85 50 LINE"
);
},
{
closed = 1;
nodes = (
"159 650 LINE",
"368 650 LINE SMOOTH",
"441 650 OFFCURVE",
"478 593 OFFCURVE",
"470 524 CURVE SMOOTH",
"460 448 OFFCURVE",
"394 373 OFFCURVE",
"328 373 CURVE SMOOTH",
"125 373 LINE"
);
}
);
width = 568;
}
);
unicode = 0042;
},
{
color = 5;
glyphname = C;
layers = (
{
anchors = (
{
name = bottom;
position = "{329, 0}";
},
{
name = top;
position = "{415, 700}";
}
);
layerId = "4BC9CD2E-8AD0-40CC-97AA-8C7B556514B0";
paths = (
{
closed = 1;
nodes = (
"456 -6 OFFCURVE",
"553 37 OFFCURVE",
"644 133 CURVE",
"554 217 LINE",
"491 149 OFFCURVE",
"428 119 OFFCURVE",
"363 119 CURVE SMOOTH",
"305 119 OFFCURVE",
"256 142 OFFCURVE",
"219 183 CURVE SMOOTH",
"187 228 OFFCURVE",
"171 282 OFFCURVE",
"178 343 CURVE SMOOTH",
"187 410 OFFCURVE",
"220 469 OFFCURVE",
"266 508 CURVE SMOOTH",
"310 553 OFFCURVE",
"367 580 OFFCURVE",
"430 580 CURVE SMOOTH",
"490 580 OFFCURVE",
"544 554 OFFCURVE",
"591 486 CURVE",
"694 562 LINE",
"626 658 OFFCURVE",
"538 705 OFFCURVE",
"435 705 CURVE SMOOTH",
"341 705 OFFCURVE",
"253 667 OFFCURVE",
"183 605 CURVE SMOOTH",
"114 539 OFFCURVE",
"66 449 OFFCURVE",
"55 355 CURVE SMOOTH",
"42 252 OFFCURVE",
"71 164 OFFCURVE",
"128 102 CURVE SMOOTH",
"181 37 OFFCURVE",
"259 -6 OFFCURVE",
"358 -6 CURVE SMOOTH"
);
}
);
width = 700;
},
{
anchors = (
{
name = bottom;
position = "{359, 0}";
},
{
name = top;
position = "{445, 700}";
}
);
layerId = "3C8330F3-4770-4812-9C95-859F387513C1";
paths = (
{
closed = 1;
nodes = (
"456 -5 OFFCURVE",
"546 31 OFFCURVE",
"622 102 CURVE",
"583 137 LINE",
"521 81 OFFCURVE",
"444 44 OFFCURVE",
"363 44 CURVE SMOOTH",
"281 44 OFFCURVE",
"214 78 OFFCURVE",
"165 133 CURVE SMOOTH",
"120 190 OFFCURVE",
"97 265 OFFCURVE",
"107 347 CURVE SMOOTH",
"117 432 OFFCURVE",
"160 508 OFFCURVE",
"221 563 CURVE SMOOTH",
"282 620 OFFCURVE",
"358 656 OFFCURVE",
"442 656 CURVE SMOOTH",
"521 656 OFFCURVE",
"588 621 OFFCURVE",
"637 565 CURVE",
"681 596 LINE",
"623 667 OFFCURVE",
"541 705 OFFCURVE",
"444 705 CURVE SMOOTH",
"348 705 OFFCURVE",
"257 666 OFFCURVE",
"185 603 CURVE SMOOTH",
"114 538 OFFCURVE",
"66 448 OFFCURVE",
"55 353 CURVE SMOOTH",
"42 251 OFFCURVE",
"69 164 OFFCURVE",
"126 101 CURVE SMOOTH",
"181 36 OFFCURVE",
"263 -5 OFFCURVE",
"361 -5 CURVE SMOOTH"
);
}
);
width = 683;
}
);
leftKerningGroup = "upper-rounds";
unicode = 0043;
},
{
color = 5;
glyphname = D;
layers = (
{
anchors = (
{
name = bottom;
position = "{296, 0}";
},
{
name = center;
position = "{213, 350}";
},
{
name = top;
position = "{382, 700}";
}
);
layerId = "4BC9CD2E-8AD0-40CC-97AA-8C7B556514B0";
paths = (
{
closed = 1;
nodes = (
"595 157 OFFCURVE",
"618 346 CURVE SMOOTH",
"641 537 OFFCURVE",
"514 703 OFFCURVE",
"322 703 CURVE SMOOTH",
"114 703 LINE",
"27 0 LINE",
"241 0 LINE SMOOTH",
"431 0 OFFCURVE"
);
},
{
closed = 1;
nodes = (
"511 484 OFFCURVE",
"495 358 CURVE SMOOTH",
"479 228 OFFCURVE",
"372 123 OFFCURVE",
"251 123 CURVE SMOOTH",
"162 123 LINE",
"219 580 LINE",
"312 580 LINE SMOOTH",
"432 580 OFFCURVE"
);
}
);
width = 645;
},
{
anchors = (
{
name = bottom;
position = "{296, 0}";
},
{
name = center;
position = "{224, 350}";
},
{
name = top;
position = "{382, 700}";
}
);
layerId = "3C8330F3-4770-4812-9C95-859F387513C1";
paths = (
{
closed = 1;
nodes = (
"593 155 OFFCURVE",
"617 349 CURVE SMOOTH",
"641 545 OFFCURVE",
"504 703 OFFCURVE",
"313 703 CURVE SMOOTH",
"114 703 LINE",
"27 0 LINE",
"228 0 LINE SMOOTH",
"418 0 OFFCURVE"
);
},
{
closed = 1;
nodes = (
"585 519 OFFCURVE",
"565 355 CURVE SMOOTH",
"545 190 OFFCURVE",
"400 48 OFFCURVE",
"232 48 CURVE SMOOTH",
"86 48 LINE",
"161 656 LINE",
"309 656 LINE SMOOTH",
"477 656 OFFCURVE"
);
}
);
width = 643;
}
);
leftMetricsKey = B;
rightMetricsKey = B;
unicode = 0044;
},
{
color = 5;
glyphname = E;
layers = (
{
anchors = (
{
name = bottom;
position = "{211, 0}";
},
{
name = ogonek;
position = "{399, 10}";
},
{
name = top;
position = "{297, 700}";
},
{
name = topleft;
position = "{83, 700}";
}
);
layerId = "4BC9CD2E-8AD0-40CC-97AA-8C7B556514B0";
paths = (
{
closed = 1;
nodes = (
"418 112 LINE",
"161 112 LINE",
"183 292 LINE",
"391 292 LINE",
"404 393 LINE",
"196 393 LINE",
"220 588 LINE",
"477 588 LINE",
"490 700 LINE",
"113 700 LINE",
"27 0 LINE",
"404 0 LINE"
);
}
);
width = 484;
},
{
anchors = (
{
name = bottom;
position = "{213, 0}";
},
{
name = ogonek;
position = "{401, 10}";
},
{
name = top;
position = "{299, 700}";
},
{
name = topleft;
position = "{85, 700}";
}
);
layerId = "3C8330F3-4770-4812-9C95-859F387513C1";
paths = (
{
closed = 1;
nodes = (
"412 46 LINE",
"85 46 LINE",
"119 320 LINE",
"384 320 LINE",
"389 366 LINE",
"124 366 LINE",
"160 654 LINE",
"487 654 LINE",
"492 700 LINE",
"113 700 LINE",
"27 0 LINE",
"406 0 LINE"
);
}
);
width = 486;
}
);
unicode = 0045;
},
{
color = 5;
glyphname = F;
layers = (
{
layerId = "4BC9CD2E-8AD0-40CC-97AA-8C7B556514B0";
paths = (
{
closed = 1;
nodes = (
"490 700 LINE",
"113 700 LINE",
"27 0 LINE",
"147 0 LINE",
"183 288 LINE",
"391 288 LINE",
"404 399 LINE",
"196 399 LINE",
"218 578 LINE",
"475 578 LINE"
);
}
);
width = 474;
},
{
layerId = "3C8330F3-4770-4812-9C95-859F387513C1";
paths = (
{
closed = 1;
nodes = (
"487 700 LINE",
"113 700 LINE",
"27 0 LINE",
"79 0 LINE",
"119 321 LINE",
"379 321 LINE",
"384 367 LINE",
"124 367 LINE",
"160 654 LINE",
"482 654 LINE"
);
}
);
width = 470;
}
);
unicode = 0046;
},
{
color = 5;
glyphname = G;
layers = (
{
anchors = (
{
name = bottom;
position = "{330, 0}";
},
{
name = top;
position = "{416, 700}";
}
);
layerId = "4BC9CD2E-8AD0-40CC-97AA-8C7B556514B0";
paths = (
{
closed = 1;
nodes = (
"496 -5 OFFCURVE",
"598 42 OFFCURVE",
"669 161 CURVE",
"692 360 LINE",
"453 360 LINE",
"438 242 LINE",
"551 242 LINE",
"544 198 LINE",
"502 143 OFFCURVE",
"451 121 OFFCURVE",
"363 121 CURVE SMOOTH",
"248 121 OFFCURVE",
"166 229 OFFCURVE",
"181 344 CURVE SMOOTH",
"196 472 OFFCURVE",
"305 578 OFFCURVE",
"429 578 CURVE SMOOTH",
"499 578 OFFCURVE",
"561 545 OFFCURVE",
"602 465 CURVE",
"714 530 LINE",
"652 646 OFFCURVE",
"554 705 OFFCURVE",
"435 705 CURVE SMOOTH",
"245 705 OFFCURVE",
"78 544 OFFCURVE",
"55 356 CURVE SMOOTH",
"31 158 OFFCURVE",
"166 -5 OFFCURVE",
"358 -5 CURVE SMOOTH"
);
}
);
width = 722;
},
{
anchors = (
{
name = bottom;
position = "{357, 0}";
},
{
name = top;
position = "{443, 700}";
}
);
layerId = "3C8330F3-4770-4812-9C95-859F387513C1";
paths = (
{
closed = 1;
nodes = (
"501 -8 OFFCURVE",
"598 40 OFFCURVE",
"667 147 CURVE",
"688 323 LINE",
"504 323 LINE",
"498 271 LINE",
"628 271 LINE",
"614 161 LINE",
"547 73 OFFCURVE",
"471 43 OFFCURVE",
"361 43 CURVE SMOOTH",
"198 43 OFFCURVE",
"87 181 OFFCURVE",
"108 344 CURVE SMOOTH",
"128 509 OFFCURVE",
"269 651 OFFCURVE",
"439 651 CURVE SMOOTH",
"530 651 OFFCURVE",
"606 612 OFFCURVE",
"653 540 CURVE",
"701 567 LINE",
"646 654 OFFCURVE",
"552 705 OFFCURVE",
"442 705 CURVE SMOOTH",
"253 705 OFFCURVE",
"79 547 OFFCURVE",
"54 350 CURVE SMOOTH",
"30 152 OFFCURVE",
"167 -8 OFFCURVE",
"358 -8 CURVE SMOOTH"
);
}
);
width = 721;
}
);
leftKerningGroup = "upper-rounds";
leftMetricsKey = C;
rightMetricsKey = C;
unicode = 0047;
},
{
color = 5;
glyphname = H;
layers = (
{
anchors = (
{
name = bottom;
position = "{276, 0}";
},
{
name = center;
position = "{345, 556}";
},
{
name = top;
position = "{362, 700}";
},
{
name = topleft;
position = "{79, 700}";
}
);
layerId = "4BC9CD2E-8AD0-40CC-97AA-8C7B556514B0";
paths = (
{
closed = 1;
nodes = (
"612 700 LINE",
"492 700 LINE",
"455 395 LINE",
"196 395 LINE",
"233 700 LINE",
"113 700 LINE",
"27 0 LINE",
"147 0 LINE",
"182 285 LINE",
"441 285 LINE",
"406 0 LINE",
"526 0 LINE"
);
}
);
width = 611;
},
{
anchors = (
{
name = bottom;
position = "{278, 0}";
},
{
name = center;
position = "{350, 586}";
},
{
name = top;
position = "{364, 700}";
},
{
name = topleft;
position = "{81, 700}";
}
);
layerId = "3C8330F3-4770-4812-9C95-859F387513C1";
paths = (
{
closed = 1;
nodes = (
"617 700 LINE",
"565 700 LINE",
"523 359 LINE",
"123 359 LINE",
"165 700 LINE",
"113 700 LINE",
"27 0 LINE",
"79 0 LINE",
"118 319 LINE",
"518 319 LINE",
"479 0 LINE",
"531 0 LINE"
);
}
);
width = 616;
}
);
unicode = 0048;
},
{
color = 5;
glyphname = I;
layers = (
{
anchors = (
{
name = bottom;
position = "{87, 0}";
},
{
name = ogonek;
position = "{113, 10}";
},
{
name = top;
position = "{173, 700}";
},
{
name = topleft;
position = "{83, 700}";
}
);
layerId = "4BC9CD2E-8AD0-40CC-97AA-8C7B556514B0";
paths = (
{
closed = 1;
nodes = (
"233 700 LINE",
"113 700 LINE",
"27 0 LINE",
"147 0 LINE"
);
}
);
width = 232;
},
{
anchors = (
{
name = bottom;
position = "{53, 0}";
},
{
name = ogonek;
position = "{91, 10}";
},
{
name = top;
position = "{139, 700}";
},
{
name = topleft;
position = "{83, 700}";
}
);
layerId = "3C8330F3-4770-4812-9C95-859F387513C1";
paths = (
{
closed = 1;
nodes = (
"165 700 LINE",
"113 700 LINE",
"27 0 LINE",
"79 0 LINE"
);
}
);
width = 164;
}
);
unicode = 0049;
},
{
color = 5;
glyphname = J;
layers = (
{
layerId = "4BC9CD2E-8AD0-40CC-97AA-8C7B556514B0";
paths = (
{
closed = 1;
nodes = (
"324 109 OFFCURVE",
"341 178 OFFCURVE",
"353 274 CURVE SMOOTH",
"405 700 LINE",
"288 700 LINE",
"237 280 LINE SMOOTH",
"225 189 OFFCURVE",
"212 129 OFFCURVE",
"161 123 CURVE SMOOTH",
"131 117 OFFCURVE",
"87 124 OFFCURVE",
"47 141 CURVE",
"4 26 LINE",
"112 -15 OFFCURVE",
"213 -29 OFFCURVE",
"287 59 CURVE SMOOTH"
);
}
);
width = 400;
},
{
layerId = "3C8330F3-4770-4812-9C95-859F387513C1";
paths = (
{
closed = 1;
nodes = (
"292 89 OFFCURVE",
"315 155 OFFCURVE",
"328 262 CURVE SMOOTH",
"382 700 LINE",
"330 700 LINE",
"277 264 LINE SMOOTH",
"264 164 OFFCURVE",
"247 111 OFFCURVE",
"216 80 CURVE SMOOTH",
"168 29 OFFCURVE",
"95 44 OFFCURVE",
"21 64 CURVE",
"2 18 LINE",
"67 -6 OFFCURVE",
"187 -30 OFFCURVE",
"256 47 CURVE SMOOTH"
);
}
);
width = 377;
}
);
unicode = 004A;
},
{
color = 5;
glyphname = K;
layers = (
{
anchors = (
{
name = bottom;
position = "{269, 0}";
},
{
name = top;
position = "{355, 700}";
}
);
layerId = "4BC9CD2E-8AD0-40CC-97AA-8C7B556514B0";
paths = (
{
closed = 1;
nodes = (
"349 435 LINE",
"604 702 LINE",
"441 702 LINE",
"201 452 LINE",
"232 701 LINE",
"113 701 LINE",
"27 0 LINE",
"146 0 LINE",
"179 257 LINE",
"253 334 LINE",
"397 0 LINE",
"537 0 LINE"
);
}
);
width = 612;
},
{
anchors = (
{
name = bottom;
position = "{264, 0}";
},
{
name = top;
position = "{350, 700}";
}
);
layerId = "3C8330F3-4770-4812-9C95-859F387513C1";
paths = (
{
closed = 1;
nodes = (
"302 452 LINE",
"552 702 LINE",
"481 702 LINE",
"121 342 LINE",
"165 701 LINE",
"113 701 LINE",
"27 0 LINE",
"79 0 LINE",
"112 261 LINE",
"260 410 LINE",
"450 0 LINE",
"510 0 LINE"
);
}
);
width = 585;
}
);
unicode = 004B;
},
{
color = 5;
glyphname = L;
layers = (
{
anchors = (
{
name = bottom;
position = "{187, 0}";
},
{
name = center;
position = "{134, 350}";
},
{
name = top;
position = "{273, 700}";
},
{
name = topright;
position = "{462, 700}";
}
);
layerId = "4BC9CD2E-8AD0-40CC-97AA-8C7B556514B0";
paths = (
{
closed = 1;
nodes = (
"371 118 LINE",
"162 118 LINE",
"233 700 LINE",
"113 700 LINE",
"27 0 LINE",
"356 0 LINE"
);
}
);
width = 431;
},
{
anchors = (
{
name = bottom;
position = "{184, 0}";
},
{
name = center;
position = "{101, 350}";
},
{
name = top;
position = "{270, 700}";
},
{
name = topright;
position = "{457, 700}";
}
);
layerId = "3C8330F3-4770-4812-9C95-859F387513C1";
paths = (
{
closed = 1;
nodes = (
"357 48 LINE",
"85 48 LINE",
"165 700 LINE",
"113 700 LINE",
"27 0 LINE",
"351 0 LINE"
);
}
);
width = 426;
}
);
unicode = 004C;
},
{
glyphname = Lslash;
layers = (
{
anchors = (
{
name = _center;
position = "{244, 350}";
}
);
components = (
{
alignment = -1;
name = L;
transform = "{1, 0, 0, 1, 130, 0}";
}
);
layerId = "4BC9CD2E-8AD0-40CC-97AA-8C7B556514B0";
paths = (
{
closed = 1;
nodes = (
"366 571 LINE",
"41 185 LINE",
"149 185 LINE",
"475 571 LINE"
);
}
);
width = 561;
},
{
anchors = (
{
name = _center;
position = "{179, 350}";
}
);
components = (
{
alignment = -1;
name = L;
transform = "{1, 0, 0, 1, 92, 0}";
}
);
layerId = "3C8330F3-4770-4812-9C95-859F387513C1";
paths = (
{
closed = 1;
nodes = (
"293 529 LINE",
"44 207 LINE",
"91 207 LINE",
"341 529 LINE"
);
}
);
width = 518;
}
);
leftMetricsKey = L;
rightMetricsKey = L;
unicode = 0141;
},
{
color = 5;
glyphname = M;
layers = (
{
layerId = "4BC9CD2E-8AD0-40CC-97AA-8C7B556514B0";
paths = (
{
closed = 1;
nodes = (
"147 0 LINE",
"216 553 LINE",
"216 553 LINE",
"343 100 LINE",
"456 100 LINE",
"694 553 LINE",
"693 553 LINE",
"625 0 LINE",
"745 0 LINE",
"831 700 LINE",
"636 700 LINE",
"416 258 LINE",
"306 700 LINE",
"113 700 LINE",
"27 0 LINE"
);
}
);
width = 830;
},
{
layerId = "3C8330F3-4770-4812-9C95-859F387513C1";
paths = (
{
closed = 1;
nodes = (
"79 0 LINE",
"159 648 LINE",
"217 648 LINE",
"370 115 LINE",
"439 115 LINE",
"721 648 LINE",
"779 648 LINE",
"699 0 LINE",
"751 0 LINE",
"837 700 LINE",
"692 700 LINE",
"409 167 LINE",
"258 700 LINE",
"113 700 LINE",
"27 0 LINE"
);
}
);
width = 836;
}
);
unicode = 004D;
},
{
color = 5;
glyphname = N;
layers = (
{
anchors = (
{
name = bottom;
position = "{288, 0}";
},
{
name = top;
position = "{374, 700}";
}
);
layerId = "4BC9CD2E-8AD0-40CC-97AA-8C7B556514B0";
paths = (
{
closed = 1;
nodes = (
"635 700 LINE",
"515 700 LINE",
"449 167 LINE",
"277 700 LINE",
"113 700 LINE",
"27 1 LINE",
"147 1 LINE",
"215 544 LINE",
"396 0 LINE",
"549 0 LINE"
);
}
);
width = 634;
},
{
anchors = (
{
name = bottom;
position = "{291, 0}";
},
{
name = top;
position = "{377, 700}";
}
);
layerId = "3C8330F3-4770-4812-9C95-859F387513C1";
paths = (
{
closed = 1;
nodes = (
"640 702 LINE",
"588 702 LINE",
"509 54 LINE",
"197 702 LINE",
"114 702 LINE",
"28 1 LINE",
"80 1 LINE",
"161 652 LINE",
"473 0 LINE",
"554 0 LINE"
);
}
);
width = 639;
}
);
unicode = 004E;
},
{
color = 5;
glyphname = Eng;
layers = (
{
components = (
{
name = N;
}
);
layerId = "4BC9CD2E-8AD0-40CC-97AA-8C7B556514B0";
paths = (
{
closed = 1;
nodes = (
"476 -174 OFFCURVE",
"528 -126 OFFCURVE",
"542 -2 CURVE",
"566 195 LINE",
"447 195 LINE",
"424 4 LINE",
"418 -70 OFFCURVE",
"365 -65 OFFCURVE",
"285 -65 CURVE",
"277 -168 LINE"
);
}
);
width = 634;
},
{
components = (
{
name = N;
}
);
layerId = "3C8330F3-4770-4812-9C95-859F387513C1";
paths = (
{
closed = 1;
nodes = (
"486 -148 OFFCURVE",
"533 -132 OFFCURVE",
"545 -4 CURVE",
"548 23 LINE",
"495 23 LINE",
"492 -2 LINE",
"481 -96 OFFCURVE",
"469 -99 OFFCURVE",
"386 -99 CURVE",
"382 -147 LINE"
);
}
);
width = 639;
}
);
unicode = 014A;
},
{
color = 5;
glyphname = O;
layers = (
{
anchors = (
{
name = bottom;
position = "{354, 0}";
},
{
name = center;
position = "{397, 350}";
},
{
name = ogonek;
position = "{480, 10}";
},
{
name = top;
position = "{440, 700}";
},
{
name = topleft;
position = "{77, 700}";
},
{
name = topright;
position = "{802, 700}";
}
);
layerId = "4BC9CD2E-8AD0-40CC-97AA-8C7B556514B0";
paths = (
{
closed = 1;
nodes = (
"714 148 OFFCURVE",
"738 342 CURVE SMOOTH",
"763 540 OFFCURVE",
"626 705 OFFCURVE",
"436 705 CURVE SMOOTH",
"253 705 OFFCURVE",
"78 546 OFFCURVE",
"55 354 CURVE SMOOTH",
"31 158 OFFCURVE",
"165 -5 OFFCURVE",
"359 -5 CURVE SMOOTH",
"545 -5 OFFCURVE"
);
},
{
closed = 1;
nodes = (
"631 482 OFFCURVE",
"616 354 CURVE SMOOTH",
"600 223 OFFCURVE",
"487 113 OFFCURVE",
"363 113 CURVE SMOOTH",
"246 113 OFFCURVE",
"162 216 OFFCURVE",
"177 342 CURVE SMOOTH",
"193 473 OFFCURVE",
"308 587 OFFCURVE",
"432 587 CURVE SMOOTH",
"548 587 OFFCURVE"
);
}
);
width = 765;
},
{
anchors = (
{
name = bottom;
position = "{354, 0}";
},
{
name = center;
position = "{397, 350}";
},
{
name = ogonek;
position = "{661, 10}";
},
{
name = top;
position = "{440, 700}";
},
{
name = topleft;
position = "{77, 700}";
},
{
name = topright;
position = "{802, 700}";
}
);
layerId = "3C8330F3-4770-4812-9C95-859F387513C1";
paths = (
{
closed = 1;
nodes = (
"715 150 OFFCURVE",
"739 345 CURVE SMOOTH",
"762 539 OFFCURVE",
"621 705 OFFCURVE",
"429 705 CURVE SMOOTH",
"235 705 OFFCURVE",
"78 545 OFFCURVE",
"54 351 CURVE SMOOTH",
"30 156 OFFCURVE",
"164 -5 OFFCURVE",
"356 -5 CURVE SMOOTH",
"544 -5 OFFCURVE"
);
},
{
closed = 1;
nodes = (
"707 515 OFFCURVE",
"686 351 CURVE SMOOTH",
"666 182 OFFCURVE",
"510 43 OFFCURVE",
"357 43 CURVE SMOOTH",
"204 43 OFFCURVE",
"87 183 OFFCURVE",
"107 345 CURVE SMOOTH",
"127 514 OFFCURVE",
"274 657 OFFCURVE",
"427 657 CURVE SMOOTH",
"578 657 OFFCURVE"
);
}
);
width = 766;
}
);
leftKerningGroup = "upper-rounds";
leftMetricsKey = C;
rightMetricsKey = C;
unicode = 004F;
},
{
color = 5;
glyphname = P;
layers = (
{
layerId = "4BC9CD2E-8AD0-40CC-97AA-8C7B556514B0";
paths = (
{
closed = 1;
nodes = (
"146 0 LINE",
"180 273 LINE",
"321 273 LINE SMOOTH",
"424 273 OFFCURVE",
"517 380 OFFCURVE",
"529 481 CURVE SMOOTH",
"543 593 OFFCURVE",
"482 700 OFFCURVE",
"372 700 CURVE SMOOTH",
"113 700 LINE",
"26 0 LINE"
);
},
{
closed = 1;
nodes = (
"218 582 LINE",
"357 582 LINE SMOOTH",
"389 582 OFFCURVE",
"419 545 OFFCURVE",
"413 493 CURVE SMOOTH",
"406 440 OFFCURVE",
"364 391 OFFCURVE",
"326 391 CURVE SMOOTH",
"194 391 LINE"
);
}
);
width = 537;
},
{
layerId = "3C8330F3-4770-4812-9C95-859F387513C1";
paths = (
{
closed = 1;
nodes = (
"78 0 LINE",
"116 309 LINE",
"334 309 LINE SMOOTH",
"429 309 OFFCURVE",
"521 409 OFFCURVE",
"533 501 CURVE SMOOTH",
"546 606 OFFCURVE",
"481 700 OFFCURVE",
"383 700 CURVE SMOOTH",
"113 700 LINE",
"26 0 LINE"
);
},
{
closed = 1;
nodes = (
"158 648 LINE",
"379 648 LINE SMOOTH",
"452 648 OFFCURVE",
"492 581 OFFCURVE",
"482 507 CURVE SMOOTH",
"474 436 OFFCURVE",
"405 360 OFFCURVE",
"338 360 CURVE SMOOTH",
"123 360 LINE"
);
}
);
width = 538;
}
);
unicode = 0050;
},
{
color = 5;
glyphname = Thorn;
layers = (
{
layerId = "4BC9CD2E-8AD0-40CC-97AA-8C7B556514B0";
paths = (
{
closed = 1;
nodes = (
"147 0 LINE",
"164 137 LINE",
"306 137 LINE SMOOTH",
"409 137 OFFCURVE",
"501 244 OFFCURVE",
"514 345 CURVE SMOOTH",
"528 460 OFFCURVE",
"463 564 OFFCURVE",
"356 564 CURVE SMOOTH",
"217 564 LINE",
"233 700 LINE",
"113 700 LINE",
"26 0 LINE"
);
},
{
closed = 1;
nodes = (
"202 444 LINE",
"343 444 LINE SMOOTH",
"381 444 OFFCURVE",
"405 405 OFFCURVE",
"399 357 CURVE SMOOTH",
"395 320 OFFCURVE",
"354 263 OFFCURVE",
"316 263 CURVE SMOOTH",
"180 263 LINE"
);
}
);
width = 541;
},
{
layerId = "3C8330F3-4770-4812-9C95-859F387513C1";
paths = (
{
closed = 1;
nodes = (
"80 0 LINE",
"99 154 LINE",
"297 154 LINE SMOOTH",
"391 154 OFFCURVE",
"485 256 OFFCURVE",
"496 348 CURVE SMOOTH",
"509 453 OFFCURVE",
"443 547 OFFCURVE",
"346 547 CURVE SMOOTH",
"147 547 LINE",
"166 700 LINE",
"113 700 LINE",
"26 0 LINE"
);
},
{
closed = 1;
nodes = (
"141 494 LINE",
"342 494 LINE SMOOTH",
"416 494 OFFCURVE",
"455 428 OFFCURVE",
"446 354 CURVE SMOOTH",
"437 282 OFFCURVE",
"369 207 OFFCURVE",
"302 207 CURVE SMOOTH",
"106 207 LINE"
);
}
);
width = 522;
}
);
leftMetricsKey = P;
rightMetricsKey = P;
unicode = 00DE;
},
{
color = 5;
glyphname = Q;
layers = (
{
layerId = "4BC9CD2E-8AD0-40CC-97AA-8C7B556514B0";
paths = (
{
closed = 1;
nodes = (
"410 -5 OFFCURVE",
"461 6 OFFCURVE",
"513 31 CURVE",
"548 -10 OFFCURVE",
"591 -14 OFFCURVE",
"693 -12 CURVE",
"702 103 LINE",
"675 100 OFFCURVE",
"648 101 OFFCURVE",
"624 110 CURVE",
"687 175 OFFCURVE",
"728 254 OFFCURVE",
"738 342 CURVE SMOOTH",
"762 539 OFFCURVE",
"629 703 OFFCURVE",
"435 703 CURVE SMOOTH",
"247 703 OFFCURVE",
"78 543 OFFCURVE",
"55 354 CURVE SMOOTH",
"31 158 OFFCURVE",
"165 -5 OFFCURVE",
"359 -5 CURVE SMOOTH"
);
},
{
closed = 1;
nodes = (
"243 115 OFFCURVE",
"165 223 OFFCURVE",
"179 342 CURVE SMOOTH",
"194 465 OFFCURVE",
"304 582 OFFCURVE",
"431 582 CURVE SMOOTH",
"550 582 OFFCURVE",
"629 475 OFFCURVE",
"614 354 CURVE SMOOTH",
"608 307 OFFCURVE",
"591 266 OFFCURVE",
"566 228 CURVE",
"539 288 OFFCURVE",
"460 322 OFFCURVE",
"375 335 CURVE",
"364 206 LINE",
"424 191 OFFCURVE",
"444 184 OFFCURVE",
"458 139 CURVE",
"428 123 OFFCURVE",
"398 115 OFFCURVE",
"363 115 CURVE SMOOTH"
);
}
);
width = 770;
},
{
layerId = "3C8330F3-4770-4812-9C95-859F387513C1";
paths = (
{
closed = 1;
nodes = (
"423 -5 OFFCURVE",
"488 14 OFFCURVE",
"546 50 CURVE",
"571 10 OFFCURVE",
"601 -5 OFFCURVE",
"677 -3 CURVE",
"681 45 LINE",
"623 43 OFFCURVE",
"602 53 OFFCURVE",
"588 79 CURVE",
"669 144 OFFCURVE",
"726 239 OFFCURVE",
"739 345 CURVE SMOOTH",
"762 539 OFFCURVE",
"631 705 OFFCURVE",
"439 705 CURVE SMOOTH",
"255 705 OFFCURVE",
"78 545 OFFCURVE",
"54 351 CURVE SMOOTH",
"30 156 OFFCURVE",
"164 -5 OFFCURVE",
"356 -5 CURVE SMOOTH"
);
},
{
closed = 1;
nodes = (
"194 40 OFFCURVE",
"87 183 OFFCURVE",
"107 345 CURVE SMOOTH",
"127 514 OFFCURVE",
"274 660 OFFCURVE",
"437 660 CURVE SMOOTH",
"598 660 OFFCURVE",
"707 515 OFFCURVE",
"686 351 CURVE SMOOTH",
"676 263 OFFCURVE",
"631 183 OFFCURVE",
"569 126 CURVE",
"539 214 OFFCURVE",
"515 253 OFFCURVE",
"417 277 CURVE",
"413 224 LINE",
"500 197 OFFCURVE",
"496 173 OFFCURVE",
"524 93 CURVE",
"475 60 OFFCURVE",
"417 40 OFFCURVE",
"357 40 CURVE SMOOTH"
);
}
);
width = 766;
}
);
leftKerningGroup = "upper-rounds";
leftMetricsKey = C;
rightMetricsKey = C;
unicode = 0051;
},
{
color = 5;
glyphname = R;
layers = (
{
anchors = (
{
name = bottom;
position = "{262, 0}";
},
{
name = top;
position = "{348, 700}";
}
);
layerId = "4BC9CD2E-8AD0-40CC-97AA-8C7B556514B0";
paths = (
{
closed = 1;
nodes = (
"379 283 LINE",
"460 315 OFFCURVE",
"521 400 OFFCURVE",
"531 481 CURVE SMOOTH",
"545 595 OFFCURVE",
"479 700 OFFCURVE",
"374 700 CURVE SMOOTH",
"113 700 LINE",
"26 0 LINE",
"146 0 LINE",
"180 273 LINE",
"242 273 LINE",
"368 0 LINE",
"509 0 LINE"
);
},
{
closed = 1;
nodes = (
"415 530 OFFCURVE",
"411 493 CURVE SMOOTH",
"405 449 OFFCURVE",
"368 400 OFFCURVE",
"329 400 CURVE SMOOTH",
"195 400 LINE",
"218 580 LINE",
"356 580 LINE SMOOTH",
"395 580 OFFCURVE"
);
}
);
width = 584;
},
{
anchors = (
{
name = bottom;
position = "{248, 0}";
},
{
name = top;
position = "{334, 700}";
}
);
layerId = "3C8330F3-4770-4812-9C95-859F387513C1";
paths = (
{
closed = 1;
nodes = (
"325 309 LINE",
"427 308 OFFCURVE",
"518 406 OFFCURVE",
"530 501 CURVE SMOOTH",
"543 608 OFFCURVE",
"473 700 OFFCURVE",
"382 700 CURVE SMOOTH",
"113 700 LINE",
"26 0 LINE",
"78 0 LINE",
"116 309 LINE",
"263 309 LINE",
"418 0 LINE",
"479 0 LINE"
);
},
{
closed = 1;
nodes = (
"487 579 OFFCURVE",
"478 507 CURVE SMOOTH",
"471 442 OFFCURVE",
"403 360 OFFCURVE",
"337 360 CURVE SMOOTH",
"123 360 LINE",
"158 648 LINE",
"378 648 LINE SMOOTH",
"448 648 OFFCURVE"
);
}
);
width = 554;
}
);
leftMetricsKey = E;
rightMetricsKey = C;
unicode = 0052;
},
{
color = 5;
glyphname = S;
layers = (
{
anchors = (
{
name = bottom;
position = "{246, 0}";
},
{
name = top;
position = "{332, 700}";
}
);
layerId = "4BC9CD2E-8AD0-40CC-97AA-8C7B556514B0";
paths = (
{
closed = 1;
nodes = (
"382 -10 OFFCURVE",
"492 82 OFFCURVE",
"507 201 CURVE SMOOTH",
"524 339 OFFCURVE",
"447 384 OFFCURVE",
"309 422 CURVE",
"239 447 OFFCURVE",
"190 456 OFFCURVE",
"199 511 CURVE SMOOTH",
"208 565 OFFCURVE",
"269 588 OFFCURVE",
"327 586 CURVE SMOOTH",
"373 585 OFFCURVE",
"416 569 OFFCURVE",
"453 548 CURVE",
"545 633 LINE",
"474 684 OFFCURVE",
"397 706 OFFCURVE",
"324 706 CURVE SMOOTH",
"208 706 OFFCURVE",
"110 652 OFFCURVE",
"82 539 CURVE SMOOTH",
"47 387 OFFCURVE",
"149 342 OFFCURVE",
"323 295 CURVE SMOOTH",
"364 281 OFFCURVE",
"393 251 OFFCURVE",
"388 213 CURVE SMOOTH",
"382 159 OFFCURVE",
"325 114 OFFCURVE",
"259 114 CURVE SMOOTH",
"212 114 OFFCURVE",
"154 139 OFFCURVE",
"119 181 CURVE",
"22 99 LINE",
"71 39 OFFCURVE",
"164 -10 OFFCURVE",
"256 -10 CURVE SMOOTH"
);
}
);
width = 554;
},
{
anchors = (
{
name = bottom;
position = "{230, 0}";
},
{
name = top;
position = "{316, 700}";
}
);
layerId = "3C8330F3-4770-4812-9C95-859F387513C1";
paths = (
{
closed = 1;
nodes = (
"356 -8 OFFCURVE",
"474 78 OFFCURVE",
"488 191 CURVE SMOOTH",
"504 321 OFFCURVE",
"434 356 OFFCURVE",
"295 393 CURVE SMOOTH",
"208 418 OFFCURVE",
"137 449 OFFCURVE",
"148 532 CURVE SMOOTH",
"158 619 OFFCURVE",
"245 652 OFFCURVE",
"333 652 CURVE SMOOTH",
"384 652 OFFCURVE",
"436 640 OFFCURVE",
"484 621 CURVE",
"520 668 LINE",
"468 692 OFFCURVE",
"398 704 OFFCURVE",
"337 704 CURVE SMOOTH",
"198 704 OFFCURVE",
"109 644 OFFCURVE",
"92 543 CURVE SMOOTH",
"74 436 OFFCURVE",
"156 372 OFFCURVE",
"271 344 CURVE",
"400 311 OFFCURVE",
"446 274 OFFCURVE",
"434 197 CURVE SMOOTH",
"421 103 OFFCURVE",
"331 44 OFFCURVE",
"234 44 CURVE SMOOTH",
"178 44 OFFCURVE",
"113 67 OFFCURVE",
"61 106 CURVE",
"15 71 LINE",
"66 27 OFFCURVE",
"145 -8 OFFCURVE",
"233 -8 CURVE SMOOTH"
);
}
);
width = 536;
}
);
unicode = 0053;
},
{
color = 5;
glyphname = T;
layers = (
{
anchors = (
{
name = bottom;
position = "{275, 0}";
},
{
name = center;
position = "{318, 350}";
},
{
name = top;
position = "{361, 700}";
}
);
layerId = "4BC9CD2E-8AD0-40CC-97AA-8C7B556514B0";
paths = (
{
closed = 1;
nodes = (
"619 700 LINE",
"103 700 LINE",
"90 590 LINE",
"288 590 LINE",
"215 0 LINE",
"335 0 LINE",
"408 590 LINE",
"606 590 LINE"
);
}
);
width = 598;
},
{
anchors = (
{
name = bottom;
position = "{275, 0}";
},
{
name = center;
position = "{318, 350}";
},
{
name = top;
position = "{361, 700}";
}
);
layerId = "3C8330F3-4770-4812-9C95-859F387513C1";
paths = (
{
closed = 1;
nodes = (
"619 700 LINE",
"103 700 LINE",
"97 652 LINE",
"329 652 LINE",
"249 0 LINE",
"301 0 LINE",
"381 652 LINE",
"613 652 LINE"
);
}
);
width = 597;
}
);
unicode = 0054;
},
{
color = 5;
glyphname = U;
layers = (
{
anchors = (
{
name = bottom;
position = "{281, 0}";
},
{
name = ogonek;
position = "{403, 16}";
},
{
name = top;
position = "{367, 700}";
},
{
name = topright;
position = "{654, 700}";
}
);
layerId = "4BC9CD2E-8AD0-40CC-97AA-8C7B556514B0";
paths = (
{
closed = 1;
nodes = (
"488 95 OFFCURVE",
"539 188 CURVE SMOOTH",
"557 224 OFFCURVE",
"573 231 OFFCURVE",
"577 269 CURVE SMOOTH",
"630 700 LINE",
"510 700 LINE",
"456 256 LINE SMOOTH",
"446 180 OFFCURVE",
"375 120 OFFCURVE",
"290 120 CURVE SMOOTH",
"212 120 OFFCURVE",
"159 173 OFFCURVE",
"168 250 CURVE",
"222 700 LINE",
"103 700 LINE",
"49 256 LINE SMOOTH",
"31 113 OFFCURVE",
"130 -5 OFFCURVE",
"285 -5 CURVE SMOOTH",
"397 -5 OFFCURVE"
);
},
{
closed = 1;
nodes = (
"424 0 LINE",
"544 0 LINE",
"575 254 LINE",
"455 254 LINE"
);
}
);
width = 629;
},
{
anchors = (
{
name = bottom;
position = "{267, 0}";
},
{
name = ogonek;
position = "{509, 10}";
},
{
name = top;
position = "{353, 700}";
},
{
name = topright;
position = "{633, 700}";
}
);
layerId = "3C8330F3-4770-4812-9C95-859F387513C1";
paths = (
{
closed = 1;
nodes = (
"474 50 OFFCURVE",
"526 135 CURVE SMOOTH",
"544 166 OFFCURVE",
"556 200 OFFCURVE",
"560 237 CURVE SMOOTH",
"617 700 LINE",
"565 700 LINE",
"509 241 LINE SMOOTH",
"496 133 OFFCURVE",
"395 45 OFFCURVE",
"278 45 CURVE SMOOTH",
"166 45 OFFCURVE",
"86 132 OFFCURVE",
"100 239 CURVE",
"155 700 LINE",
"103 700 LINE",
"47 241 LINE SMOOTH",
"30 103 OFFCURVE",
"136 -5 OFFCURVE",
"276 -5 CURVE SMOOTH",
"376 -5 OFFCURVE"
);
},
{
closed = 1;
nodes = (
"479 0 LINE",
"531 0 LINE",
"562 254 LINE",
"510 254 LINE"
);
}
);
width = 616;
}
);
unicode = 0055;
},
{
color = 5;
glyphname = V;
layers = (
{
layerId = "4BC9CD2E-8AD0-40CC-97AA-8C7B556514B0";
paths = (
{
closed = 1;
nodes = (
"512 700 LINE",
"306 175 LINE",
"230 700 LINE",
"103 700 LINE",
"230 0 LINE",
"342 0 LINE",
"641 700 LINE"
);
}
);
width = 618;
},
{
layerId = "3C8330F3-4770-4812-9C95-859F387513C1";
paths = (
{
closed = 1;
nodes = (
"558 700 LINE",
"276 53 LINE",
"154 700 LINE",
"103 700 LINE",
"238 0 LINE",
"304 0 LINE",
"611 700 LINE"
);
}
);
width = 588;
}
);
leftKerningGroup = "upper-angled";
unicode = 0056;
},
{
color = 5;
glyphname = W;
layers = (
{
anchors = (
{
name = bottom;
position = "{519, 0}";
},
{
name = top;
position = "{605, 700}";
}
);
layerId = "4BC9CD2E-8AD0-40CC-97AA-8C7B556514B0";
paths = (
{
closed = 1;
nodes = (
"972 700 LINE",
"754 178 LINE",
"653 589 LINE",
"530 589 LINE",
"327 178 LINE",
"237 700 LINE",
"103 700 LINE",
"237 0 LINE",
"368 0 LINE",
"572 415 LINE",
"674 0 LINE",
"805 0 LINE",
"1108 700 LINE"
);
}
);
width = 1085;
},
{
anchors = (
{
name = bottom;
position = "{509, 0}";
},
{
name = top;
position = "{595, 700}";
}
);
layerId = "3C8330F3-4770-4812-9C95-859F387513C1";
paths = (
{
closed = 1;
nodes = (
"1037 700 LINE",
"752 50 LINE",
"611 575 LINE",
"550 575 LINE",
"279 51 LINE",
"152 700 LINE",
"103 700 LINE",
"237 0 LINE",
"313 0 LINE",
"574 519 LINE",
"709 0 LINE",
"785 0 LINE",
"1089 700 LINE"
);
}
);
width = 1066;
}
);
leftKerningGroup = "upper-angled";
unicode = 0057;
},
{
color = 5;
glyphname = X;
layers = (
{
layerId = "4BC9CD2E-8AD0-40CC-97AA-8C7B556514B0";
paths = (
{
closed = 1;
nodes = (
"160 0 LINE",
"338 262 LINE",
"450 0 LINE",
"595 0 LINE",
"420 355 LINE",
"679 700 LINE",
"530 700 LINE",
"357 446 LINE",
"248 700 LINE",
"103 700 LINE",
"275 355 LINE",
"11 0 LINE"
);
}
);
width = 670;
},
{
layerId = "3C8330F3-4770-4812-9C95-859F387513C1";
paths = (
{
closed = 1;
nodes = (
"70 0 LINE",
"303 311 LINE",
"460 0 LINE",
"519 0 LINE",
"340 355 LINE",
"599 700 LINE",
"539 700 LINE",
"312 397 LINE",
"161 700 LINE",
"103 700 LINE",
"275 355 LINE",
"8 0 LINE"
);
}
);
width = 594;
}
);
unicode = 0058;
},
{
color = 5;
glyphname = Y;
layers = (
{
anchors = (
{
name = bottom;
position = "{299, 0}";
},
{
name = top;
position = "{385, 700}";
},
{
name = topleft;
position = "{60, 700}";
}
);
layerId = "4BC9CD2E-8AD0-40CC-97AA-8C7B556514B0";
paths = (
{
closed = 1;
nodes = (
"548 700 LINE",
"342 361 LINE",
"220 700 LINE",
"103 700 LINE",
"270 239 LINE",
"239 0 LINE",
"360 0 LINE",
"391 239 LINE",
"669 700 LINE"
);
}
);
width = 646;
},
{
anchors = (
{
name = bottom;
position = "{287, 0}";
},
{
name = top;
position = "{373, 700}";
},
{
name = topleft;
position = "{82, 700}";
}
);
layerId = "3C8330F3-4770-4812-9C95-859F387513C1";
paths = (
{
closed = 1;
nodes = (
"585 700 LINE",
"322 290 LINE",
"161 700 LINE",
"103 700 LINE",
"290 234 LINE",
"261 0 LINE",
"313 0 LINE",
"342 234 LINE",
"645 700 LINE"
);
}
);
width = 622;
}
);
unicode = 0059;
},
{
color = 5;
glyphname = Z;
layers = (
{
anchors = (
{
name = bottom;
position = "{253, 0}";
},
{
name = top;
position = "{339, 700}";
}
);
guideLines = (
{
angle = 55.9228;
position = "{226, 338}";
},
{
angle = 55.8403;
position = "{386, 364}";
}
);
layerId = "4BC9CD2E-8AD0-40CC-97AA-8C7B556514B0";
paths = (
{
closed = 1;
nodes = (
"507 110 LINE",
"170 110 LINE",
"563 602 LINE",
"574 700 LINE",
"103 700 LINE",
"90 588 LINE",
"414 588 LINE",
"24 100 LINE",
"12 0 LINE",
"493 0 LINE"
);
}
);
width = 568;
},
{
anchors = (
{
name = bottom;
position = "{253, 0}";
},
{
name = top;
position = "{339, 700}";
}
);
layerId = "3C8330F3-4770-4812-9C95-859F387513C1";
paths = (
{
closed = 1;
nodes = (
"500 51 LINE",
"84 51 LINE",
"568 646 LINE",
"574 700 LINE",
"103 700 LINE",
"97 648 LINE",
"504 648 LINE",
"18 52 LINE",
"12 0 LINE",
"493 0 LINE"
);
}
);
width = 568;
}
);
unicode = 005A;
},
{
color = 3;
glyphname = a;
layers = (
{
anchors = (
{
name = bottom;
position = "{221, 0}";
},
{
name = ogonek;
position = "{428, 10}";
},
{
name = top;
position = "{284, 510}";
}
);
layerId = "4BC9CD2E-8AD0-40CC-97AA-8C7B556514B0";
paths = (
{
closed = 1;
nodes = (
"233 -7 OFFCURVE",
"267 5 OFFCURVE",
"314 44 CURVE",
"306 0 LINE",
"428 0 LINE",
"460 261 LINE SMOOTH",
"469 334 OFFCURVE",
"478 400 OFFCURVE",
"447 435 CURVE SMOOTH",
"375 533 OFFCURVE",
"177 523 OFFCURVE",
"64 424 CURVE",
"126 347 LINE",
"194 413 OFFCURVE",
"358 430 OFFCURVE",
"348 346 CURVE SMOOTH",
"341 311 LINE",
"202 343 OFFCURVE",
"44 287 OFFCURVE",
"27 154 CURVE SMOOTH",
"15 58 OFFCURVE",
"64 -2 OFFCURVE",
"167 -5 CURVE SMOOTH"
);
},
{
closed = 1;
nodes = (
"247 88 OFFCURVE",
"126 71 OFFCURVE",
"135 143 CURVE SMOOTH",
"142 204 OFFCURVE",
"195 237 OFFCURVE",
"333 227 CURVE",
"318 143 LINE"
);
}
);
width = 503;
},
{
anchors = (
{
name = bottom;
position = "{218, 0}";
},
{
name = ogonek;
position = "{423, 10}";
},
{
name = top;
position = "{280, 500}";
}
);
layerId = "3C8330F3-4770-4812-9C95-859F387513C1";
paths = (
{
closed = 1;
nodes = (
"244 -5 OFFCURVE",
"316 13 OFFCURVE",
"373 46 CURVE",
"366 0 LINE",
"418 0 LINE",
"449 244 LINE",
"462 354 OFFCURVE",
"477 440 OFFCURVE",
"393 481 CURVE SMOOTH",
"308 524 OFFCURVE",
"160 511 OFFCURVE",
"75 412 CURVE",
"109 372 LINE",
"182 481 OFFCURVE",
"426 492 OFFCURVE",
"408 350 CURVE SMOOTH",
"402 310 LINE",
"189 346 OFFCURVE",
"44 302 OFFCURVE",
"25 145 CURVE SMOOTH",
"13 43 OFFCURVE",
"91 -5 OFFCURVE",
"180 -5 CURVE SMOOTH"
);
},
{
closed = 1;
nodes = (
"271 33 OFFCURVE",
"59 13 OFFCURVE",
"74 139 CURVE SMOOTH",
"90 264 OFFCURVE",
"232 291 OFFCURVE",
"400 264 CURVE",
"378 104 LINE"
);
}
);
width = 503;
}
);
leftKerningGroup = "rounded-low";
unicode = 0061;
},
{
color = 5;
glyphname = b;
layers = (
{
layerId = "4BC9CD2E-8AD0-40CC-97AA-8C7B556514B0";
paths = (
{
closed = 1;
nodes = (
"487 149 OFFCURVE",
"499 253 CURVE SMOOTH",
"517 393 OFFCURVE",
"452 507 OFFCURVE",
"307 507 CURVE SMOOTH",
"280 507 OFFCURVE",
"232 504 OFFCURVE",
"205 485 CURVE",
"233 700 LINE",
"113 700 LINE",
"27 0 LINE",
"147 0 LINE",
"154 42 LINE",
"184 1 OFFCURVE",
"282 -18 OFFCURVE",
"347 7 CURVE SMOOTH",
"437 47 OFFCURVE"
);
},
{
closed = 1;
nodes = (
"393 371 OFFCURVE",
"380 265 CURVE SMOOTH",
"363 132 OFFCURVE",
"260 75 OFFCURVE",
"162 139 CURVE",
"195 369 LINE",
"304 410 OFFCURVE"
);
}
);
width = 539;
},
{
layerId = "3C8330F3-4770-4812-9C95-859F387513C1";
paths = (
{
closed = 1;
nodes = (
"459 96 OFFCURVE",
"478 249 CURVE SMOOTH",
"497 402 OFFCURVE",
"422 505 OFFCURVE",
"275 505 CURVE SMOOTH",
"233 505 OFFCURVE",
"195 506 OFFCURVE",
"127 478 CURVE",
"155 700 LINE",
"103 700 LINE",
"17 0 LINE",
"69 0 LINE",
"77 52 LINE",
"112 27 OFFCURVE",
"152 -5 OFFCURVE",
"225 -5 CURVE SMOOTH",
"367 -5 OFFCURVE"
);
},
{
closed = 1;
nodes = (
"449 442 OFFCURVE",
"426 255 CURVE SMOOTH",
"402 60 OFFCURVE",
"222 -15 OFFCURVE",
"80 95 CURVE",
"122 426 LINE",
"302 499 OFFCURVE"
);
}
);
width = 518;
}
);
unicode = 0062;
},
{
color = 5;
glyphname = c;
layers = (
{
anchors = (
{
name = bottom;
position = "{223, 0}";
},
{
name = top;
position = "{285, 500}";
}
);
layerId = "4BC9CD2E-8AD0-40CC-97AA-8C7B556514B0";
paths = (
{
closed = 1;
nodes = (
"379 159 LINE",
"281 65 OFFCURVE",
"144 108 OFFCURVE",
"160 244 CURVE SMOOTH",
"176 376 OFFCURVE",
"333 438 OFFCURVE",
"401 341 CURVE",
"488 422 LINE",
"332 582 OFFCURVE",
"71 503 OFFCURVE",
"41 256 CURVE SMOOTH",
"11 11 OFFCURVE",
"257 -93 OFFCURVE",
"444 67 CURVE"
);
}
);
width = 510;
},
{
anchors = (
{
name = bottom;
position = "{229, 0}";
},
{
name = top;
position = "{291, 500}";
}
);
layerId = "3C8330F3-4770-4812-9C95-859F387513C1";
paths = (
{
closed = 1;
nodes = (
"394 104 LINE",
"245 -21 OFFCURVE",
"69 67 OFFCURVE",
"92 252 CURVE SMOOTH",
"114 431 OFFCURVE",
"301 506 OFFCURVE",
"432 400 CURVE",
"466 437 LINE",
"308 579 OFFCURVE",
"68 478 OFFCURVE",
"41 258 CURVE SMOOTH",
"13 31 OFFCURVE",
"226 -94 OFFCURVE",
"421 61 CURVE"
);
}
);
width = 488;
}
);
leftKerningGroup = "rounded-low";
unicode = 0063;
},
{
color = 5;
glyphname = d;
layers = (
{
anchors = (
{
name = bottom;
position = "{219, 0}";
},
{
name = center;
position = "{305, 250}";
},
{
name = top;
position = "{305, 700}";
},
{
name = topright;
position = "{522, 500}";
}
);
layerId = "4BC9CD2E-8AD0-40CC-97AA-8C7B556514B0";
paths = (
{
closed = 1;
nodes = (
"196 -16 OFFCURVE",
"297 -3 OFFCURVE",
"337 38 CURVE",
"330 0 LINE",
"450 0 LINE",
"536 700 LINE",
"416 700 LINE",
"387 481 LINE",
"365 500 OFFCURVE",
"317 507 OFFCURVE",
"284 507 CURVE SMOOTH",
"145 507 OFFCURVE",
"58 399 OFFCURVE",
"42 265 CURVE SMOOTH",
"28 155 OFFCURVE",
"57 49 OFFCURVE",
"142 11 CURVE SMOOTH"
);
},
{
closed = 1;
nodes = (
"232 77 OFFCURVE",
"146 126 OFFCURVE",
"161 253 CURVE SMOOTH",
"175 365 OFFCURVE",
"279 412 OFFCURVE",
"378 371 CURVE",
"345 141 LINE"
);
}
);
width = 535;
},
{
anchors = (
{
name = bottom;
position = "{219, 0}";
},
{
name = center;
position = "{340, 591}";
},
{
name = top;
position = "{305, 698}";
},
{
name = topright;
position = "{521, 500}";
}
);
layerId = "3C8330F3-4770-4812-9C95-859F387513C1";
paths = (
{
closed = 1;
nodes = (
"306 -5 OFFCURVE",
"352 25 OFFCURVE",
"394 50 CURVE",
"387 0 LINE",
"439 0 LINE",
"525 700 LINE",
"473 700 LINE",
"445 476 LINE",
"383 504 OFFCURVE",
"345 505 OFFCURVE",
"301 505 CURVE SMOOTH",
"156 505 OFFCURVE",
"59 404 OFFCURVE",
"41 255 CURVE SMOOTH",
"21 98 OFFCURVE",
"91 -5 OFFCURVE",
"235 -5 CURVE SMOOTH"
);
},
{
closed = 1;
nodes = (
"230 -13 OFFCURVE",
"69 58 OFFCURVE",
"93 249 CURVE SMOOTH",
"116 440 OFFCURVE",
"279 499 OFFCURVE",
"441 426 CURVE",
"398 97 LINE"
);
}
);
width = 524;
}
);
leftKerningGroup = "rounded-low";
unicode = 0064;
},
{
color = 5;
glyphname = eth;
layers = (
{
layerId = "4BC9CD2E-8AD0-40CC-97AA-8C7B556514B0";
paths = (
{
closed = 1;
nodes = (
"348 -18 OFFCURVE",
"474 72 OFFCURVE",
"507 203 CURVE SMOOTH",
"533 313 OFFCURVE",
"509 427 OFFCURVE",
"444 571 CURVE",
"527 602 LINE",
"507 691 LINE",
"404 655 LINE",
"378 709 LINE",
"230 702 LINE",
"256 661 OFFCURVE",
"281 621 OFFCURVE",
"284 614 CURVE",
"199 581 LINE",
"221 493 LINE",
"330 533 LINE",
"338 520 OFFCURVE",
"354 486 OFFCURVE",
"364 459 CURVE",
"234 512 OFFCURVE",
"83 427 OFFCURVE",
"45 274 CURVE SMOOTH",
"14 145 OFFCURVE",
"91 14 OFFCURVE",
"224 -1 CURVE SMOOTH"
);
},
{
closed = 1;
nodes = (
"187 131 OFFCURVE",
"149 185 OFFCURVE",
"165 248 CURVE SMOOTH",
"179 309 OFFCURVE",
"241 362 OFFCURVE",
"309 355 CURVE SMOOTH",
"368 346 OFFCURVE",
"403 291 OFFCURVE",
"387 231 CURVE",
"375 169 OFFCURVE",
"312 117 OFFCURVE",
"243 122 CURVE SMOOTH"
);
}
);
width = 555;
},
{
layerId = "3C8330F3-4770-4812-9C95-859F387513C1";
paths = (
{
closed = 1;
nodes = (
"374 -5 OFFCURVE",
"493 94 OFFCURVE",
"508 220 CURVE SMOOTH",
"522 330 OFFCURVE",
"491 447 OFFCURVE",
"377 600 CURVE",
"482 636 LINE",
"474 673 LINE",
"354 633 LINE",
"299 700 LINE",
"234 701 LINE",
"260 672 OFFCURVE",
"282 644 OFFCURVE",
"304 617 CURVE",
"194 580 LINE",
"202 543 LINE",
"327 585 LINE",
"371 524 OFFCURVE",
"405 465 OFFCURVE",
"435 399 CURVE",
"311 529 OFFCURVE",
"60 414 OFFCURVE",
"37 226 CURVE SMOOTH",
"21 96 OFFCURVE",
"117 -5 OFFCURVE",
"248 -5 CURVE SMOOTH"
);
},
{
closed = 1;
nodes = (
"150 46 OFFCURVE",
"77 125 OFFCURVE",
"88 220 CURVE SMOOTH",
"101 320 OFFCURVE",
"191 399 OFFCURVE",
"294 399 CURVE SMOOTH",
"391 399 OFFCURVE",
"466 324 OFFCURVE",
"454 226 CURVE SMOOTH",
"441 123 OFFCURVE",
"341 46 OFFCURVE",
"247 46 CURVE SMOOTH"
);
}
);
width = 552;
}
);
leftKerningGroup = "rounded-low";
unicode = 00F0;
},
{
color = 3;
glyphname = e;
layers = (
{
anchors = (
{
name = bottom;
position = "{251, 0}";
},
{
name = ogonek;
position = "{368, 10}";
},
{
name = top;
position = "{314, 510}";
}
);
layerId = "4BC9CD2E-8AD0-40CC-97AA-8C7B556514B0";
paths = (
{
closed = 1;
nodes = (
"527 272 OFFCURVE",
"528 328 OFFCURVE",
"512 374 CURVE SMOOTH",
"489 458 OFFCURVE",
"419 505 OFFCURVE",
"309 506 CURVE SMOOTH",
"163 507 OFFCURVE",
"61 414 OFFCURVE",
"43 269 CURVE SMOOTH",
"22 93 OFFCURVE",
"96 -9 OFFCURVE",
"268 -9 CURVE SMOOTH",
"339 -9 OFFCURVE",
"418 12 OFFCURVE",
"498 74 CURVE",
"439 169 LINE",
"332 83 OFFCURVE",
"159 80 OFFCURVE",
"164 201 CURVE",
"514 201 LINE"
);
},
{
closed = 1;
nodes = (
"394 394 OFFCURVE",
"429 339 OFFCURVE",
"422 285 CURVE",
"174 285 LINE",
"181 338 OFFCURVE",
"232 394 OFFCURVE",
"317 394 CURVE SMOOTH"
);
}
);
width = 563;
},
{
anchors = (
{
name = bottom;
position = "{265, 0}";
},
{
name = ogonek;
position = "{453, 41}";
},
{
name = top;
position = "{315, 503}";
}
);
background = {
components = (
{
name = o;
transform = "{1, 0, 0, 1, 5, 0}";
}
);
};
layerId = "3C8330F3-4770-4812-9C95-859F387513C1";
paths = (
{
closed = 1;
nodes = (
"522 290 OFFCURVE",
"525 338 OFFCURVE",
"514 374 CURVE SMOOTH",
"488 458 OFFCURVE",
"418 503 OFFCURVE",
"315 503 CURVE SMOOTH",
"151 503 OFFCURVE",
"60 411 OFFCURVE",
"42 264 CURVE SMOOTH",
"20 88 OFFCURVE",
"103 -18 OFFCURVE",
"269 -11 CURVE SMOOTH",
"340 -8 OFFCURVE",
"410 12 OFFCURVE",
"475 57 CURVE",
"453 101 LINE",
"274 -16 OFFCURVE",
"70 30 OFFCURVE",
"96 237 CURVE",
"511 237 LINE"
);
},
{
closed = 1;
nodes = (
"418 453 OFFCURVE",
"481 402 OFFCURVE",
"467 290 CURVE",
"102 288 LINE",
"117 409 OFFCURVE",
"214 453 OFFCURVE",
"313 453 CURVE SMOOTH"
);
}
);
width = 554;
}
);
leftKerningGroup = "rounded-low";
unicode = 0065;
},
{
color = 5;
glyphname = f;
layers = (
{
layerId = "4BC9CD2E-8AD0-40CC-97AA-8C7B556514B0";
paths = (
{
closed = 1;
nodes = (
"309 587 OFFCURVE",
"394 587 CURVE",
"403 705 LINE",
"243 713 OFFCURVE",
"166 636 OFFCURVE",
"150 501 CURVE",
"75 498 LINE",
"63 393 LINE",
"136 393 LINE",
"87 -2 LINE",
"205 -2 LINE",
"254 393 LINE",
"328 393 LINE",
"340 498 LINE",
"266 495 LINE",
"277 569 OFFCURVE"
);
}
);
width = 377;
},
{
layerId = "3C8330F3-4770-4812-9C95-859F387513C1";
paths = (
{
closed = 1;
nodes = (
"249 664 OFFCURVE",
"389 656 CURVE",
"393 704 LINE",
"223 714 OFFCURVE",
"190 632 OFFCURVE",
"174 501 CURVE",
"75 500 LINE",
"69 454 LINE",
"168 454 LINE",
"112 0 LINE",
"164 0 LINE",
"220 454 LINE",
"326 454 LINE",
"332 500 LINE",
"226 499 LINE",
"238 602 OFFCURVE"
);
}
);
width = 362;
}
);
unicode = 0066;
},
{
color = 3;
glyphname = g;
layers = (
{
anchors = (
{
name = bottom;
position = "{242, 0}";
},
{
name = top;
position = "{305, 510}";
}
);
layerId = "4BC9CD2E-8AD0-40CC-97AA-8C7B556514B0";
paths = (
{
closed = 1;
nodes = (
"357 -204 OFFCURVE",
"439 -116 OFFCURVE",
"456 25 CURVE SMOOTH",
"515 500 LINE",
"395 500 LINE",
"390 477 LINE",
"226 555 OFFCURVE",
"64 449 OFFCURVE",
"40 252 CURVE SMOOTH",
"18 75 OFFCURVE",
"166 -65 OFFCURVE",
"335 24 CURVE",
"330 -5 OFFCURVE",
"320 -35 OFFCURVE",
"302 -53 CURVE SMOOTH",
"264 -107 OFFCURVE",
"178 -95 OFFCURVE",
"132 -42 CURVE",
"49 -118 LINE",
"75 -164 OFFCURVE",
"158 -204 OFFCURVE",
"227 -204 CURVE SMOOTH"
);
},
{
closed = 1;
nodes = (
"143 129 OFFCURVE",
"157 240 CURVE SMOOTH",
"174 377 OFFCURVE",
"276 431 OFFCURVE",
"380 364 CURVE",
"347 134 LINE",
"242 92 OFFCURVE"
);
}
);
width = 538;
},
{
anchors = (
{
name = bottom;
position = "{232, 0}";
},
{
name = top;
position = "{294, 500}";
}
);
layerId = "3C8330F3-4770-4812-9C95-859F387513C1";
paths = (
{
closed = 1;
nodes = (
"357 -204 OFFCURVE",
"429 -128 OFFCURVE",
"444 -1 CURVE SMOOTH",
"506 500 LINE",
"453 500 LINE",
"448 471 LINE",
"262 556 OFFCURVE",
"59 474 OFFCURVE",
"39 240 CURVE SMOOTH",
"22 43 OFFCURVE",
"213 -65 OFFCURVE",
"397 37 CURVE",
"389 -22 OFFCURVE",
"382 -51 OFFCURVE",
"361 -86 CURVE SMOOTH",
"314 -171 OFFCURVE",
"184 -167 OFFCURVE",
"107 -116 CURVE",
"71 -154 LINE",
"114 -185 OFFCURVE",
"160 -204 OFFCURVE",
"217 -204 CURVE SMOOTH"
);
},
{
closed = 1;
nodes = (
"75 75 OFFCURVE",
"91 234 CURVE SMOOTH",
"111 439 OFFCURVE",
"256 493 OFFCURVE",
"444 417 CURVE",
"402 93 LINE",
"241 9 OFFCURVE"
);
}
);
width = 529;
}
);
leftKerningGroup = "rounded-low";
unicode = 0067;
},
{
color = 5;
glyphname = h;
layers = (
{
anchors = (
{
name = bottom;
position = "{237, 0}";
},
{
name = center;
position = "{222, 610}";
},
{
name = top;
position = "{323, 700}";
}
);
layerId = "4BC9CD2E-8AD0-40CC-97AA-8C7B556514B0";
paths = (
{
closed = 1;
nodes = (
"494 285 LINE SMOOTH",
"509 401 OFFCURVE",
"453 488 OFFCURVE",
"331 502 CURVE SMOOTH",
"286 507 OFFCURVE",
"239 502 OFFCURVE",
"204 475 CURVE",
"233 700 LINE",
"113 700 LINE",
"27 0 LINE",
"147 0 LINE",
"184 300 LINE",
"189 338 OFFCURVE",
"234 385 OFFCURVE",
"293 385 CURVE SMOOTH",
"351 385 OFFCURVE",
"383 359 OFFCURVE",
"375 291 CURVE SMOOTH",
"339 0 LINE",
"459 0 LINE"
);
}
);
width = 534;
},
{
anchors = (
{
name = bottom;
position = "{237, 0}";
},
{
name = center;
position = "{260, 584}";
},
{
name = top;
position = "{323, 700}";
}
);
layerId = "3C8330F3-4770-4812-9C95-859F387513C1";
paths = (
{
closed = 1;
nodes = (
"493 303 LINE SMOOTH",
"510 439 OFFCURVE",
"432 505 OFFCURVE",
"295 505 CURVE SMOOTH",
"249 505 OFFCURVE",
"177 487 OFFCURVE",
"132 437 CURVE",
"165 700 LINE",
"113 700 LINE",
"27 0 LINE",
"79 0 LINE",
"122 348 LINE",
"129 402 OFFCURVE",
"220 458 OFFCURVE",
"299 458 CURVE SMOOTH",
"395 458 OFFCURVE",
"455 412 OFFCURVE",
"442 305 CURVE SMOOTH",
"404 0 LINE",
"456 0 LINE"
);
}
);
width = 531;
}
);
leftKerningGroup = "angleds-low";
unicode = 0068;
},
{
color = 5;
glyphname = i;
layers = (
{
components = (
{
name = idotless;
transform = "{1, 0, 0, 1, 27, 0}";
}
);
layerId = "4BC9CD2E-8AD0-40CC-97AA-8C7B556514B0";
paths = (
{
closed = 1;
nodes = (
"217 559 OFFCURVE",
"249 591 OFFCURVE",
"249 632 CURVE SMOOTH",
"249 672 OFFCURVE",
"217 704 OFFCURVE",
"177 704 CURVE SMOOTH",
"136 704 OFFCURVE",
"104 672 OFFCURVE",
"104 632 CURVE SMOOTH",
"104 591 OFFCURVE",
"136 559 OFFCURVE",
"177 559 CURVE SMOOTH"
);
}
);
width = 246;
},
{
components = (
{
name = idotless;
transform = "{1, 0, 0, 1, 19, 0}";
}
);
layerId = "3C8330F3-4770-4812-9C95-859F387513C1";
paths = (
{
closed = 1;
nodes = (
"163 570 OFFCURVE",
"181 588 OFFCURVE",
"181 610 CURVE SMOOTH",
"181 632 OFFCURVE",
"163 650 OFFCURVE",
"141 650 CURVE SMOOTH",
"119 650 OFFCURVE",
"101 632 OFFCURVE",
"101 610 CURVE SMOOTH",
"101 588 OFFCURVE",
"119 570 OFFCURVE",
"141 570 CURVE SMOOTH"
);
}
);
width = 181;
}
);
leftKerningGroup = "angleds-low";
unicode = 0069;
},
{
color = 5;
glyphname = idotless;
layers = (
{
anchors = (
{
name = bottom;
position = "{82, 0}";
},
{
name = ogonek;
position = "{176, 10}";
},
{
name = top;
position = "{144, 500}";
}
);
layerId = "4BC9CD2E-8AD0-40CC-97AA-8C7B556514B0";
paths = (
{
closed = 1;
nodes = (
"195 500 LINE",
"85 500 LINE",
"23 0 LINE",
"133 0 LINE"
);
}
);
width = 218;
},
{
anchors = (
{
name = bottom;
position = "{50, 0}";
},
{
name = ogonek;
position = "{124, 10}";
},
{
name = top;
position = "{112, 500}";
}
);
layerId = "3C8330F3-4770-4812-9C95-859F387513C1";
paths = (
{
closed = 1;
nodes = (
"137 500 LINE",
"85 500 LINE",
"23 0 LINE",
"75 0 LINE"
);
}
);
width = 160;
}
);
unicode = 0131;
},
{
color = 5;
glyphname = j;
layers = (
{
components = (
{
name = jdotless;
transform = "{1, 0, 0, 1, -3, 0}";
}
);
guideLines = (
{
angle = 90;
position = "{137, 673}";
}
);
layerId = "4BC9CD2E-8AD0-40CC-97AA-8C7B556514B0";
paths = (
{
closed = 1;
nodes = (
"217 560 OFFCURVE",
"249 593 OFFCURVE",
"248 634 CURVE SMOOTH",
"247 673 OFFCURVE",
"217 705 OFFCURVE",
"178 705 CURVE SMOOTH",
"137 705 OFFCURVE",
"106 673 OFFCURVE",
"105 634 CURVE SMOOTH",
"104 593 OFFCURVE",
"137 562 OFFCURVE",
"178 561 CURVE SMOOTH"
);
}
);
width = 249;
},
{
components = (
{
name = jdotless;
transform = "{1, 0, 0, 1, -6, 0}";
}
);
guideLines = (
{
angle = 270;
position = "{136, 640}";
}
);
layerId = "3C8330F3-4770-4812-9C95-859F387513C1";
paths = (
{
closed = 1;
nodes = (
"203 580 OFFCURVE",
"221 598 OFFCURVE",
"221 620 CURVE SMOOTH",
"221 642 OFFCURVE",
"203 660 OFFCURVE",
"181 660 CURVE SMOOTH",
"159 660 OFFCURVE",
"141 642 OFFCURVE",
"141 620 CURVE SMOOTH",
"141 598 OFFCURVE",
"159 580 OFFCURVE",
"181 580 CURVE SMOOTH"
);
}
);
width = 219;
}
);
unicode = 006A;
},
{
color = 5;
glyphname = jdotless;
layers = (
{
layerId = "3C8330F3-4770-4812-9C95-859F387513C1";
paths = (
{
closed = 1;
nodes = (
"48 -169 OFFCURVE",
"117 -111 OFFCURVE",
"134 33 CURVE SMOOTH",
"192 500 LINE",
"141 500 LINE",
"84 35 LINE SMOOTH",
"69 -84 OFFCURVE",
"24 -118 OFFCURVE",
"-83 -125 CURVE",
"-87 -176 LINE"
);
}
);
width = 215;
},
{
layerId = "4BC9CD2E-8AD0-40CC-97AA-8C7B556514B0";
paths = (
{
closed = 1;
nodes = (
"64 -182 OFFCURVE",
"151 -107 OFFCURVE",
"171 52 CURVE SMOOTH",
"226 500 LINE",
"107 500 LINE",
"52 58 LINE SMOOTH",
"41 -33 OFFCURVE",
"17 -59 OFFCURVE",
"-74 -61 CURVE",
"-83 -177 LINE"
);
}
);
width = 249;
}
);
unicode = 0237;
},
{
glyphname = k;
layers = (
{
anchors = (
{
name = bottom;
position = "{240, 0}";
},
{
name = top;
position = "{302, 500}";
}
);
layerId = "4BC9CD2E-8AD0-40CC-97AA-8C7B556514B0";
paths = (
{
closed = 1;
nodes = (
"147 0 LINE",
"170 187 LINE",
"173 209 LINE",
"305 0 LINE",
"446 0 LINE",
"275 291 LINE",
"488 502 LINE",
"331 502 LINE",
"192 366 LINE",
"233 700 LINE",
"113 700 LINE",
"27 0 LINE"
);
}
);
width = 521;
},
{
anchors = (
{
name = bottom;
position = "{196, 0}";
},
{
name = top;
position = "{320, 500}";
}
);
layerId = "3C8330F3-4770-4812-9C95-859F387513C1";
paths = (
{
closed = 1;
nodes = (
"80 0 LINE",
"109 241 LINE",
"126 253 LINE",
"298 0 LINE",
"358 0 LINE",
"171 287 LINE",
"413 487 LINE",
"335 487 LINE",
"118 311 LINE",
"166 700 LINE",
"113 700 LINE",
"27 0 LINE"
);
}
);
width = 433;
}
);
leftKerningGroup = "angleds-low";
unicode = 006B;
},
{
color = 5;
glyphname = l;
layers = (
{
anchors = (
{
name = bottom;
position = "{105, 0}";
},
{
name = center;
position = "{129, 336}";
},
{
name = top;
position = "{173, 700}";
},
{
name = topright;
position = "{239, 500}";
}
);
layerId = "4BC9CD2E-8AD0-40CC-97AA-8C7B556514B0";
paths = (
{
closed = 1;
nodes = (
"233 700 LINE",
"113 700 LINE",
"27 0 LINE",
"147 0 LINE"
);
}
);
width = 232;
},
{
anchors = (
{
name = bottom;
position = "{53, 0}";
},
{
name = center;
position = "{93, 323}";
},
{
name = top;
position = "{139, 700}";
},
{
name = topright;
position = "{171, 500}";
}
);
layerId = "3C8330F3-4770-4812-9C95-859F387513C1";
paths = (
{
closed = 1;
nodes = (
"165 700 LINE",
"113 700 LINE",
"27 0 LINE",
"79 0 LINE"
);
}
);
width = 164;
}
);
unicode = 006C;
},
{
glyphname = lslash;
layers = (
{
components = (
{
alignment = -1;
name = l;
transform = "{1, 0, 0, 1, 130, 0}";
}
);
layerId = "4BC9CD2E-8AD0-40CC-97AA-8C7B556514B0";
paths = (
{
closed = 1;
nodes = (
"364 561 LINE",
"39 175 LINE",
"147 175 LINE",
"473 561 LINE"
);
}
);
width = 479;
},
{
components = (
{
alignment = -1;
name = l;
transform = "{1, 0, 0, 1, 88, 0}";
}
);
layerId = "3C8330F3-4770-4812-9C95-859F387513C1";
paths = (
{
closed = 1;
nodes = (
"270 531 LINE",
"49 244 LINE",
"96 244 LINE",
"318 531 LINE"
);
}
);
width = 329;
}
);
leftMetricsKey = l;
rightMetricsKey = l;
unicode = 0142;
},
{
color = 5;
glyphname = m;
layers = (
{
layerId = "4BC9CD2E-8AD0-40CC-97AA-8C7B556514B0";
paths = (
{
closed = 1;
nodes = (
"824 285 LINE SMOOTH",
"840 414 OFFCURVE",
"753 505 OFFCURVE",
"639 505 CURVE SMOOTH",
"582 505 OFFCURVE",
"507 485 OFFCURVE",
"466 439 CURVE",
"440 481 OFFCURVE",
"382 505 OFFCURVE",
"318 505 CURVE SMOOTH",
"279 505 OFFCURVE",
"234 496 OFFCURVE",
"198 464 CURVE",
"205 500 LINE",
"85 500 LINE",
"23 0 LINE",
"143 0 LINE",
"178 285 LINE",
"187 356 OFFCURVE",
"248 383 OFFCURVE",
"306 383 CURVE SMOOTH",
"356 383 OFFCURVE",
"395 362 OFFCURVE",
"386 291 CURVE SMOOTH",
"350 0 LINE",
"466 0 LINE",
"501 285 LINE SMOOTH",
"510 356 OFFCURVE",
"566 384 OFFCURVE",
"628 384 CURVE SMOOTH",
"682 384 OFFCURVE",
"714 362 OFFCURVE",
"705 291 CURVE SMOOTH",
"669 0 LINE",
"789 0 LINE"
);
}
);
width = 864;
},
{
layerId = "3C8330F3-4770-4812-9C95-859F387513C1";
paths = (
{
closed = 1;
nodes = (
"818 299 LINE SMOOTH",
"835 436 OFFCURVE",
"747 505 OFFCURVE",
"644 505 CURVE SMOOTH",
"572 505 OFFCURVE",
"504 478 OFFCURVE",
"458 415 CURVE",
"417 478 OFFCURVE",
"348 507 OFFCURVE",
"278 506 CURVE SMOOTH",
"222 504 OFFCURVE",
"167 483 OFFCURVE",
"128 441 CURVE",
"136 500 LINE",
"85 500 LINE",
"23 0 LINE",
"74 0 LINE",
"111 299 LINE",
"124 407 OFFCURVE",
"218 459 OFFCURVE",
"281 459 CURVE SMOOTH",
"373 459 OFFCURVE",
"431 409 OFFCURVE",
"417 301 CURVE SMOOTH",
"380 0 LINE",
"431 0 LINE",
"468 299 LINE SMOOTH",
"481 402 OFFCURVE",
"550 459 OFFCURVE",
"640 459 CURVE SMOOTH",
"727 459 OFFCURVE",
"780 404 OFFCURVE",
"767 301 CURVE SMOOTH",
"730 0 LINE",
"781 0 LINE"
);
}
);
width = 856;
}
);
leftKerningGroup = "angleds-low";
unicode = 006D;
},
{
color = 5;
glyphname = n;
layers = (
{
anchors = (
{
name = bottom;
position = "{256, 0}";
},
{
name = top;
position = "{319, 510}";
}
);
layerId = "4BC9CD2E-8AD0-40CC-97AA-8C7B556514B0";
paths = (
{
closed = 1;
nodes = (
"509 289 LINE SMOOTH",
"525 417 OFFCURVE",
"452 506 OFFCURVE",
"322 506 CURVE SMOOTH",
"281 506 OFFCURVE",
"218 491 OFFCURVE",
"198 460 CURVE",
"205 500 LINE",
"85 500 LINE",
"23 0 LINE",
"143 0 LINE",
"179 289 LINE",
"189 370 OFFCURVE",
"267 388 OFFCURVE",
"309 388 CURVE SMOOTH",
"348 388 OFFCURVE",
"399 376 OFFCURVE",
"390 295 CURVE SMOOTH",
"353 0 LINE",
"473 0 LINE"
);
}
);
width = 548;
},
{
anchors = (
{
name = bottom;
position = "{229, 0}";
},
{
name = top;
position = "{291, 500}";
}
);
layerId = "3C8330F3-4770-4812-9C95-859F387513C1";
paths = (
{
closed = 1;
nodes = (
"486 299 LINE SMOOTH",
"503 441 OFFCURVE",
"404 505 OFFCURVE",
"292 506 CURVE SMOOTH",
"229 507 OFFCURVE",
"167 484 OFFCURVE",
"124 435 CURVE",
"133 500 LINE",
"81 500 LINE",
"19 0 LINE",
"71 0 LINE",
"108 299 LINE",
"120 396 OFFCURVE",
"206 455 OFFCURVE",
"290 455 CURVE SMOOTH",
"376 455 OFFCURVE",
"447 408 OFFCURVE",
"434 301 CURVE SMOOTH",
"397 0 LINE",
"449 0 LINE"
);
}
);
width = 520;
}
);
leftKerningGroup = "angleds-low";
unicode = 006E;
},
{
color = 5;
glyphname = eng;
layers = (
{
components = (
{
name = n;
}
);
layerId = "4BC9CD2E-8AD0-40CC-97AA-8C7B556514B0";
paths = (
{
closed = 1;
nodes = (
"392 -175 OFFCURVE",
"455 -116 OFFCURVE",
"469 -1 CURVE",
"479 76 LINE",
"359 76 LINE",
"350 3 LINE",
"342 -57 OFFCURVE",
"318 -71 OFFCURVE",
"233 -71 CURVE",
"225 -175 LINE"
);
}
);
width = 548;
},
{
components = (
{
name = n;
}
);
layerId = "3C8330F3-4770-4812-9C95-859F387513C1";
paths = (
{
closed = 1;
nodes = (
"381 -124 OFFCURVE",
"439 -86 OFFCURVE",
"449 -4 CURVE",
"452 22 LINE",
"400 22 LINE",
"397 -2 LINE",
"391 -51 OFFCURVE",
"358 -77 OFFCURVE",
"302 -88 CURVE",
"297 -139 LINE"
);
}
);
width = 521;
}
);
leftMetricsKey = n;
rightMetricsKey = n;
unicode = 014B;
},
{
color = 5;
glyphname = o;
layers = (
{
anchors = (
{
name = bottom;
position = "{251, 0}";
},
{
name = center;
position = "{282, 250}";
},
{
name = ogonek;
position = "{353, 10}";
},
{
name = top;
position = "{314, 510}";
},
{
name = topright;
position = "{575, 500}";
}
);
layerId = "4BC9CD2E-8AD0-40CC-97AA-8C7B556514B0";
paths = (
{
closed = 1;
nodes = (
"395 -10 OFFCURVE",
"504 87 OFFCURVE",
"522 235 CURVE SMOOTH",
"544 414 OFFCURVE",
"453 505 OFFCURVE",
"308 505 CURVE SMOOTH",
"166 505 OFFCURVE",
"61 420 OFFCURVE",
"40 247 CURVE SMOOTH",
"21 93 OFFCURVE",
"108 -10 OFFCURVE",
"255 -10 CURVE SMOOTH"
);
},
{
closed = 1;
nodes = (
"182 105 OFFCURVE",
"145 165 OFFCURVE",
"153 235 CURVE SMOOTH",
"164 326 OFFCURVE",
"222 390 OFFCURVE",
"304 390 CURVE SMOOTH",
"384 390 OFFCURVE",
"419 328 OFFCURVE",
"409 247 CURVE SMOOTH",
"400 174 OFFCURVE",
"344 105 OFFCURVE",
"259 105 CURVE SMOOTH"
);
}
);
width = 564;
},
{
anchors = (
{
name = bottom;
position = "{251, 0}";
},
{
name = center;
position = "{282, 250}";
},
{
name = ogonek;
position = "{479, 10}";
},
{
name = top;
position = "{313, 500}";
},
{
name = topright;
position = "{575, 500}";
}
);
layerId = "3C8330F3-4770-4812-9C95-859F387513C1";
paths = (
{
closed = 1;
nodes = (
"394 -10 OFFCURVE",
"504 90 OFFCURVE",
"523 238 CURVE SMOOTH",
"544 416 OFFCURVE",
"455 505 OFFCURVE",
"311 505 CURVE SMOOTH",
"180 505 OFFCURVE",
"61 418 OFFCURVE",
"39 244 CURVE SMOOTH",
"21 92 OFFCURVE",
"109 -10 OFFCURVE",
"252 -10 CURVE SMOOTH"
);
},
{
closed = 1;
nodes = (
"128 41 OFFCURVE",
"76 127 OFFCURVE",
"90 238 CURVE SMOOTH",
"105 363 OFFCURVE",
"181 454 OFFCURVE",
"309 454 CURVE SMOOTH",
"431 454 OFFCURVE",
"488 368 OFFCURVE",
"472 244 CURVE SMOOTH",
"458 129 OFFCURVE",
"378 41 OFFCURVE",
"254 41 CURVE SMOOTH"
);
}
);
width = 565;
}
);
leftKerningGroup = "rounded-low";
unicode = 006F;
},
{
color = 5;
glyphname = p;
layers = (
{
layerId = "4BC9CD2E-8AD0-40CC-97AA-8C7B556514B0";
paths = (
{
closed = 1;
nodes = (
"148 19 LINE",
"170 0 OFFCURVE",
"228 -7 OFFCURVE",
"261 -7 CURVE SMOOTH",
"385 -5 OFFCURVE",
"497 101 OFFCURVE",
"513 235 CURVE SMOOTH",
"538 437 OFFCURVE",
"364 565 OFFCURVE",
"199 474 CURVE",
"205 500 LINE",
"85 500 LINE",
"-1 -200 LINE",
"119 -200 LINE"
);
},
{
closed = 1;
nodes = (
"190 359 LINE",
"307 425 OFFCURVE",
"409 375 OFFCURVE",
"394 247 CURVE SMOOTH",
"379 130 OFFCURVE",
"266 74 OFFCURVE",
"157 129 CURVE"
);
}
);
width = 555;
},
{
layerId = "3C8330F3-4770-4812-9C95-859F387513C1";
paths = (
{
closed = 1;
nodes = (
"80 34 LINE",
"132 1 OFFCURVE",
"179 -5 OFFCURVE",
"223 -5 CURVE SMOOTH",
"368 -5 OFFCURVE",
"465 96 OFFCURVE",
"483 245 CURVE SMOOTH",
"510 465 OFFCURVE",
"348 564 OFFCURVE",
"132 470 CURVE",
"137 500 LINE",
"85 500 LINE",
"-1 -200 LINE",
"51 -200 LINE"
);
},
{
closed = 1;
nodes = (
"126 403 LINE",
"293 506 OFFCURVE",
"454 436 OFFCURVE",
"431 251 CURVE SMOOTH",
"408 64 OFFCURVE",
"230 -6 OFFCURVE",
"86 90 CURVE"
);
}
);
width = 524;
}
);
leftKerningGroup = "angleds-low";
unicode = 0070;
},
{
color = 5;
glyphname = thorn;
layers = (
{
layerId = "4BC9CD2E-8AD0-40CC-97AA-8C7B556514B0";
paths = (
{
closed = 1;
nodes = (
"126 -170 LINE",
"153 27 LINE",
"198 2 OFFCURVE",
"279 -1 OFFCURVE",
"330 11 CURVE SMOOTH",
"435 41 OFFCURVE",
"506 140 OFFCURVE",
"519 249 CURVE SMOOTH",
"537 396 OFFCURVE",
"491 486 OFFCURVE",
"377 517 CURVE SMOOTH",
"330 532 OFFCURVE",
"250 526 OFFCURVE",
"206 499 CURVE",
"233 700 LINE",
"113 700 LINE",
"6 -170 LINE"
);
},
{
closed = 1;
nodes = (
"267 127 OFFCURVE",
"202 128 OFFCURVE",
"163 146 CURVE",
"194 366 LINE",
"229 390 OFFCURVE",
"301 408 OFFCURVE",
"343 397 CURVE SMOOTH",
"393 380 OFFCURVE",
"410 346 OFFCURVE",
"399 261 CURVE SMOOTH",
"391 190 OFFCURVE",
"353 148 OFFCURVE",
"301 137 CURVE SMOOTH"
);
}
);
width = 559;
},
{
layerId = "3C8330F3-4770-4812-9C95-859F387513C1";
paths = (
{
closed = 1;
nodes = (
"58 -170 LINE",
"86 50 LINE",
"152 15 OFFCURVE",
"221 12 OFFCURVE",
"293 28 CURVE SMOOTH",
"399 56 OFFCURVE",
"474 135 OFFCURVE",
"488 252 CURVE SMOOTH",
"506 398 OFFCURVE",
"457 475 OFFCURVE",
"347 501 CURVE SMOOTH",
"290 517 OFFCURVE",
"211 511 OFFCURVE",
"136 466 CURVE",
"165 700 LINE",
"113 700 LINE",
"6 -170 LINE"
);
},
{
closed = 1;
nodes = (
"220 63 OFFCURVE",
"149 70 OFFCURVE",
"91 100 CURVE",
"130 408 LINE",
"188 443 OFFCURVE",
"268 467 OFFCURVE",
"331 453 CURVE SMOOTH",
"423 429 OFFCURVE",
"449 361 OFFCURVE",
"436 258 CURVE SMOOTH",
"425 165 OFFCURVE",
"370 99 OFFCURVE",
"281 79 CURVE SMOOTH"
);
}
);
width = 528;
}
);
leftMetricsKey = p;
rightMetricsKey = p;
unicode = 00FE;
},
{
color = 5;
glyphname = q;
layers = (
{
layerId = "4BC9CD2E-8AD0-40CC-97AA-8C7B556514B0";
paths = (
{
closed = 1;
nodes = (
"446 -200 LINE",
"532 500 LINE",
"412 500 LINE",
"406 472 LINE",
"264 563 OFFCURVE",
"64 443 OFFCURVE",
"40 247 CURVE SMOOTH",
"22 107 OFFCURVE",
"112 -5 OFFCURVE",
"242 -7 CURVE SMOOTH",
"269 -7 OFFCURVE",
"327 -4 OFFCURVE",
"354 15 CURVE",
"326 -200 LINE"
);
},
{
closed = 1;
nodes = (
"146 124 OFFCURVE",
"159 235 CURVE SMOOTH",
"176 369 OFFCURVE",
"296 427 OFFCURVE",
"397 361 CURVE",
"364 131 LINE",
"241 76 OFFCURVE"
);
}
);
width = 559;
},
{
layerId = "3C8330F3-4770-4812-9C95-859F387513C1";
paths = (
{
closed = 1;
nodes = (
"415 -200 LINE",
"501 500 LINE",
"449 500 LINE",
"444 468 LINE",
"251 562 OFFCURVE",
"67 467 OFFCURVE",
"40 251 CURVE SMOOTH",
"21 98 OFFCURVE",
"96 -5 OFFCURVE",
"243 -5 CURVE SMOOTH",
"285 -5 OFFCURVE",
"332 -1 OFFCURVE",
"392 32 CURVE",
"363 -200 LINE"
);
},
{
closed = 1;
nodes = (
"70 62 OFFCURVE",
"92 245 CURVE SMOOTH",
"116 434 OFFCURVE",
"295 508 OFFCURVE",
"438 405 CURVE",
"398 92 LINE",
"230 -4 OFFCURVE"
);
}
);
width = 528;
}
);
leftKerningGroup = "rounded-low";
unicode = 0071;
},
{
color = 5;
glyphname = r;
layers = (
{
anchors = (
{
name = bottom;
position = "{185, 0}";
},
{
name = top;
position = "{247, 500}";
}
);
layerId = "4BC9CD2E-8AD0-40CC-97AA-8C7B556514B0";
paths = (
{
closed = 1;
nodes = (
"142 0 LINE",
"181 319 LINE",
"185 367 OFFCURVE",
"273 404 OFFCURVE",
"347 378 CURVE",
"414 479 LINE",
"328 507 OFFCURVE",
"256 518 OFFCURVE",
"198 465 CURVE",
"204 500 LINE",
"85 500 LINE",
"23 0 LINE"
);
}
);
width = 417;
},
{
anchors = (
{
name = bottom;
position = "{166, 0}";
},
{
name = top;
position = "{228, 500}";
}
);
layerId = "3C8330F3-4770-4812-9C95-859F387513C1";
paths = (
{
closed = 1;
nodes = (
"75 0 LINE",
"116 333 LINE",
"124 399 OFFCURVE",
"210 479 OFFCURVE",
"306 442 CURVE",
"332 490 LINE",
"231 518 OFFCURVE",
"176 496 OFFCURVE",
"130 449 CURVE",
"137 500 LINE",
"85 500 LINE",
"23 0 LINE"
);
}
);
width = 333;
}
);
leftKerningGroup = "angleds-low";
unicode = 0072;
},
{
color = 5;
glyphname = s;
layers = (
{
anchors = (
{
name = bottom;
position = "{183, 0}";
},
{
name = top;
position = "{245, 500}";
}
);
layerId = "4BC9CD2E-8AD0-40CC-97AA-8C7B556514B0";
paths = (
{
closed = 1;
nodes = (
"125 -58 OFFCURVE",
"358 -22 OFFCURVE",
"378 145 CURVE SMOOTH",
"386 211 OFFCURVE",
"357 251 OFFCURVE",
"316 270 CURVE SMOOTH",
"258 307 OFFCURVE",
"175 308 OFFCURVE",
"181 353 CURVE SMOOTH",
"185 387 OFFCURVE",
"215 401 OFFCURVE",
"249 401 CURVE SMOOTH",
"275 401 OFFCURVE",
"308 393 OFFCURVE",
"327 373 CURVE",
"408 437 LINE",
"379 476 OFFCURVE",
"323 505 OFFCURVE",
"250 505 CURVE SMOOTH",
"103 505 OFFCURVE",
"3 369 OFFCURVE",
"97 272 CURVE SMOOTH",
"152 210 OFFCURVE",
"267 215 OFFCURVE",
"272 170 CURVE SMOOTH",
"272 129 OFFCURVE",
"241 97 OFFCURVE",
"191 97 CURVE SMOOTH",
"155 97 OFFCURVE",
"123 110 OFFCURVE",
"91 141 CURVE",
"15 70 LINE"
);
}
);
width = 433;
},
{
anchors = (
{
name = bottom;
position = "{162, 0}";
},
{
name = top;
position = "{224, 500}";
}
);
layerId = "3C8330F3-4770-4812-9C95-859F387513C1";
paths = (
{
closed = 1;
nodes = (
"107 -37 OFFCURVE",
"298 -27 OFFCURVE",
"345 95 CURVE SMOOTH",
"379 183 OFFCURVE",
"337 242 OFFCURVE",
"257 270 CURVE SMOOTH",
"159 301 OFFCURVE",
"94 320 OFFCURVE",
"111 382 CURVE",
"122 432 OFFCURVE",
"165 455 OFFCURVE",
"216 457 CURVE SMOOTH",
"255 457 OFFCURVE",
"300 447 OFFCURVE",
"338 424 CURVE",
"374 457 LINE",
"339 491 OFFCURVE",
"264 511 OFFCURVE",
"195 503 CURVE SMOOTH",
"59 486 OFFCURVE",
"3 331 OFFCURVE",
"125 266 CURVE SMOOTH",
"194 232 OFFCURVE",
"289 227 OFFCURVE",
"308 162 CURVE SMOOTH",
"324 100 OFFCURVE",
"258 40 OFFCURVE",
"179 38 CURVE SMOOTH",
"136 37 OFFCURVE",
"92 54 OFFCURVE",
"50 86 CURVE",
"16 52 LINE"
);
}
);
width = 412;
}
);
leftKerningGroup = "rounded-low";
unicode = 0073;
},
{
color = 5;
glyphname = germandbls;
layers = (
{
layerId = "4BC9CD2E-8AD0-40CC-97AA-8C7B556514B0";
paths = (
{
closed = 1;
nodes = (
"519 96 OFFCURVE",
"532 197 CURVE SMOOTH",
"540 264 OFFCURVE",
"519 334 OFFCURVE",
"480 369 CURVE",
"514 410 OFFCURVE",
"530 446 OFFCURVE",
"535 486 CURVE SMOOTH",
"549 604 OFFCURVE",
"487 700 OFFCURVE",
"377 700 CURVE SMOOTH",
"113 700 LINE",
"27 0 LINE",
"147 0 LINE",
"183 290 LINE",
"363 290 LINE SMOOTH",
"397 290 OFFCURVE",
"415 249 OFFCURVE",
"410 209 CURVE SMOOTH",
"404 164 OFFCURVE",
"366 120 OFFCURVE",
"334 120 CURVE SMOOTH",
"276 120 LINE",
"261 0 LINE",
"325 0 LINE SMOOTH",
"427 0 OFFCURVE"
);
},
{
closed = 1;
nodes = (
"419 533 OFFCURVE",
"414 498 CURVE SMOOTH",
"409 451 OFFCURVE",
"373 410 OFFCURVE",
"338 410 CURVE SMOOTH",
"198 410 LINE",
"218 575 LINE",
"366 575 LINE SMOOTH",
"403 575 OFFCURVE"
);
}
);
width = 579;
},
{
layerId = "3C8330F3-4770-4812-9C95-859F387513C1";
paths = (
{
closed = 1;
nodes = (
"509 99 OFFCURVE",
"521 193 CURVE SMOOTH",
"529 262 OFFCURVE",
"504 318 OFFCURVE",
"434 364 CURVE",
"492 421 OFFCURVE",
"515 456 OFFCURVE",
"523 518 CURVE SMOOTH",
"536 622 OFFCURVE",
"471 700 OFFCURVE",
"373 700 CURVE SMOOTH",
"113 700 LINE",
"27 0 LINE",
"80 0 LINE",
"120 327 LINE",
"366 327 LINE SMOOTH",
"438 327 OFFCURVE",
"477 266 OFFCURVE",
"469 199 CURVE SMOOTH",
"460 130 OFFCURVE",
"397 50 OFFCURVE",
"327 50 CURVE SMOOTH",
"163 50 LINE",
"157 0 LINE",
"323 0 LINE SMOOTH",
"415 0 OFFCURVE"
);
},
{
closed = 1;
nodes = (
"479 593 OFFCURVE",
"471 524 CURVE SMOOTH",
"461 448 OFFCURVE",
"395 373 OFFCURVE",
"329 373 CURVE SMOOTH",
"126 373 LINE",
"160 650 LINE",
"369 650 LINE SMOOTH",
"442 650 OFFCURVE"
);
}
);
width = 569;
}
);
unicode = 00DF;
},
{
color = 3;
glyphname = t;
layers = (
{
anchors = (
{
name = bottom;
position = "{171, 0}";
},
{
name = center;
position = "{245, 602}";
},
{
name = top;
position = "{257, 700}";
},
{
name = topright;
position = "{405, 500}";
}
);
layerId = "4BC9CD2E-8AD0-40CC-97AA-8C7B556514B0";
paths = (
{
closed = 1;
nodes = (
"95 31 OFFCURVE",
"153 -2 OFFCURVE",
"300 -2 CURVE",
"312 -2 LINE",
"327 117 LINE",
"307 117 LINE",
"263 118 OFFCURVE",
"222 105 OFFCURVE",
"237 224 CURVE SMOOTH",
"257 389 LINE",
"335 389 LINE",
"349 500 LINE",
"271 500 LINE",
"295 700 LINE",
"177 700 LINE",
"153 500 LINE",
"80 500 LINE",
"66 389 LINE",
"139 389 LINE",
"120 230 LINE SMOOTH"
);
}
);
width = 392;
},
{
anchors = (
{
name = bottom;
position = "{170, 0}";
},
{
name = center;
position = "{245, 607}";
},
{
name = top;
position = "{256, 700}";
},
{
name = topright;
position = "{428, 695}";
}
);
layerId = "3C8330F3-4770-4812-9C95-859F387513C1";
paths = (
{
closed = 1;
nodes = (
"118 33 OFFCURVE",
"114 -3 OFFCURVE",
"221 -3 CURVE",
"247 -3 LINE",
"253 49 LINE",
"222 49 LINE",
"160 50 OFFCURVE",
"176 75 OFFCURVE",
"193 207 CURVE SMOOTH",
"223 451 LINE",
"318 451 LINE",
"324 500 LINE",
"229 500 LINE",
"253 700 LINE",
"200 700 LINE",
"176 500 LINE",
"80 500 LINE",
"74 451 LINE",
"170 451 LINE",
"140 209 LINE SMOOTH"
);
}
);
width = 335;
}
);
unicode = 0074;
},
{
color = 5;
glyphname = u;
layers = (
{
anchors = (
{
name = bottom;
position = "{253, 0}";
},
{
name = ogonek;
position = "{463, 10}";
},
{
name = top;
position = "{316, 510}";
},
{
name = topright;
position = "{555, 500}";
}
);
layerId = "4BC9CD2E-8AD0-40CC-97AA-8C7B556514B0";
paths = (
{
closed = 1;
nodes = (
"525 500 LINE",
"405 500 LINE",
"370 215 LINE",
"361 147 OFFCURVE",
"298 116 OFFCURVE",
"249 116 CURVE SMOOTH",
"191 116 OFFCURVE",
"151 141 OFFCURVE",
"159 209 CURVE SMOOTH",
"195 500 LINE",
"75 500 LINE",
"40 215 LINE SMOOTH",
"31 143 OFFCURVE",
"48 84 OFFCURVE",
"85 50 CURVE SMOOTH",
"142 -12 OFFCURVE",
"293 -33 OFFCURVE",
"350 50 CURVE",
"343 0 LINE",
"463 0 LINE"
);
}
);
width = 548;
},
{
anchors = (
{
name = bottom;
position = "{233, 0}";
},
{
name = ogonek;
position = "{442, 10}";
},
{
name = top;
position = "{295, 500}";
},
{
name = topright;
position = "{534, 500}";
}
);
layerId = "3C8330F3-4770-4812-9C95-859F387513C1";
paths = (
{
closed = 1;
nodes = (
"504 500 LINE",
"452 500 LINE",
"415 201 LINE",
"402 93 OFFCURVE",
"306 41 OFFCURVE",
"233 41 CURVE SMOOTH",
"137 41 OFFCURVE",
"77 91 OFFCURVE",
"91 199 CURVE SMOOTH",
"128 500 LINE",
"75 500 LINE",
"38 201 LINE SMOOTH",
"30 132 OFFCURVE",
"47 81 OFFCURVE",
"84 48 CURVE SMOOTH",
"160 -29 OFFCURVE",
"322 -25 OFFCURVE",
"399 64 CURVE",
"390 0 LINE",
"442 0 LINE"
);
}
);
width = 527;
}
);
leftKerningGroup = "rounded-low";
unicode = 0075;
},
{
color = 3;
glyphname = v;
layers = (
{
layerId = "4BC9CD2E-8AD0-40CC-97AA-8C7B556514B0";
paths = (
{
closed = 1;
nodes = (
"435 500 LINE",
"271 134 LINE",
"199 500 LINE",
"75 500 LINE",
"194 0 LINE",
"321 0 LINE",
"561 500 LINE"
);
}
);
width = 566;
},
{
layerId = "3C8330F3-4770-4812-9C95-859F387513C1";
paths = (
{
closed = 1;
nodes = (
"477 500 LINE",
"248 55 LINE",
"129 500 LINE",
"75 500 LINE",
"203 0 LINE",
"282 0 LINE",
"533 500 LINE"
);
}
);
width = 538;
}
);
leftKerningGroup = "angled-low";
unicode = 0076;
},
{
color = 5;
glyphname = w;
layers = (
{
anchors = (
{
name = bottom;
position = "{434, 0}";
},
{
name = top;
position = "{496, 500}";
}
);
layerId = "4BC9CD2E-8AD0-40CC-97AA-8C7B556514B0";
paths = (
{
closed = 1;
nodes = (
"781 500 LINE",
"628 133 LINE",
"558 500 LINE",
"433 500 LINE",
"271 132 LINE",
"209 500 LINE",
"75 500 LINE",
"185 0 LINE",
"331 0 LINE",
"477 337 LINE",
"540 0 LINE",
"686 0 LINE",
"917 500 LINE"
);
}
);
width = 922;
},
{
anchors = (
{
name = bottom;
position = "{407, 0}";
},
{
name = top;
position = "{469, 500}";
}
);
layerId = "3C8330F3-4770-4812-9C95-859F387513C1";
paths = (
{
closed = 1;
nodes = (
"813 500 LINE",
"601 49 LINE",
"504 500 LINE",
"433 500 LINE",
"227 49 LINE",
"124 500 LINE",
"75 500 LINE",
"183 0 LINE",
"260 0 LINE",
"464 453 LINE",
"557 0 LINE",
"634 0 LINE",
"863 500 LINE"
);
}
);
width = 868;
}
);
leftKerningGroup = "angled-low";
unicode = 0077;
},
{
color = 5;
glyphname = x;
layers = (
{
layerId = "4BC9CD2E-8AD0-40CC-97AA-8C7B556514B0";
paths = (
{
closed = 1;
nodes = (
"348 254 LINE",
"529 500 LINE",
"383 500 LINE",
"280 341 LINE",
"218 500 LINE",
"75 500 LINE",
"194 254 LINE",
"8 0 LINE",
"154 0 LINE",
"263 166 LINE",
"330 0 LINE",
"472 0 LINE"
);
}
);
width = 547;
},
{
layerId = "3C8330F3-4770-4812-9C95-859F387513C1";
paths = (
{
closed = 1;
nodes = (
"269 254 LINE",
"453 500 LINE",
"392 500 LINE",
"238 293 LINE",
"135 500 LINE",
"75 500 LINE",
"199 254 LINE",
"10 0 LINE",
"71 0 LINE",
"230 215 LINE",
"339 0 LINE",
"398 0 LINE"
);
}
);
width = 473;
}
);
leftKerningGroup = "angled-low";
unicode = 0078;
},
{
color = 5;
glyphname = y;
layers = (
{
anchors = (
{
name = bottom;
position = "{258, 0}";
},
{
name = top;
position = "{321, 510}";
}
);
layerId = "4BC9CD2E-8AD0-40CC-97AA-8C7B556514B0";
paths = (
{
closed = 1;
nodes = (
"237 -173 OFFCURVE",
"273 -97 OFFCURVE",
"356 70 CURVE",
"564 500 LINE",
"430 500 LINE",
"278 146 LINE",
"205 500 LINE",
"75 500 LINE",
"194 11 LINE",
"170 -40 OFFCURVE",
"130 -55 OFFCURVE",
"81 -54 CURVE",
"72 -174 LINE"
);
}
);
width = 569;
},
{
anchors = (
{
name = bottom;
position = "{239, 0}";
},
{
name = top;
position = "{301, 500}";
}
);
layerId = "3C8330F3-4770-4812-9C95-859F387513C1";
paths = (
{
closed = 1;
nodes = (
"159 -168 OFFCURVE",
"229 -95 OFFCURVE",
"275 -2 CURVE SMOOTH",
"526 500 LINE",
"466 500 LINE",
"249 57 LINE",
"131 500 LINE",
"75 500 LINE",
"208 -10 LINE",
"202 -58 OFFCURVE",
"129 -121 OFFCURVE",
"68 -121 CURVE",
"64 -170 LINE"
);
}
);
width = 531;
}
);
leftKerningGroup = "angled-low";
unicode = 0079;
},
{
color = 5;
glyphname = z;
layers = (
{
anchors = (
{
name = bottom;
position = "{202, 0}";
},
{
name = top;
position = "{265, 510}";
}
);
guideLines = (
{
angle = 50.3977;
position = "{316, 264}";
},
{
angle = 230.6774;
position = "{150, 234}";
}
);
layerId = "4BC9CD2E-8AD0-40CC-97AA-8C7B556514B0";
paths = (
{
closed = 1;
nodes = (
"411 115 LINE",
"174 115 LINE",
"448 403 LINE",
"459 500 LINE",
"76 500 LINE",
"62 385 LINE",
"294 385 LINE",
"18 93 LINE",
"7 0 LINE",
"397 0 LINE"
);
}
);
width = 472;
},
{
anchors = (
{
name = bottom;
position = "{201, 0}";
},
{
name = top;
position = "{263, 500}";
}
);
guideLines = (
{
angle = 51.1296;
position = "{267, 252}";
},
{
angle = 231.4795;
position = "{196, 246}";
}
);
layerId = "3C8330F3-4770-4812-9C95-859F387513C1";
paths = (
{
closed = 1;
nodes = (
"402 49 LINE",
"80 49 LINE",
"452 450 LINE",
"458 500 LINE",
"75 500 LINE",
"69 451 LINE",
"384 451 LINE",
"11 45 LINE",
"6 0 LINE",
"396 0 LINE"
);
}
);
width = 471;
}
);
unicode = 007A;
},
{
glyphname = ordfeminine;
layers = (
{
anchors = (
{
name = bottom;
position = "{181, 424}";
},
{
name = ogonek;
position = "{298, 430}";
},
{
name = top;
position = "{217, 712}";
}
);
layerId = "4BC9CD2E-8AD0-40CC-97AA-8C7B556514B0";
paths = (
{
closed = 1;
nodes = (
"178 420 OFFCURVE",
"208 426 OFFCURVE",
"234 448 CURVE",
"229 424 LINE",
"298 424 LINE",
"316 570 LINE SMOOTH",
"321 611 OFFCURVE",
"325 649 OFFCURVE",
"307 668 CURVE SMOOTH",
"267 724 OFFCURVE",
"155 720 OFFCURVE",
"91 664 CURVE",
"128 619 LINE",
"166 656 OFFCURVE",
"259 668 OFFCURVE",
"253 621 CURVE SMOOTH",
"248 600 LINE",
"169 618 OFFCURVE",
"81 587 OFFCURVE",
"72 513 CURVE SMOOTH",
"65 458 OFFCURVE",
"93 424 OFFCURVE",
"153 421 CURVE SMOOTH"
);
},
{
closed = 1;
nodes = (
"195 474 OFFCURVE",
"127 463 OFFCURVE",
"132 502 CURVE SMOOTH",
"137 538 OFFCURVE",
"167 558 OFFCURVE",
"245 552 CURVE",
"235 506 LINE"
);
}
);
width = 317;
},
{
associatedMasterId = "3C8330F3-4770-4812-9C95-859F387513C1";
layerId = "E1ADDF7C-A343-4E6D-B630-136BDFE64807";
paths = (
{
closed = 1;
nodes = (
"249 391 LINE",
"316 391 LINE",
"316 665 LINE",
"249 665 LINE"
);
},
{
closed = 1;
nodes = (
"214 394 OFFCURVE",
"250 409 OFFCURVE",
"275 434 CURVE SMOOTH",
"300 459 OFFCURVE",
"315 492 OFFCURVE",
"315 531 CURVE SMOOTH",
"315 568 OFFCURVE",
"299 603 OFFCURVE",
"275 628 CURVE SMOOTH",
"250 654 OFFCURVE",
"214 668 OFFCURVE",
"177 668 CURVE SMOOTH",
"138 668 OFFCURVE",
"105 653 OFFCURVE",
"80 628 CURVE SMOOTH",
"55 603 OFFCURVE",
"40 568 OFFCURVE",
"40 531 CURVE SMOOTH",
"40 492 OFFCURVE",
"55 459 OFFCURVE",
"80 434 CURVE SMOOTH",
"105 409 OFFCURVE",
"138 394 OFFCURVE",
"177 394 CURVE SMOOTH"
);
},
{
closed = 1;
nodes = (
"216 601 OFFCURVE",
"247 570 OFFCURVE",
"247 531 CURVE SMOOTH",
"247 492 OFFCURVE",
"216 461 OFFCURVE",
"177 461 CURVE SMOOTH",
"138 461 OFFCURVE",
"107 492 OFFCURVE",
"107 531 CURVE SMOOTH",
"107 570 OFFCURVE",
"138 601 OFFCURVE",
"177 601 CURVE SMOOTH"
);
}
);
width = 356;
},
{
anchors = (
{
name = bottom;
position = "{158.738, 424}";
},
{
name = ogonek;
position = "{273.371, 429.647}";
},
{
name = top;
position = "{158.738, 706.347}";
}
);
layerId = "3C8330F3-4770-4812-9C95-859F387513C1";
paths = (
{
closed = 1;
nodes = (
"172.855 421.177 OFFCURVE",
"207 432 OFFCURVE",
"235 451 CURVE",
"235 424 LINE",
"271.677 424 LINE",
"272.241 562.35 LINE",
"273 624 OFFCURVE",
"275.065 673.03 OFFCURVE",
"225.372 696.182 CURVE SMOOTH",
"173.42 720.464 OFFCURVE",
"89 713 OFFCURVE",
"48 657 CURVE",
"73 632 LINE",
"105 687 OFFCURVE",
"235 692 OFFCURVE",
"235 624 CURVE SMOOTH",
"235 599 LINE",
"112 619 OFFCURVE",
"39.588 593.973 OFFCURVE",
"39.588 504.186 CURVE SMOOTH",
"39.588 447.717 OFFCURVE",
"86.457 421.177 OFFCURVE",
"136.15 421.177 CURVE SMOOTH"
);
},
{
closed = 1;
nodes = (
"184 447 OFFCURVE",
"75 437 OFFCURVE",
"75 504 CURVE SMOOTH",
"75 568 OFFCURVE",
"147 581 OFFCURVE",
"235 567 CURVE",
"235 483 LINE"
);
}
);
width = 312;
}
);
note = ordfeminine;
unicode = 00AA;
},
{
glyphname = ordmasculine;
layers = (
{
anchors = (
{
name = bottom;
position = "{197, 424}";
},
{
name = center;
position = "{215, 565}";
},
{
name = ogonek;
position = "{254, 430}";
},
{
name = top;
position = "{233, 712}";
},
{
name = topright;
position = "{380, 706}";
}
);
layerId = "4BC9CD2E-8AD0-40CC-97AA-8C7B556514B0";
paths = (
{
closed = 1;
nodes = (
"279 418 OFFCURVE",
"340 472 OFFCURVE",
"350 554 CURVE SMOOTH",
"362 656 OFFCURVE",
"310 709 OFFCURVE",
"227 709 CURVE SMOOTH",
"148 709 OFFCURVE",
"90 662 OFFCURVE",
"78 566 CURVE SMOOTH",
"67 478 OFFCURVE",
"118 418 OFFCURVE",
"202 418 CURVE SMOOTH"
);
},
{
closed = 1;
nodes = (
"157 483 OFFCURVE",
"137 516 OFFCURVE",
"142 554 CURVE SMOOTH",
"148 607 OFFCURVE",
"182 644 OFFCURVE",
"230 644 CURVE SMOOTH",
"273 644 OFFCURVE",
"292 610 OFFCURVE",
"286 566 CURVE SMOOTH",
"281 523 OFFCURVE",
"248 483 OFFCURVE",
"200 483 CURVE SMOOTH"
);
}
);
width = 353;
},
{
associatedMasterId = "3C8330F3-4770-4812-9C95-859F387513C1";
layerId = "E1ADDF7C-A343-4E6D-B630-136BDFE64807";
paths = (
{
closed = 1;
nodes = (
"214 394 OFFCURVE",
"250 409 OFFCURVE",
"275 434 CURVE SMOOTH",
"300 459 OFFCURVE",
"315 492 OFFCURVE",
"315 531 CURVE SMOOTH",
"315 568 OFFCURVE",
"299 603 OFFCURVE",
"275 628 CURVE SMOOTH",
"250 654 OFFCURVE",
"214 668 OFFCURVE",
"177 668 CURVE SMOOTH",
"138 668 OFFCURVE",
"105 653 OFFCURVE",
"80 628 CURVE SMOOTH",
"55 603 OFFCURVE",
"40 568 OFFCURVE",
"40 531 CURVE SMOOTH",
"40 492 OFFCURVE",
"55 459 OFFCURVE",
"80 434 CURVE SMOOTH",
"105 409 OFFCURVE",
"138 394 OFFCURVE",
"177 394 CURVE SMOOTH"
);
},
{
closed = 1;
nodes = (
"216 601 OFFCURVE",
"247 570 OFFCURVE",
"247 531 CURVE SMOOTH",
"247 492 OFFCURVE",
"216 461 OFFCURVE",
"177 461 CURVE SMOOTH",
"138 461 OFFCURVE",
"107 492 OFFCURVE",
"107 531 CURVE SMOOTH",
"107 570 OFFCURVE",
"138 601 OFFCURVE",
"177 601 CURVE SMOOTH"
);
}
);
width = 355;
},
{
anchors = (
{
name = bottom;
position = "{176.04, 424}";
},
{
name = center;
position = "{176.04, 564.993}";
},
{
name = ogonek;
position = "{303.498, 429.64}";
},
{
name = top;
position = "{176.04, 705.986}";
},
{
name = topright;
position = "{323.801, 705.986}";
}
);
layerId = "3C8330F3-4770-4812-9C95-859F387513C1";
paths = (
{
closed = 1;
nodes = (
"256.688 418.36 OFFCURVE",
"312.521 475.321 OFFCURVE",
"312.521 559.917 CURVE SMOOTH",
"312.521 659.176 OFFCURVE",
"256.688 708.806 OFFCURVE",
"176.04 708.806 CURVE SMOOTH",
"101.596 708.806 OFFCURVE",
"39.559 659.176 OFFCURVE",
"39.559 559.917 CURVE SMOOTH",
"39.559 475.321 OFFCURVE",
"95.956 418.36 OFFCURVE",
"176.04 418.36 CURVE SMOOTH"
);
},
{
closed = 1;
nodes = (
"112 459 OFFCURVE",
"80 503 OFFCURVE",
"80 560 CURVE SMOOTH",
"80 622 OFFCURVE",
"112 668 OFFCURVE",
"176 668 CURVE SMOOTH",
"238 668 OFFCURVE",
"273 624 OFFCURVE",
"272 560 CURVE SMOOTH",
"272 503 OFFCURVE",
"238 459 OFFCURVE",
"176 459 CURVE SMOOTH"
);
}
);
width = 353;
}
);
note = ordmasculine;
unicode = 00BA;
},
{
color = 5;
glyphname = zero;
layers = (
{
layerId = "4BC9CD2E-8AD0-40CC-97AA-8C7B556514B0";
paths = (
{
closed = 1;
nodes = (
"603 171 OFFCURVE",
"635 255 OFFCURVE",
"646 344 CURVE SMOOTH",
"657 438 OFFCURVE",
"644 526 OFFCURVE",
"602 590 CURVE SMOOTH",
"563 660 OFFCURVE",
"492 705 OFFCURVE",
"389 705 CURVE SMOOTH",
"290 705 OFFCURVE",
"211 663 OFFCURVE",
"154 601 CURVE SMOOTH",
"98 531 OFFCURVE",
"66 445 OFFCURVE",
"55 356 CURVE SMOOTH",
"43 261 OFFCURVE",
"57 174 OFFCURVE",
"99 110 CURVE SMOOTH",
"137 39 OFFCURVE",
"205 -5 OFFCURVE",
"312 -5 CURVE SMOOTH",
"410 -5 OFFCURVE",
"490 35 OFFCURVE",
"548 100 CURVE SMOOTH"
);
},
{
closed = 1;
nodes = (
"529 478 OFFCURVE",
"534 421 OFFCURVE",
"526 356 CURVE SMOOTH",
"517 285 OFFCURVE",
"495 227 OFFCURVE",
"459 187 CURVE SMOOTH",
"428 143 OFFCURVE",
"379 117 OFFCURVE",
"317 117 CURVE SMOOTH",
"256 117 OFFCURVE",
"219 140 OFFCURVE",
"194 177 CURVE SMOOTH",
"171 222 OFFCURVE",
"165 278 OFFCURVE",
"174 344 CURVE SMOOTH",
"182 415 OFFCURVE",
"204 473 OFFCURVE",
"241 513 CURVE SMOOTH",
"274 556 OFFCURVE",
"318 582 OFFCURVE",
"384 582 CURVE SMOOTH",
"441 582 OFFCURVE",
"482 560 OFFCURVE",
"506 523 CURVE SMOOTH"
);
}
);
width = 673;
},
{
layerId = "3C8330F3-4770-4812-9C95-859F387513C1";
paths = (
{
closed = 1;
nodes = (
"600 164 OFFCURVE",
"634 253 OFFCURVE",
"646 347 CURVE SMOOTH",
"658 444 OFFCURVE",
"644 533 OFFCURVE",
"602 597 CURVE SMOOTH",
"562 662 OFFCURVE",
"493 705 OFFCURVE",
"392 705 CURVE SMOOTH",
"293 705 OFFCURVE",
"214 666 OFFCURVE",
"157 603 CURVE SMOOTH",
"101 538 OFFCURVE",
"66 448 OFFCURVE",
"55 353 CURVE SMOOTH",
"43 255 OFFCURVE",
"57 166 OFFCURVE",
"98 102 CURVE SMOOTH",
"138 37 OFFCURVE",
"207 -5 OFFCURVE",
"309 -5 CURVE SMOOTH",
"408 -5 OFFCURVE",
"486 35 OFFCURVE",
"544 98 CURVE SMOOTH"
);
},
{
closed = 1;
nodes = (
"596 506 OFFCURVE",
"603 431 OFFCURVE",
"593 353 CURVE SMOOTH",
"583 272 OFFCURVE",
"557 196 OFFCURVE",
"509 141 CURVE SMOOTH",
"464 84 OFFCURVE",
"396 47 OFFCURVE",
"311 47 CURVE SMOOTH",
"227 47 OFFCURVE",
"169 82 OFFCURVE",
"135 137 CURVE SMOOTH",
"104 194 OFFCURVE",
"97 270 OFFCURVE",
"107 347 CURVE SMOOTH",
"117 428 OFFCURVE",
"143 504 OFFCURVE",
"190 559 CURVE SMOOTH",
"236 616 OFFCURVE",
"303 651 OFFCURVE",
"389 651 CURVE SMOOTH",
"472 651 OFFCURVE",
"531 618 OFFCURVE",
"564 563 CURVE SMOOTH"
);
}
);
width = 672;
}
);
unicode = 0030;
},
{
color = 5;
glyphname = one;
layers = (
{
layerId = "4BC9CD2E-8AD0-40CC-97AA-8C7B556514B0";
paths = (
{
closed = 1;
nodes = (
"378 700 LINE",
"244 700 LINE",
"80 535 LINE",
"154 456 LINE",
"242 552 LINE",
"173 0 LINE",
"292 0 LINE"
);
}
);
width = 367;
},
{
layerId = "3C8330F3-4770-4812-9C95-859F387513C1";
paths = (
{
closed = 1;
nodes = (
"267 700 LINE",
"198 700 LINE",
"92 620 LINE",
"123 585 LINE",
"209 650 LINE",
"129 0 LINE",
"181 0 LINE"
);
}
);
width = 256;
}
);
unicode = 0031;
},
{
color = 5;
glyphname = two;
layers = (
{
layerId = "4BC9CD2E-8AD0-40CC-97AA-8C7B556514B0";
paths = (
{
closed = 1;
nodes = (
"481 0 LINE",
"496 117 LINE",
"174 114 LINE",
"178 134 OFFCURVE",
"223 162 OFFCURVE",
"278 188 CURVE SMOOTH",
"418 268 OFFCURVE",
"532 332 OFFCURVE",
"544 452 CURVE",
"560 581 OFFCURVE",
"480 700 OFFCURVE",
"338 702 CURVE SMOOTH",
"194 704 OFFCURVE",
"92 638 OFFCURVE",
"73 484 CURVE",
"195 478 LINE",
"204 553 OFFCURVE",
"253 584 OFFCURVE",
"330 585 CURVE",
"415 584 OFFCURVE",
"458 482 OFFCURVE",
"403 419 CURVE",
"350 355 OFFCURVE",
"274 321 OFFCURVE",
"202 284 CURVE SMOOTH",
"115 233 OFFCURVE",
"39 178 OFFCURVE",
"26 74 CURVE",
"17 0 LINE"
);
}
);
width = 556;
},
{
layerId = "3C8330F3-4770-4812-9C95-859F387513C1";
paths = (
{
closed = 1;
nodes = (
"480 0 LINE",
"487 51 LINE",
"80 50 LINE",
"89 122 OFFCURVE",
"123 130 OFFCURVE",
"232 183 CURVE SMOOTH",
"388 259 OFFCURVE",
"526 341 OFFCURVE",
"544 486 CURVE SMOOTH",
"558 601 OFFCURVE",
"473 707 OFFCURVE",
"326 707 CURVE SMOOTH",
"171 707 OFFCURVE",
"104 631 OFFCURVE",
"82 546 CURVE",
"141 544 LINE",
"162 623 OFFCURVE",
"227 655 OFFCURVE",
"313 655 CURVE SMOOTH",
"420 655 OFFCURVE",
"507 585 OFFCURVE",
"495 488 CURVE SMOOTH",
"483 388 OFFCURVE",
"367 299 OFFCURVE",
"207 228 CURVE SMOOTH",
"113 186 OFFCURVE",
"40 162 OFFCURVE",
"27 55 CURVE",
"20 0 LINE"
);
}
);
width = 555;
}
);
unicode = 0032;
},
{
color = 5;
glyphname = three;
layers = (
{
layerId = "4BC9CD2E-8AD0-40CC-97AA-8C7B556514B0";
paths = (
{
closed = 1;
nodes = (
"369 -7 OFFCURVE",
"482 85 OFFCURVE",
"496 202 CURVE SMOOTH",
"504 268 OFFCURVE",
"469 319 OFFCURVE",
"432 356 CURVE",
"482 394 OFFCURVE",
"514 441 OFFCURVE",
"521 494 CURVE SMOOTH",
"535 611 OFFCURVE",
"448 703 OFFCURVE",
"331 703 CURVE SMOOTH",
"220 703 OFFCURVE",
"134 638 OFFCURVE",
"89 514 CURVE",
"208 484 LINE",
"231 545 OFFCURVE",
"268 577 OFFCURVE",
"326 577 CURVE SMOOTH",
"371 577 OFFCURVE",
"404 548 OFFCURVE",
"398 506 CURVE SMOOTH",
"393 464 OFFCURVE",
"370 403 OFFCURVE",
"297 403 CURVE SMOOTH",
"207 403 LINE",
"196 315 LINE",
"286 315 LINE SMOOTH",
"365 315 OFFCURVE",
"380 257 OFFCURVE",
"375 214 CURVE SMOOTH",
"368 164 OFFCURVE",
"317 119 OFFCURVE",
"254 119 CURVE SMOOTH",
"205 119 OFFCURVE",
"167 151 OFFCURVE",
"150 211 CURVE",
"30 181 LINE",
"53 72 OFFCURVE",
"126 -7 OFFCURVE",
"249 -7 CURVE SMOOTH"
);
}
);
width = 543;
},
{
layerId = "3C8330F3-4770-4812-9C95-859F387513C1";
paths = (
{
closed = 1;
nodes = (
"338 -8 OFFCURVE",
"453 74 OFFCURVE",
"467 187 CURVE SMOOTH",
"475 249 OFFCURVE",
"458 321 OFFCURVE",
"379 361 CURVE",
"462 411 OFFCURVE",
"486 464 OFFCURVE",
"493 517 CURVE SMOOTH",
"507 631 OFFCURVE",
"422 704 OFFCURVE",
"310 704 CURVE SMOOTH",
"226 704 OFFCURVE",
"132 652 OFFCURVE",
"96 566 CURVE",
"147 548 LINE",
"174 613 OFFCURVE",
"241 653 OFFCURVE",
"308 653 CURVE SMOOTH",
"384 653 OFFCURVE",
"451 601 OFFCURVE",
"441 523 CURVE SMOOTH",
"432 443 OFFCURVE",
"356 385 OFFCURVE",
"266 385 CURVE SMOOTH",
"209 385 LINE",
"203 339 LINE",
"262 339 LINE SMOOTH",
"354 339 OFFCURVE",
"426 276 OFFCURVE",
"416 193 CURVE SMOOTH",
"406 108 OFFCURVE",
"317 43 OFFCURVE",
"223 43 CURVE SMOOTH",
"164 43 OFFCURVE",
"103 77 OFFCURVE",
"73 127 CURVE",
"21 113 LINE",
"58 37 OFFCURVE",
"121 -8 OFFCURVE",
"220 -8 CURVE SMOOTH"
);
}
);
width = 516;
}
);
unicode = 0033;
},
{
color = 5;
glyphname = four;
layers = (
{
layerId = "4BC9CD2E-8AD0-40CC-97AA-8C7B556514B0";
paths = (
{
closed = 1;
nodes = (
"555 294 LINE",
"458 294 LINE",
"508 700 LINE",
"350 700 LINE",
"44 279 LINE",
"32 177 LINE",
"324 177 LINE",
"302 0 LINE",
"422 0 LINE",
"444 177 LINE",
"541 177 LINE"
);
},
{
closed = 1;
nodes = (
"183 294 LINE",
"371 550 LINE",
"370 550 LINE",
"338 294 LINE"
);
}
);
width = 591;
},
{
layerId = "3C8330F3-4770-4812-9C95-859F387513C1";
paths = (
{
closed = 1;
nodes = (
"547 244 LINE",
"436 244 LINE",
"492 702 LINE",
"378 702 LINE",
"41 256 LINE",
"35 198 LINE",
"380 198 LINE",
"355 0 LINE",
"406 0 LINE",
"431 198 LINE",
"542 198 LINE"
);
},
{
closed = 1;
nodes = (
"88 244 LINE",
"396 650 LINE",
"435 650 LINE",
"385 244 LINE"
);
}
);
width = 589;
}
);
unicode = 0034;
},
{
color = 5;
glyphname = five;
layers = (
{
layerId = "4BC9CD2E-8AD0-40CC-97AA-8C7B556514B0";
paths = (
{
closed = 1;
nodes = (
"357 -7 OFFCURVE",
"482 97 OFFCURVE",
"499 230 CURVE SMOOTH",
"519 394 OFFCURVE",
"437 521 OFFCURVE",
"240 474 CURVE",
"268 575 LINE",
"521 575 LINE",
"536 700 LINE",
"170 700 LINE",
"97 348 LINE",
"192 305 LINE",
"259 411 OFFCURVE",
"396 358 OFFCURVE",
"382 242 CURVE SMOOTH",
"374 176 OFFCURVE",
"302 118 OFFCURVE",
"239 118 CURVE SMOOTH",
"182 118 OFFCURVE",
"154 142 OFFCURVE",
"114 195 CURVE",
"20 110 LINE",
"80 29 OFFCURVE",
"139 -7 OFFCURVE",
"234 -7 CURVE SMOOTH"
);
}
);
width = 542;
},
{
layerId = "3C8330F3-4770-4812-9C95-859F387513C1";
paths = (
{
closed = 1;
nodes = (
"338 -6 OFFCURVE",
"459 94 OFFCURVE",
"474 221 CURVE SMOOTH",
"497 406 OFFCURVE",
"335 516 OFFCURVE",
"156 420 CURVE",
"213 652 LINE",
"515 652 LINE",
"521 700 LINE",
"168 700 LINE",
"95 375 LINE",
"151 352 LINE",
"283 457 OFFCURVE",
"444 390 OFFCURVE",
"424 227 CURVE SMOOTH",
"412 125 OFFCURVE",
"316 44 OFFCURVE",
"218 44 CURVE SMOOTH",
"144 44 OFFCURVE",
"102 64 OFFCURVE",
"57 113 CURVE",
"16 78 LINE",
"68 19 OFFCURVE",
"124 -6 OFFCURVE",
"216 -6 CURVE SMOOTH"
);
}
);
width = 518;
}
);
unicode = 0035;
},
{
color = 5;
glyphname = six;
layers = (
{
layerId = "4BC9CD2E-8AD0-40CC-97AA-8C7B556514B0";
paths = (
{
closed = 1;
nodes = (
"374 -8 OFFCURVE",
"493 94 OFFCURVE",
"509 228 CURVE SMOOTH",
"528 382 OFFCURVE",
"408 500 OFFCURVE",
"263 458 CURVE",
"323 542 OFFCURVE",
"431 626 OFFCURVE",
"509 698 CURVE",
"351 702 LINE",
"281 643 OFFCURVE",
"220 587 OFFCURVE",
"169 531 CURVE SMOOTH",
"98 443 OFFCURVE",
"53 353 OFFCURVE",
"39 240 CURVE SMOOTH",
"22 105 OFFCURVE",
"115 -8 OFFCURVE",
"248 -8 CURVE SMOOTH"
);
},
{
closed = 1;
nodes = (
"194 118 OFFCURVE",
"152 169 OFFCURVE",
"159 228 CURVE SMOOTH",
"168 297 OFFCURVE",
"229 351 OFFCURVE",
"294 351 CURVE SMOOTH",
"351 351 OFFCURVE",
"396 305 OFFCURVE",
"388 240 CURVE SMOOTH",
"379 171 OFFCURVE",
"319 118 OFFCURVE",
"255 118 CURVE SMOOTH"
);
}
);
width = 552;
},
{
layerId = "3C8330F3-4770-4812-9C95-859F387513C1";
paths = (
{
closed = 1;
nodes = (
"375 -5 OFFCURVE",
"493 94 OFFCURVE",
"508 220 CURVE SMOOTH",
"532 412 OFFCURVE",
"309 531 OFFCURVE",
"153 399 CURVE",
"229 503 OFFCURVE",
"310 592 OFFCURVE",
"430 699 CURVE",
"363 701 LINE",
"340 680 OFFCURVE",
"302 644 OFFCURVE",
"272 616 CURVE SMOOTH",
"112 455 OFFCURVE",
"50 335 OFFCURVE",
"37 226 CURVE SMOOTH",
"21 96 OFFCURVE",
"118 -5 OFFCURVE",
"246 -5 CURVE SMOOTH"
);
},
{
closed = 1;
nodes = (
"159 46 OFFCURVE",
"79 121 OFFCURVE",
"91 220 CURVE SMOOTH",
"104 322 OFFCURVE",
"199 399 OFFCURVE",
"298 399 CURVE SMOOTH",
"399 399 OFFCURVE",
"469 322 OFFCURVE",
"457 226 CURVE SMOOTH",
"445 127 OFFCURVE",
"350 46 OFFCURVE",
"251 46 CURVE SMOOTH"
);
}
);
width = 552;
}
);
unicode = 0036;
},
{
color = 5;
glyphname = seven;
layers = (
{
layerId = "4BC9CD2E-8AD0-40CC-97AA-8C7B556514B0";
paths = (
{
closed = 1;
nodes = (
"103 700 LINE",
"88 576 LINE",
"331 576 LINE",
"91 0 LINE",
"215 0 LINE",
"469 610 LINE",
"480 700 LINE"
);
}
);
width = 458;
},
{
layerId = "3C8330F3-4770-4812-9C95-859F387513C1";
paths = (
{
closed = 1;
nodes = (
"104 702 LINE",
"98 650 LINE",
"420 650 LINE",
"127 0 LINE",
"188 0 LINE",
"478 650 LINE",
"486 702 LINE"
);
}
);
width = 462;
}
);
unicode = 0037;
},
{
color = 5;
glyphname = eight;
layers = (
{
layerId = "4BC9CD2E-8AD0-40CC-97AA-8C7B556514B0";
paths = (
{
closed = 1;
nodes = (
"368 -5 OFFCURVE",
"483 81 OFFCURVE",
"499 208 CURVE SMOOTH",
"507 278 OFFCURVE",
"475 334 OFFCURVE",
"431 371 CURVE",
"472 408 OFFCURVE",
"503 452 OFFCURVE",
"509 500 CURVE SMOOTH",
"523 613 OFFCURVE",
"443 705 OFFCURVE",
"323 705 CURVE SMOOTH",
"211 705 OFFCURVE",
"113 621 OFFCURVE",
"99 512 CURVE SMOOTH",
"93 458 OFFCURVE",
"118 412 OFFCURVE",
"145 379 CURVE",
"90 338 OFFCURVE",
"44 284 OFFCURVE",
"36 220 CURVE SMOOTH",
"21 95 OFFCURVE",
"110 -5 OFFCURVE",
"246 -5 CURVE SMOOTH"
);
},
{
closed = 1;
nodes = (
"185 111 OFFCURVE",
"150 148 OFFCURVE",
"158 208 CURVE SMOOTH",
"166 271 OFFCURVE",
"215 310 OFFCURVE",
"284 310 CURVE SMOOTH",
"349 310 OFFCURVE",
"385 277 OFFCURVE",
"378 220 CURVE SMOOTH",
"370 154 OFFCURVE",
"319 111 OFFCURVE",
"250 111 CURVE SMOOTH"
);
},
{
closed = 1;
nodes = (
"240 426 OFFCURVE",
"214 452 OFFCURVE",
"220 500 CURVE SMOOTH",
"226 554 OFFCURVE",
"265 586 OFFCURVE",
"318 586 CURVE SMOOTH",
"367 586 OFFCURVE",
"394 560 OFFCURVE",
"388 512 CURVE SMOOTH",
"382 458 OFFCURVE",
"342 426 OFFCURVE",
"288 426 CURVE SMOOTH"
);
}
);
width = 545;
},
{
layerId = "3C8330F3-4770-4812-9C95-859F387513C1";
paths = (
{
closed = 1;
nodes = (
"365 -5 OFFCURVE",
"481 79 OFFCURVE",
"495 194 CURVE SMOOTH",
"503 260 OFFCURVE",
"472 337 OFFCURVE",
"392 374 CURVE",
"466 410 OFFCURVE",
"499 477 OFFCURVE",
"505 523 CURVE SMOOTH",
"517 625 OFFCURVE",
"436 705 OFFCURVE",
"324 705 CURVE SMOOTH",
"220 705 OFFCURVE",
"116 628 OFFCURVE",
"104 529 CURVE SMOOTH",
"98 478 OFFCURVE",
"120 411 OFFCURVE",
"179 376 CURVE",
"90 340 OFFCURVE",
"40 261 OFFCURVE",
"33 200 CURVE SMOOTH",
"18 77 OFFCURVE",
"114 -5 OFFCURVE",
"241 -5 CURVE SMOOTH"
);
},
{
closed = 1;
nodes = (
"142 45 OFFCURVE",
"74 101 OFFCURVE",
"85 194 CURVE SMOOTH",
"96 286 OFFCURVE",
"179 346 OFFCURVE",
"284 346 CURVE SMOOTH",
"380 346 OFFCURVE",
"455 297 OFFCURVE",
"443 200 CURVE SMOOTH",
"431 100 OFFCURVE",
"343 45 OFFCURVE",
"243 45 CURVE SMOOTH"
);
},
{
closed = 1;
nodes = (
"202 396 OFFCURVE",
"147 443 OFFCURVE",
"157 523 CURVE SMOOTH",
"166 603 OFFCURVE",
"231 655 OFFCURVE",
"322 655 CURVE SMOOTH",
"409 655 OFFCURVE",
"462 607 OFFCURVE",
"452 529 CURVE SMOOTH",
"442 448 OFFCURVE",
"377 396 OFFCURVE",
"286 396 CURVE SMOOTH"
);
}
);
width = 543;
}
);
unicode = 0038;
},
{
color = 5;
glyphname = nine;
layers = (
{
layerId = "4BC9CD2E-8AD0-40CC-97AA-8C7B556514B0";
paths = (
{
closed = 1;
nodes = (
"207 708 OFFCURVE",
"88 606 OFFCURVE",
"71 472 CURVE SMOOTH",
"52 318 OFFCURVE",
"172 200 OFFCURVE",
"317 242 CURVE",
"257 158 OFFCURVE",
"150 74 OFFCURVE",
"72 2 CURVE",
"230 -2 LINE",
"299 57 OFFCURVE",
"361 113 OFFCURVE",
"412 169 CURVE SMOOTH",
"482 257 OFFCURVE",
"528 347 OFFCURVE",
"542 460 CURVE SMOOTH",
"558 595 OFFCURVE",
"466 708 OFFCURVE",
"332 708 CURVE SMOOTH"
);
},
{
closed = 1;
nodes = (
"386 582 OFFCURVE",
"428 531 OFFCURVE",
"421 472 CURVE SMOOTH",
"413 403 OFFCURVE",
"352 349 OFFCURVE",
"287 349 CURVE SMOOTH",
"230 349 OFFCURVE",
"185 395 OFFCURVE",
"193 460 CURVE SMOOTH",
"201 529 OFFCURVE",
"261 582 OFFCURVE",
"326 582 CURVE SMOOTH"
);
}
);
width = 553;
},
{
layerId = "3C8330F3-4770-4812-9C95-859F387513C1";
paths = (
{
closed = 1;
nodes = (
"206 705 OFFCURVE",
"88 606 OFFCURVE",
"72 480 CURVE SMOOTH",
"49 288 OFFCURVE",
"272 169 OFFCURVE",
"428 301 CURVE",
"352 197 OFFCURVE",
"271 108 OFFCURVE",
"151 1 CURVE",
"218 -1 LINE",
"240 20 OFFCURVE",
"279 56 OFFCURVE",
"309 84 CURVE SMOOTH",
"468 245 OFFCURVE",
"530 365 OFFCURVE",
"544 474 CURVE SMOOTH",
"559 604 OFFCURVE",
"463 705 OFFCURVE",
"335 705 CURVE SMOOTH"
);
},
{
closed = 1;
nodes = (
"422 654 OFFCURVE",
"501 579 OFFCURVE",
"489 480 CURVE SMOOTH",
"477 378 OFFCURVE",
"381 301 OFFCURVE",
"282 301 CURVE SMOOTH",
"181 301 OFFCURVE",
"112 378 OFFCURVE",
"124 474 CURVE SMOOTH",
"136 573 OFFCURVE",
"231 654 OFFCURVE",
"330 654 CURVE SMOOTH"
);
}
);
width = 553;
}
);
unicode = 0039;
},
{
color = 5;
glyphname = zero.dnom;
layers = (
{
layerId = "4BC9CD2E-8AD0-40CC-97AA-8C7B556514B0";
paths = (
{
closed = 1;
nodes = (
"394 108 OFFCURVE",
"414 162 OFFCURVE",
"421 219 CURVE SMOOTH",
"429 281 OFFCURVE",
"420 339 OFFCURVE",
"392 379 CURVE SMOOTH",
"367 426 OFFCURVE",
"321 456 OFFCURVE",
"252 456 CURVE SMOOTH",
"190 456 OFFCURVE",
"138 429 OFFCURVE",
"101 390 CURVE SMOOTH",
"65 343 OFFCURVE",
"45 288 OFFCURVE",
"38 231 CURVE SMOOTH",
"30 168 OFFCURVE",
"39 111 OFFCURVE",
"67 71 CURVE SMOOTH",
"91 24 OFFCURVE",
"136 -6 OFFCURVE",
"206 -6 CURVE SMOOTH",
"269 -6 OFFCURVE",
"320 20 OFFCURVE",
"359 61 CURVE SMOOTH"
);
},
{
closed = 1;
nodes = (
"347 309 OFFCURVE",
"349 272 OFFCURVE",
"344 231 CURVE SMOOTH",
"338 184 OFFCURVE",
"323 146 OFFCURVE",
"299 121 CURVE SMOOTH",
"279 91 OFFCURVE",
"247 74 OFFCURVE",
"205 74 CURVE SMOOTH",
"167 74 OFFCURVE",
"144 88 OFFCURVE",
"127 111 CURVE SMOOTH",
"112 141 OFFCURVE",
"109 177 OFFCURVE",
"114 219 CURVE SMOOTH",
"120 266 OFFCURVE",
"134 304 OFFCURVE",
"160 329 CURVE SMOOTH",
"179 357 OFFCURVE",
"209 376 OFFCURVE",
"253 376 CURVE SMOOTH",
"289 376 OFFCURVE",
"315 362 OFFCURVE",
"332 339 CURVE SMOOTH"
);
}
);
width = 465;
},
{
layerId = "3C8330F3-4770-4812-9C95-859F387513C1";
paths = (
{
closed = 1;
nodes = (
"392 104 OFFCURVE",
"414 162 OFFCURVE",
"422 222 CURVE SMOOTH",
"429 286 OFFCURVE",
"420 344 OFFCURVE",
"392 385 CURVE SMOOTH",
"367 427 OFFCURVE",
"321 456 OFFCURVE",
"255 456 CURVE SMOOTH",
"191 456 OFFCURVE",
"141 431 OFFCURVE",
"103 390 CURVE SMOOTH",
"67 348 OFFCURVE",
"45 289 OFFCURVE",
"37 228 CURVE SMOOTH",
"29 164 OFFCURVE",
"39 106 OFFCURVE",
"66 65 CURVE SMOOTH",
"92 22 OFFCURVE",
"137 -6 OFFCURVE",
"203 -6 CURVE SMOOTH",
"267 -6 OFFCURVE",
"318 20 OFFCURVE",
"355 61 CURVE SMOOTH"
);
},
{
closed = 1;
nodes = (
"389 327 OFFCURVE",
"393 278 OFFCURVE",
"387 228 CURVE SMOOTH",
"381 175 OFFCURVE",
"363 125 OFFCURVE",
"332 90 CURVE SMOOTH",
"303 52 OFFCURVE",
"259 28 OFFCURVE",
"203 28 CURVE SMOOTH",
"149 28 OFFCURVE",
"111 50 OFFCURVE",
"89 86 CURVE SMOOTH",
"69 123 OFFCURVE",
"65 173 OFFCURVE",
"71 222 CURVE SMOOTH",
"77 275 OFFCURVE",
"95 325 OFFCURVE",
"126 360 CURVE SMOOTH",
"155 398 OFFCURVE",
"199 421 OFFCURVE",
"255 421 CURVE SMOOTH",
"309 421 OFFCURVE",
"347 400 OFFCURVE",
"368 364 CURVE SMOOTH"
);
}
);
width = 465;
}
);
},
{
color = 5;
glyphname = one.dnom;
layers = (
{
layerId = "4BC9CD2E-8AD0-40CC-97AA-8C7B556514B0";
paths = (
{
closed = 1;
nodes = (
"246 453 LINE",
"158 453 LINE",
"52 345 LINE",
"100 294 LINE",
"157 356 LINE",
"112 -3 LINE",
"190 -3 LINE"
);
}
);
width = 291;
},
{
layerId = "3C8330F3-4770-4812-9C95-859F387513C1";
paths = (
{
closed = 1;
nodes = (
"172 453 LINE",
"127 453 LINE",
"59 401 LINE",
"78 378 LINE",
"134 420 LINE",
"82 -3 LINE",
"116 -3 LINE"
);
}
);
width = 187;
}
);
},
{
color = 5;
glyphname = two.dnom;
layers = (
{
layerId = "4BC9CD2E-8AD0-40CC-97AA-8C7B556514B0";
paths = (
{
closed = 1;
nodes = (
"313 -3 LINE",
"322 74 LINE",
"112 71 LINE",
"116 84 OFFCURVE",
"146 102 OFFCURVE",
"182 119 CURVE SMOOTH",
"273 171 OFFCURVE",
"345 212 OFFCURVE",
"353 289 CURVE",
"363 374 OFFCURVE",
"310 453 OFFCURVE",
"218 454 CURVE SMOOTH",
"126 455 OFFCURVE",
"60 413 OFFCURVE",
"48 313 CURVE",
"126 307 LINE",
"132 356 OFFCURVE",
"165 377 OFFCURVE",
"217 378 CURVE",
"270 377 OFFCURVE",
"297 312 OFFCURVE",
"261 272 CURVE",
"227 229 OFFCURVE",
"177 208 OFFCURVE",
"129 183 CURVE SMOOTH",
"74 150 OFFCURVE",
"25 114 OFFCURVE",
"17 47 CURVE",
"11 -3 LINE"
);
}
);
width = 388;
},
{
layerId = "3C8330F3-4770-4812-9C95-859F387513C1";
paths = (
{
closed = 1;
nodes = (
"311 -3 LINE",
"315 31 LINE",
"51 30 LINE",
"57 76 OFFCURVE",
"79 82 OFFCURVE",
"150 116 CURVE SMOOTH",
"252 166 OFFCURVE",
"341 219 OFFCURVE",
"353 312 CURVE SMOOTH",
"362 388 OFFCURVE",
"306 457 OFFCURVE",
"210 457 CURVE SMOOTH",
"109 457 OFFCURVE",
"66 408 OFFCURVE",
"53 353 CURVE",
"91 351 LINE",
"104 402 OFFCURVE",
"146 423 OFFCURVE",
"203 423 CURVE SMOOTH",
"272 423 OFFCURVE",
"329 378 OFFCURVE",
"321 316 CURVE SMOOTH",
"313 250 OFFCURVE",
"237 192 OFFCURVE",
"133 146 CURVE SMOOTH",
"72 119 OFFCURVE",
"25 103 OFFCURVE",
"17 34 CURVE",
"12 -3 LINE"
);
}
);
width = 385;
}
);
},
{
color = 5;
glyphname = three.dnom;
layers = (
{
layerId = "4BC9CD2E-8AD0-40CC-97AA-8C7B556514B0";
paths = (
{
closed = 1;
nodes = (
"245 -7 OFFCURVE",
"318 52 OFFCURVE",
"327 127 CURVE SMOOTH",
"332 171 OFFCURVE",
"308 204 OFFCURVE",
"285 228 CURVE",
"318 253 OFFCURVE",
"338 283 OFFCURVE",
"342 317 CURVE SMOOTH",
"352 394 OFFCURVE",
"294 454 OFFCURVE",
"218 454 CURVE SMOOTH",
"146 454 OFFCURVE",
"91 413 OFFCURVE",
"62 333 CURVE",
"140 311 LINE",
"154 351 OFFCURVE",
"180 373 OFFCURVE",
"218 373 CURVE SMOOTH",
"247 373 OFFCURVE",
"267 355 OFFCURVE",
"264 329 CURVE SMOOTH",
"260 300 OFFCURVE",
"244 259 OFFCURVE",
"197 259 CURVE SMOOTH",
"139 259 LINE",
"132 202 LINE",
"191 202 LINE SMOOTH",
"242 202 OFFCURVE",
"252 166 OFFCURVE",
"248 139 CURVE SMOOTH",
"244 105 OFFCURVE",
"210 75 OFFCURVE",
"167 75 CURVE SMOOTH",
"137 75 OFFCURVE",
"112 95 OFFCURVE",
"102 134 CURVE",
"24 116 LINE",
"39 45 OFFCURVE",
"87 -7 OFFCURVE",
"168 -7 CURVE SMOOTH"
);
}
);
width = 382;
},
{
layerId = "3C8330F3-4770-4812-9C95-859F387513C1";
paths = (
{
closed = 1;
nodes = (
"225 -8 OFFCURVE",
"300 45 OFFCURVE",
"309 118 CURVE SMOOTH",
"314 159 OFFCURVE",
"302 206 OFFCURVE",
"251 232 CURVE",
"306 264 OFFCURVE",
"321 299 OFFCURVE",
"325 333 CURVE SMOOTH",
"334 407 OFFCURVE",
"278 455 OFFCURVE",
"205 455 CURVE SMOOTH",
"151 455 OFFCURVE",
"91 422 OFFCURVE",
"67 366 CURVE",
"100 353 LINE",
"118 396 OFFCURVE",
"161 422 OFFCURVE",
"205 422 CURVE SMOOTH",
"254 422 OFFCURVE",
"298 389 OFFCURVE",
"292 339 CURVE SMOOTH",
"285 286 OFFCURVE",
"236 248 OFFCURVE",
"177 248 CURVE SMOOTH",
"141 248 LINE",
"137 218 LINE",
"175 218 LINE SMOOTH",
"235 218 OFFCURVE",
"282 177 OFFCURVE",
"275 124 CURVE SMOOTH",
"269 68 OFFCURVE",
"210 25 OFFCURVE",
"148 25 CURVE SMOOTH",
"110 25 OFFCURVE",
"71 47 OFFCURVE",
"53 80 CURVE",
"18 71 LINE",
"43 22 OFFCURVE",
"84 -8 OFFCURVE",
"148 -8 CURVE SMOOTH"
);
}
);
width = 365;
}
);
},
{
color = 5;
glyphname = four.dnom;
layers = (
{
layerId = "4BC9CD2E-8AD0-40CC-97AA-8C7B556514B0";
paths = (
{
closed = 1;
nodes = (
"364 189 LINE",
"301 189 LINE",
"333 453 LINE",
"230 453 LINE",
"30 179 LINE",
"23 113 LINE",
"213 113 LINE",
"199 -3 LINE",
"277 -3 LINE",
"291 113 LINE",
"354 113 LINE"
);
},
{
closed = 1;
nodes = (
"121 189 LINE",
"244 355 LINE",
"243 355 LINE",
"223 189 LINE"
);
}
);
width = 411;
},
{
layerId = "3C8330F3-4770-4812-9C95-859F387513C1";
paths = (
{
closed = 1;
nodes = (
"358 156 LINE",
"285 156 LINE",
"322 454 LINE",
"248 454 LINE",
"29 164 LINE",
"25 126 LINE",
"249 126 LINE",
"233 -3 LINE",
"266 -3 LINE",
"282 126 LINE",
"355 126 LINE"
);
},
{
closed = 1;
nodes = (
"60 156 LINE",
"259 420 LINE",
"285 420 LINE",
"252 156 LINE"
);
}
);
width = 410;
}
);
},
{
color = 5;
glyphname = five.dnom;
layers = (
{
layerId = "4BC9CD2E-8AD0-40CC-97AA-8C7B556514B0";
paths = (
{
closed = 1;
nodes = (
"239 -7 OFFCURVE",
"319 60 OFFCURVE",
"329 145 CURVE SMOOTH",
"342 253 OFFCURVE",
"289 337 OFFCURVE",
"160 306 CURVE",
"180 371 LINE",
"344 371 LINE",
"354 453 LINE",
"116 453 LINE",
"69 224 LINE",
"131 195 LINE",
"174 264 OFFCURVE",
"264 231 OFFCURVE",
"255 157 CURVE SMOOTH",
"249 113 OFFCURVE",
"201 74 OFFCURVE",
"159 74 CURVE SMOOTH",
"123 74 OFFCURVE",
"105 89 OFFCURVE",
"79 124 CURVE",
"19 70 LINE",
"58 17 OFFCURVE",
"97 -7 OFFCURVE",
"160 -7 CURVE SMOOTH"
);
}
);
width = 382;
},
{
layerId = "3C8330F3-4770-4812-9C95-859F387513C1";
paths = (
{
closed = 1;
nodes = (
"225 -6 OFFCURVE",
"303 58 OFFCURVE",
"314 140 CURVE SMOOTH",
"328 261 OFFCURVE",
"222 333 OFFCURVE",
"106 271 CURVE",
"144 421 LINE",
"340 421 LINE",
"344 453 LINE",
"114 453 LINE",
"67 241 LINE",
"104 226 LINE",
"189 294 OFFCURVE",
"294 251 OFFCURVE",
"281 146 CURVE SMOOTH",
"273 79 OFFCURVE",
"209 26 OFFCURVE",
"145 26 CURVE SMOOTH",
"97 26 OFFCURVE",
"71 39 OFFCURVE",
"42 71 CURVE",
"16 49 LINE",
"49 10 OFFCURVE",
"86 -6 OFFCURVE",
"146 -6 CURVE SMOOTH"
);
}
);
width = 367;
}
);
},
{
color = 5;
glyphname = six.dnom;
layers = (
{
layerId = "4BC9CD2E-8AD0-40CC-97AA-8C7B556514B0";
paths = (
{
closed = 1;
nodes = (
"247 -8 OFFCURVE",
"323 58 OFFCURVE",
"334 144 CURVE SMOOTH",
"346 245 OFFCURVE",
"267 323 OFFCURVE",
"173 295 CURVE",
"213 349 OFFCURVE",
"284 404 OFFCURVE",
"334 451 CURVE",
"230 455 LINE",
"186 416 OFFCURVE",
"146 380 OFFCURVE",
"112 344 CURVE SMOOTH",
"66 286 OFFCURVE",
"37 228 OFFCURVE",
"28 156 CURVE SMOOTH",
"18 67 OFFCURVE",
"79 -8 OFFCURVE",
"166 -8 CURVE SMOOTH"
);
},
{
closed = 1;
nodes = (
"128 74 OFFCURVE",
"101 106 OFFCURVE",
"106 144 CURVE SMOOTH",
"112 190 OFFCURVE",
"153 226 OFFCURVE",
"195 226 CURVE SMOOTH",
"232 226 OFFCURVE",
"260 197 OFFCURVE",
"255 156 CURVE SMOOTH",
"250 110 OFFCURVE",
"210 74 OFFCURVE",
"166 74 CURVE SMOOTH"
);
}
);
width = 387;
},
{
layerId = "3C8330F3-4770-4812-9C95-859F387513C1";
paths = (
{
closed = 1;
nodes = (
"247 -6 OFFCURVE",
"323 58 OFFCURVE",
"333 139 CURVE SMOOTH",
"349 265 OFFCURVE",
"204 343 OFFCURVE",
"103 257 CURVE",
"152 324 OFFCURVE",
"205 382 OFFCURVE",
"283 452 CURVE",
"238 454 LINE",
"224 440 OFFCURVE",
"199 416 OFFCURVE",
"179 399 CURVE SMOOTH",
"76 294 OFFCURVE",
"36 216 OFFCURVE",
"27 145 CURVE SMOOTH",
"17 60 OFFCURVE",
"80 -6 OFFCURVE",
"164 -6 CURVE SMOOTH"
);
},
{
closed = 1;
nodes = (
"106 27 OFFCURVE",
"55 76 OFFCURVE",
"62 139 CURVE SMOOTH",
"71 206 OFFCURVE",
"133 257 OFFCURVE",
"198 257 CURVE SMOOTH",
"263 257 OFFCURVE",
"308 207 OFFCURVE",
"300 145 CURVE SMOOTH",
"292 80 OFFCURVE",
"230 27 OFFCURVE",
"166 27 CURVE SMOOTH"
);
}
);
width = 387;
}
);
},
{
color = 5;
glyphname = seven.dnom;
layers = (
{
layerId = "4BC9CD2E-8AD0-40CC-97AA-8C7B556514B0";
paths = (
{
closed = 1;
nodes = (
"65 453 LINE",
"55 372 LINE",
"213 372 LINE",
"56 -3 LINE",
"138 -3 LINE",
"302 394 LINE",
"310 453 LINE"
);
}
);
width = 325;
},
{
layerId = "3C8330F3-4770-4812-9C95-859F387513C1";
paths = (
{
closed = 1;
nodes = (
"65 454 LINE",
"61 420 LINE",
"270 420 LINE",
"80 -3 LINE",
"119 -3 LINE",
"308 420 LINE",
"313 454 LINE"
);
}
);
width = 328;
}
);
},
{
color = 5;
glyphname = eight.dnom;
layers = (
{
layerId = "4BC9CD2E-8AD0-40CC-97AA-8C7B556514B0";
paths = (
{
closed = 1;
nodes = (
"243 -6 OFFCURVE",
"317 49 OFFCURVE",
"327 131 CURVE SMOOTH",
"333 177 OFFCURVE",
"312 214 OFFCURVE",
"282 237 CURVE",
"310 262 OFFCURVE",
"330 290 OFFCURVE",
"334 320 CURVE SMOOTH",
"343 395 OFFCURVE",
"291 456 OFFCURVE",
"211 456 CURVE SMOOTH",
"140 456 OFFCURVE",
"77 402 OFFCURVE",
"68 332 CURVE SMOOTH",
"64 296 OFFCURVE",
"80 266 OFFCURVE",
"97 245 CURVE",
"61 218 OFFCURVE",
"32 183 OFFCURVE",
"27 143 CURVE SMOOTH",
"17 60 OFFCURVE",
"75 -6 OFFCURVE",
"165 -6 CURVE SMOOTH"
);
},
{
closed = 1;
nodes = (
"122 70 OFFCURVE",
"101 93 OFFCURVE",
"105 131 CURVE SMOOTH",
"111 173 OFFCURVE",
"143 199 OFFCURVE",
"190 199 CURVE SMOOTH",
"230 199 OFFCURVE",
"253 179 OFFCURVE",
"249 143 CURVE SMOOTH",
"243 99 OFFCURVE",
"209 70 OFFCURVE",
"164 70 CURVE SMOOTH"
);
},
{
closed = 1;
nodes = (
"158 274 OFFCURVE",
"142 290 OFFCURVE",
"146 320 CURVE SMOOTH",
"150 357 OFFCURVE",
"176 378 OFFCURVE",
"212 378 CURVE SMOOTH",
"242 378 OFFCURVE",
"259 363 OFFCURVE",
"255 332 CURVE SMOOTH",
"251 296 OFFCURVE",
"224 274 OFFCURVE",
"189 274 CURVE SMOOTH"
);
}
);
width = 382;
},
{
layerId = "3C8330F3-4770-4812-9C95-859F387513C1";
paths = (
{
closed = 1;
nodes = (
"241 -6 OFFCURVE",
"316 49 OFFCURVE",
"325 123 CURVE SMOOTH",
"331 166 OFFCURVE",
"310 216 OFFCURVE",
"259 240 CURVE",
"307 264 OFFCURVE",
"328 307 OFFCURVE",
"332 336 CURVE SMOOTH",
"340 403 OFFCURVE",
"286 456 OFFCURVE",
"213 456 CURVE SMOOTH",
"146 456 OFFCURVE",
"79 406 OFFCURVE",
"71 342 CURVE SMOOTH",
"67 309 OFFCURVE",
"82 265 OFFCURVE",
"120 242 CURVE",
"62 219 OFFCURVE",
"30 168 OFFCURVE",
"25 129 CURVE SMOOTH",
"15 48 OFFCURVE",
"78 -6 OFFCURVE",
"161 -6 CURVE SMOOTH"
);
},
{
closed = 1;
nodes = (
"96 27 OFFCURVE",
"51 63 OFFCURVE",
"58 123 CURVE SMOOTH",
"66 183 OFFCURVE",
"121 222 OFFCURVE",
"189 222 CURVE SMOOTH",
"251 222 OFFCURVE",
"300 191 OFFCURVE",
"292 129 CURVE SMOOTH",
"284 63 OFFCURVE",
"227 27 OFFCURVE",
"161 27 CURVE SMOOTH"
);
},
{
closed = 1;
nodes = (
"135 255 OFFCURVE",
"99 285 OFFCURVE",
"106 336 CURVE SMOOTH",
"112 389 OFFCURVE",
"154 423 OFFCURVE",
"213 423 CURVE SMOOTH",
"269 423 OFFCURVE",
"303 392 OFFCURVE",
"297 342 CURVE SMOOTH",
"291 289 OFFCURVE",
"249 255 OFFCURVE",
"189 255 CURVE SMOOTH"
);
}
);
width = 381;
}
);
},
{
color = 5;
glyphname = nine.dnom;
layers = (
{
layerId = "4BC9CD2E-8AD0-40CC-97AA-8C7B556514B0";
paths = (
{
closed = 1;
nodes = (
"134 458 OFFCURVE",
"58 393 OFFCURVE",
"47 307 CURVE SMOOTH",
"35 206 OFFCURVE",
"113 128 OFFCURVE",
"207 156 CURVE",
"168 102 OFFCURVE",
"97 47 OFFCURVE",
"47 0 CURVE",
"151 -4 LINE",
"196 34 OFFCURVE",
"235 70 OFFCURVE",
"269 106 CURVE SMOOTH",
"314 164 OFFCURVE",
"344 223 OFFCURVE",
"353 295 CURVE SMOOTH",
"363 384 OFFCURVE",
"302 458 OFFCURVE",
"215 458 CURVE SMOOTH"
);
},
{
closed = 1;
nodes = (
"253 376 OFFCURVE",
"279 344 OFFCURVE",
"275 307 CURVE SMOOTH",
"269 261 OFFCURVE",
"228 225 OFFCURVE",
"185 225 CURVE SMOOTH",
"149 225 OFFCURVE",
"121 254 OFFCURVE",
"126 295 CURVE SMOOTH",
"131 341 OFFCURVE",
"171 376 OFFCURVE",
"214 376 CURVE SMOOTH"
);
}
);
width = 387;
},
{
layerId = "3C8330F3-4770-4812-9C95-859F387513C1";
paths = (
{
closed = 1;
nodes = (
"134 456 OFFCURVE",
"58 393 OFFCURVE",
"48 311 CURVE SMOOTH",
"32 186 OFFCURVE",
"178 108 OFFCURVE",
"279 194 CURVE",
"229 126 OFFCURVE",
"176 68 OFFCURVE",
"98 -1 CURVE",
"142 -3 LINE",
"157 11 OFFCURVE",
"182 34 OFFCURVE",
"202 52 CURVE SMOOTH",
"305 157 OFFCURVE",
"345 235 OFFCURVE",
"354 306 CURVE SMOOTH",
"364 390 OFFCURVE",
"301 456 OFFCURVE",
"218 456 CURVE SMOOTH"
);
},
{
closed = 1;
nodes = (
"275 423 OFFCURVE",
"327 375 OFFCURVE",
"319 311 CURVE SMOOTH",
"311 244 OFFCURVE",
"248 194 OFFCURVE",
"183 194 CURVE SMOOTH",
"118 194 OFFCURVE",
"73 243 OFFCURVE",
"81 306 CURVE SMOOTH",
"89 370 OFFCURVE",
"151 423 OFFCURVE",
"216 423 CURVE SMOOTH"
);
}
);
width = 387;
}
);
},
{
color = 5;
glyphname = fraction;
layers = (
{
layerId = "4BC9CD2E-8AD0-40CC-97AA-8C7B556514B0";
paths = (
{
closed = 1;
nodes = (
"358 700 LINE",
"-112 -6 LINE",
"-31 -6 LINE",
"440 700 LINE"
);
}
);
width = 284;
},
{
layerId = "3C8330F3-4770-4812-9C95-859F387513C1";
paths = (
{
closed = 1;
nodes = (
"382 700 LINE",
"-112 -6 LINE",
"-72 -6 LINE",
"422 700 LINE"
);
}
);
width = 266;
}
);
unicode = 2044;
},
{
color = 5;
glyphname = period;
layers = (
{
layerId = "4BC9CD2E-8AD0-40CC-97AA-8C7B556514B0";
paths = (
{
closed = 1;
nodes = (
"80 -5 OFFCURVE",
"110 22 OFFCURVE",
"113 56 CURVE SMOOTH",
"117 95 OFFCURVE",
"91 127 OFFCURVE",
"53 126 CURVE SMOOTH",
"18 125 OFFCURVE",
"-10 101 OFFCURVE",
"-16 68 CURVE SMOOTH",
"-21 28 OFFCURVE",
"8 -3 OFFCURVE",
"47 -4 CURVE SMOOTH"
);
}
);
width = 190;
},
{
layerId = "3C8330F3-4770-4812-9C95-859F387513C1";
paths = (
{
closed = 1;
nodes = (
"43 -4 OFFCURVE",
"64 15 OFFCURVE",
"67 36 CURVE SMOOTH",
"70 61 OFFCURVE",
"51 82 OFFCURVE",
"27 82 CURVE SMOOTH",
"5 82 OFFCURVE",
"-16 63 OFFCURVE",
"-19 42 CURVE SMOOTH",
"-22 17 OFFCURVE",
"-3 -4 OFFCURVE",
"21 -4 CURVE SMOOTH"
);
}
);
width = 147;
}
);
unicode = 002E;
},
{
color = 5;
glyphname = comma;
layers = (
{
layerId = "4BC9CD2E-8AD0-40CC-97AA-8C7B556514B0";
paths = (
{
closed = 1;
nodes = (
"-13 15 OFFCURVE",
"12 -17 OFFCURVE",
"43 -14 CURVE",
"32 -46 OFFCURVE",
"20 -79 OFFCURVE",
"2 -107 CURVE",
"47 -132 LINE",
"76 -79 OFFCURVE",
"116 -1 OFFCURVE",
"121 39 CURVE SMOOTH",
"126 78 OFFCURVE",
"99 110 OFFCURVE",
"61 109 CURVE SMOOTH",
"26 108 OFFCURVE",
"-2 84 OFFCURVE",
"-8 51 CURVE SMOOTH"
);
}
);
width = 191;
},
{
layerId = "3C8330F3-4770-4812-9C95-859F387513C1";
paths = (
{
closed = 1;
nodes = (
"-9 38 OFFCURVE",
"9 16 OFFCURVE",
"38 18 CURVE",
"24 -22 OFFCURVE",
"-5 -82 OFFCURVE",
"-13 -93 CURVE",
"7 -104 LINE",
"17 -85 OFFCURVE",
"81 32 OFFCURVE",
"85 56 CURVE",
"92 83 OFFCURVE",
"72 110 OFFCURVE",
"46 110 CURVE SMOOTH",
"19 110 OFFCURVE",
"-3 89 OFFCURVE",
"-6 66 CURVE SMOOTH"
);
}
);
width = 153;
}
);
unicode = 002C;
},
{
color = 5;
glyphname = colon;
layers = (
{
layerId = "4BC9CD2E-8AD0-40CC-97AA-8C7B556514B0";
paths = (
{
closed = 1;
nodes = (
"106 -10 OFFCURVE",
"135 17 OFFCURVE",
"138 51 CURVE SMOOTH",
"142 90 OFFCURVE",
"117 122 OFFCURVE",
"78 121 CURVE SMOOTH",
"43 120 OFFCURVE",
"15 96 OFFCURVE",
"10 63 CURVE SMOOTH",
"4 23 OFFCURVE",
"33 -8 OFFCURVE",
"72 -9 CURVE SMOOTH"
);
},
{
closed = 1;
nodes = (
"144 302 OFFCURVE",
"174 329 OFFCURVE",
"177 363 CURVE SMOOTH",
"181 402 OFFCURVE",
"155 434 OFFCURVE",
"116 433 CURVE SMOOTH",
"82 432 OFFCURVE",
"53 408 OFFCURVE",
"48 375 CURVE SMOOTH",
"42 335 OFFCURVE",
"71 304 OFFCURVE",
"111 303 CURVE SMOOTH"
);
}
);
width = 216;
},
{
layerId = "3C8330F3-4770-4812-9C95-859F387513C1";
paths = (
{
closed = 1;
nodes = (
"67 -9 OFFCURVE",
"88 10 OFFCURVE",
"91 31 CURVE SMOOTH",
"94 56 OFFCURVE",
"76 77 OFFCURVE",
"52 77 CURVE SMOOTH",
"30 77 OFFCURVE",
"8 58 OFFCURVE",
"6 37 CURVE SMOOTH",
"3 12 OFFCURVE",
"21 -9 OFFCURVE",
"45 -9 CURVE SMOOTH"
);
},
{
closed = 1;
nodes = (
"109 333 OFFCURVE",
"130 352 OFFCURVE",
"133 373 CURVE SMOOTH",
"136 398 OFFCURVE",
"118 419 OFFCURVE",
"94 419 CURVE SMOOTH",
"72 419 OFFCURVE",
"50 400 OFFCURVE",
"48 379 CURVE SMOOTH",
"45 354 OFFCURVE",
"63 333 OFFCURVE",
"87 333 CURVE SMOOTH"
);
}
);
width = 172;
}
);
unicode = 003A;
},
{
color = 5;
glyphname = semicolon;
layers = (
{
layerId = "4BC9CD2E-8AD0-40CC-97AA-8C7B556514B0";
paths = (
{
closed = 1;
nodes = (
"135 309 OFFCURVE",
"165 336 OFFCURVE",
"168 370 CURVE SMOOTH",
"171 409 OFFCURVE",
"146 441 OFFCURVE",
"107 440 CURVE SMOOTH",
"73 439 OFFCURVE",
"44 415 OFFCURVE",
"39 382 CURVE SMOOTH",
"33 342 OFFCURVE",
"62 311 OFFCURVE",
"102 310 CURVE SMOOTH"
);
},
{
closed = 1;
nodes = (
"-5 5 OFFCURVE",
"20 -27 OFFCURVE",
"50 -24 CURVE",
"40 -56 OFFCURVE",
"28 -89 OFFCURVE",
"10 -117 CURVE",
"54 -142 LINE",
"83 -89 OFFCURVE",
"124 -11 OFFCURVE",
"129 29 CURVE SMOOTH",
"134 68 OFFCURVE",
"107 100 OFFCURVE",
"68 99 CURVE SMOOTH",
"34 98 OFFCURVE",
"5 74 OFFCURVE",
"0 41 CURVE SMOOTH"
);
}
);
width = 210;
},
{
layerId = "3C8330F3-4770-4812-9C95-859F387513C1";
paths = (
{
closed = 1;
nodes = (
"100 330 OFFCURVE",
"121 349 OFFCURVE",
"124 370 CURVE SMOOTH",
"127 395 OFFCURVE",
"108 416 OFFCURVE",
"84 416 CURVE SMOOTH",
"62 416 OFFCURVE",
"41 397 OFFCURVE",
"38 376 CURVE SMOOTH",
"35 351 OFFCURVE",
"54 330 OFFCURVE",
"78 330 CURVE SMOOTH"
);
},
{
closed = 1;
nodes = (
"-7 11 OFFCURVE",
"11 -11 OFFCURVE",
"40 -9 CURVE",
"26 -49 OFFCURVE",
"-4 -109 OFFCURVE",
"-11 -120 CURVE",
"9 -131 LINE",
"19 -112 OFFCURVE",
"83 5 OFFCURVE",
"87 29 CURVE",
"93 56 OFFCURVE",
"73 83 OFFCURVE",
"47 83 CURVE SMOOTH",
"20 83 OFFCURVE",
"-1 62 OFFCURVE",
"-4 39 CURVE SMOOTH"
);
}
);
width = 168;
}
);
unicode = 003B;
},
{
color = 5;
glyphname = ellipsis;
layers = (
{
layerId = "4BC9CD2E-8AD0-40CC-97AA-8C7B556514B0";
paths = (
{
closed = 1;
nodes = (
"120 -9 OFFCURVE",
"149 18 OFFCURVE",
"153 52 CURVE SMOOTH",
"156 91 OFFCURVE",
"131 123 OFFCURVE",
"92 122 CURVE SMOOTH",
"58 121 OFFCURVE",
"29 97 OFFCURVE",
"24 64 CURVE SMOOTH",
"18 24 OFFCURVE",
"47 -7 OFFCURVE",
"86 -8 CURVE SMOOTH"
);
},
{
closed = 1;
nodes = (
"327 -9 OFFCURVE",
"356 18 OFFCURVE",
"360 52 CURVE SMOOTH",
"363 91 OFFCURVE",
"338 123 OFFCURVE",
"299 122 CURVE SMOOTH",
"265 121 OFFCURVE",
"236 97 OFFCURVE",
"231 64 CURVE SMOOTH",
"225 24 OFFCURVE",
"254 -7 OFFCURVE",
"293 -8 CURVE SMOOTH"
);
},
{
closed = 1;
nodes = (
"527 -9 OFFCURVE",
"556 18 OFFCURVE",
"560 52 CURVE SMOOTH",
"563 91 OFFCURVE",
"538 123 OFFCURVE",
"499 122 CURVE SMOOTH",
"465 121 OFFCURVE",
"436 97 OFFCURVE",
"431 64 CURVE SMOOTH",
"425 24 OFFCURVE",
"454 -7 OFFCURVE",
"493 -8 CURVE SMOOTH"
);
}
);
width = 638;
},
{
layerId = "3C8330F3-4770-4812-9C95-859F387513C1";
paths = (
{
closed = 1;
nodes = (
"81 -7 OFFCURVE",
"103 12 OFFCURVE",
"105 33 CURVE SMOOTH",
"108 58 OFFCURVE",
"90 79 OFFCURVE",
"66 79 CURVE SMOOTH",
"44 79 OFFCURVE",
"23 60 OFFCURVE",
"20 39 CURVE SMOOTH",
"17 14 OFFCURVE",
"35 -7 OFFCURVE",
"59 -7 CURVE SMOOTH"
);
},
{
closed = 1;
nodes = (
"288 -7 OFFCURVE",
"310 12 OFFCURVE",
"312 33 CURVE SMOOTH",
"315 58 OFFCURVE",
"297 79 OFFCURVE",
"273 79 CURVE SMOOTH",
"251 79 OFFCURVE",
"230 60 OFFCURVE",
"227 39 CURVE SMOOTH",
"224 14 OFFCURVE",
"242 -7 OFFCURVE",
"266 -7 CURVE SMOOTH"
);
},
{
closed = 1;
nodes = (
"488 -7 OFFCURVE",
"510 12 OFFCURVE",
"512 33 CURVE SMOOTH",
"515 58 OFFCURVE",
"497 79 OFFCURVE",
"473 79 CURVE SMOOTH",
"451 79 OFFCURVE",
"430 60 OFFCURVE",
"427 39 CURVE SMOOTH",
"424 14 OFFCURVE",
"442 -7 OFFCURVE",
"466 -7 CURVE SMOOTH"
);
}
);
width = 593;
}
);
unicode = 2026;
},
{
color = 5;
glyphname = exclam;
layers = (
{
layerId = "4BC9CD2E-8AD0-40CC-97AA-8C7B556514B0";
paths = (
{
closed = 1;
nodes = (
"113 700 LINE",
"54 180 LINE",
"154 180 LINE",
"223 700 LINE"
);
},
{
closed = 1;
nodes = (
"120 -15 OFFCURVE",
"150 12 OFFCURVE",
"153 46 CURVE SMOOTH",
"157 85 OFFCURVE",
"131 117 OFFCURVE",
"92 116 CURVE SMOOTH",
"58 115 OFFCURVE",
"29 91 OFFCURVE",
"24 58 CURVE SMOOTH",
"18 18 OFFCURVE",
"47 -13 OFFCURVE",
"87 -14 CURVE SMOOTH"
);
}
);
width = 232;
},
{
layerId = "3C8330F3-4770-4812-9C95-859F387513C1";
paths = (
{
closed = 1;
nodes = (
"118 700 LINE",
"58 180 LINE",
"104 180 LINE",
"170 700 LINE"
);
},
{
closed = 1;
nodes = (
"82 -6 OFFCURVE",
"103 13 OFFCURVE",
"106 34 CURVE SMOOTH",
"109 59 OFFCURVE",
"90 80 OFFCURVE",
"66 80 CURVE SMOOTH",
"44 80 OFFCURVE",
"23 61 OFFCURVE",
"20 40 CURVE SMOOTH",
"17 15 OFFCURVE",
"36 -6 OFFCURVE",
"60 -6 CURVE SMOOTH"
);
}
);
width = 186;
}
);
unicode = 0021;
},
{
color = 5;
glyphname = exclamdown;
layers = (
{
layerId = "4BC9CD2E-8AD0-40CC-97AA-8C7B556514B0";
paths = (
{
closed = 1;
nodes = (
"179 330 LINE",
"79 330 LINE",
"10 -190 LINE",
"120 -190 LINE"
);
},
{
closed = 1;
nodes = (
"114 523 OFFCURVE",
"84 498 OFFCURVE",
"80 464 CURVE SMOOTH",
"77 425 OFFCURVE",
"103 395 OFFCURVE",
"143 394 CURVE SMOOTH",
"176 393 OFFCURVE",
"204 419 OFFCURVE",
"209 452 CURVE SMOOTH",
"215 492 OFFCURVE",
"187 525 OFFCURVE",
"149 524 CURVE SMOOTH"
);
}
);
width = 232;
},
{
layerId = "3C8330F3-4770-4812-9C95-859F387513C1";
paths = (
{
closed = 1;
nodes = (
"131 330 LINE",
"85 330 LINE",
"17 -190 LINE",
"69 -190 LINE"
);
},
{
closed = 1;
nodes = (
"106 516 OFFCURVE",
"84 497 OFFCURVE",
"82 476 CURVE SMOOTH",
"79 451 OFFCURVE",
"97 430 OFFCURVE",
"121 430 CURVE SMOOTH",
"143 430 OFFCURVE",
"164 449 OFFCURVE",
"167 470 CURVE SMOOTH",
"170 495 OFFCURVE",
"152 516 OFFCURVE",
"128 516 CURVE SMOOTH"
);
}
);
width = 186;
}
);
leftMetricsKey = exclam;
rightMetricsKey = exclam;
unicode = 00A1;
},
{
color = 5;
glyphname = question;
layers = (
{
layerId = "4BC9CD2E-8AD0-40CC-97AA-8C7B556514B0";
paths = (
{
closed = 1;
nodes = (
"308 163 LINE",
"316 228 OFFCURVE",
"317 248 OFFCURVE",
"376 269 CURVE SMOOTH",
"482 311 OFFCURVE",
"531 364 OFFCURVE",
"548 470 CURVE SMOOTH",
"570 601 OFFCURVE",
"483 706 OFFCURVE",
"340 706 CURVE SMOOTH",
"194 706 OFFCURVE",
"98 638 OFFCURVE",
"78 482 CURVE",
"197 476 LINE",
"206 553 OFFCURVE",
"255 593 OFFCURVE",
"331 593 CURVE SMOOTH",
"396 593 OFFCURVE",
"441 554 OFFCURVE",
"433 488 CURVE SMOOTH",
"425 422 OFFCURVE",
"388 395 OFFCURVE",
"345 379 CURVE SMOOTH",
"297 355 OFFCURVE",
"239 345 OFFCURVE",
"214 284 CURVE SMOOTH",
"211 272 OFFCURVE",
"209 262 OFFCURVE",
"207 251 CURVE",
"195 166 LINE"
);
},
{
closed = 1;
nodes = (
"271 -10 OFFCURVE",
"300 17 OFFCURVE",
"303 51 CURVE SMOOTH",
"307 90 OFFCURVE",
"282 122 OFFCURVE",
"243 121 CURVE SMOOTH",
"208 120 OFFCURVE",
"180 96 OFFCURVE",
"175 63 CURVE SMOOTH",
"169 23 OFFCURVE",
"198 -8 OFFCURVE",
"237 -9 CURVE SMOOTH"
);
}
);
width = 562;
},
{
layerId = "3C8330F3-4770-4812-9C95-859F387513C1";
paths = (
{
closed = 1;
nodes = (
"274 180 LINE",
"285 267 OFFCURVE",
"273 247 OFFCURVE",
"383 293 CURVE SMOOTH",
"477 333 OFFCURVE",
"538 397 OFFCURVE",
"551 499 CURVE SMOOTH",
"566 621 OFFCURVE",
"483 708 OFFCURVE",
"342 708 CURVE SMOOTH",
"195 708 OFFCURVE",
"98 642 OFFCURVE",
"86 544 CURVE",
"138 542 LINE",
"148 627 OFFCURVE",
"238 663 OFFCURVE",
"342 663 CURVE SMOOTH",
"451 663 OFFCURVE",
"516 603 OFFCURVE",
"504 505 CURVE SMOOTH",
"493 414 OFFCURVE",
"443 361 OFFCURVE",
"355 333 CURVE",
"300 310 OFFCURVE",
"269 297 OFFCURVE",
"251 282 CURVE SMOOTH",
"239 269 OFFCURVE",
"234 255 OFFCURVE",
"231 235 CURVE",
"225 181 LINE"
);
},
{
closed = 1;
nodes = (
"248 -9 OFFCURVE",
"269 10 OFFCURVE",
"272 31 CURVE SMOOTH",
"275 56 OFFCURVE",
"257 77 OFFCURVE",
"233 77 CURVE SMOOTH",
"211 77 OFFCURVE",
"189 58 OFFCURVE",
"187 37 CURVE SMOOTH",
"184 12 OFFCURVE",
"202 -9 OFFCURVE",
"226 -9 CURVE SMOOTH"
);
}
);
width = 561;
}
);
unicode = 003F;
},
{
color = 5;
glyphname = questiondown;
layers = (
{
layerId = "4BC9CD2E-8AD0-40CC-97AA-8C7B556514B0";
paths = (
{
closed = 1;
nodes = (
"200 262 LINE",
"199 251 OFFCURVE",
"199 241 OFFCURVE",
"200 232 CURVE SMOOTH",
"209 168 OFFCURVE",
"266 156 OFFCURVE",
"311 134 CURVE SMOOTH",
"347 116 OFFCURVE",
"376 91 OFFCURVE",
"368 28 CURVE SMOOTH",
"359 -41 OFFCURVE",
"301 -83 OFFCURVE",
"234 -83 CURVE SMOOTH",
"160 -83 OFFCURVE",
"124 -46 OFFCURVE",
"133 31 CURVE",
"14 31 LINE",
"-5 -125 OFFCURVE",
"77 -196 OFFCURVE",
"225 -196 CURVE SMOOTH",
"366 -196 OFFCURVE",
"476 -94 OFFCURVE",
"486 34 CURVE SMOOTH",
"495 143 OFFCURVE",
"457 198 OFFCURVE",
"359 239 CURVE SMOOTH",
"307 261 OFFCURVE",
"314 279 OFFCURVE",
"322 344 CURVE",
"208 344 LINE"
);
},
{
closed = 1;
nodes = (
"251 518 OFFCURVE",
"218 490 OFFCURVE",
"214 453 CURVE SMOOTH",
"211 417 OFFCURVE",
"235 390 OFFCURVE",
"272 389 CURVE SMOOTH",
"308 388 OFFCURVE",
"339 417 OFFCURVE",
"344 453 CURVE SMOOTH",
"350 490 OFFCURVE",
"324 520 OFFCURVE",
"288 519 CURVE SMOOTH"
);
}
);
width = 562;
},
{
layerId = "3C8330F3-4770-4812-9C95-859F387513C1";
paths = (
{
closed = 1;
nodes = (
"226 276 LINE",
"224 256 OFFCURVE",
"226 242 OFFCURVE",
"236 230 CURVE SMOOTH",
"250 214 OFFCURVE",
"278 201 OFFCURVE",
"328 178 CURVE",
"408 149 OFFCURVE",
"444 97 OFFCURVE",
"433 8 CURVE SMOOTH",
"421 -92 OFFCURVE",
"340 -153 OFFCURVE",
"230 -153 CURVE SMOOTH",
"127 -153 OFFCURVE",
"47 -118 OFFCURVE",
"57 -33 CURVE",
"5 -33 LINE",
"-7 -131 OFFCURVE",
"75 -198 OFFCURVE",
"223 -198 CURVE SMOOTH",
"363 -198 OFFCURVE",
"466 -112 OFFCURVE",
"480 8 CURVE SMOOTH",
"493 112 OFFCURVE",
"447 176 OFFCURVE",
"362 216 CURVE SMOOTH",
"264 262 OFFCURVE",
"272 242 OFFCURVE",
"283 329 CURVE",
"233 329 LINE"
);
},
{
closed = 1;
nodes = (
"256 519 OFFCURVE",
"234 499 OFFCURVE",
"231 476 CURVE SMOOTH",
"228 453 OFFCURVE",
"246 433 OFFCURVE",
"269 433 CURVE SMOOTH",
"292 433 OFFCURVE",
"314 453 OFFCURVE",
"317 476 CURVE SMOOTH",
"320 499 OFFCURVE",
"302 519 OFFCURVE",
"279 519 CURVE SMOOTH"
);
}
);
width = 559;
}
);
leftMetricsKey = question;
rightMetricsKey = question;
unicode = 00BF;
},
{
color = 5;
glyphname = periodcentered;
layers = (
{
layerId = "4BC9CD2E-8AD0-40CC-97AA-8C7B556514B0";
paths = (
{
closed = 1;
nodes = (
"155 248 OFFCURVE",
"185 275 OFFCURVE",
"188 309 CURVE SMOOTH",
"192 348 OFFCURVE",
"166 380 OFFCURVE",
"128 379 CURVE SMOOTH",
"93 378 OFFCURVE",
"65 354 OFFCURVE",
"60 321 CURVE SMOOTH",
"54 281 OFFCURVE",
"83 250 OFFCURVE",
"122 249 CURVE SMOOTH"
);
}
);
width = 230;
},
{
layerId = "3C8330F3-4770-4812-9C95-859F387513C1";
paths = (
{
closed = 1;
nodes = (
"121 271 OFFCURVE",
"142 290 OFFCURVE",
"145 311 CURVE SMOOTH",
"148 336 OFFCURVE",
"129 357 OFFCURVE",
"105 357 CURVE SMOOTH",
"83 357 OFFCURVE",
"62 338 OFFCURVE",
"59 317 CURVE SMOOTH",
"56 292 OFFCURVE",
"75 271 OFFCURVE",
"99 271 CURVE SMOOTH"
);
}
);
width = 186;
}
);
unicode = 00B7;
},
{
color = 5;
glyphname = bullet;
layers = (
{
layerId = "4BC9CD2E-8AD0-40CC-97AA-8C7B556514B0";
paths = (
{
closed = 1;
nodes = (
"249 183 OFFCURVE",
"312 240 OFFCURVE",
"318 311 CURVE SMOOTH",
"326 386 OFFCURVE",
"277 447 OFFCURVE",
"202 445 CURVE SMOOTH",
"130 443 OFFCURVE",
"70 392 OFFCURVE",
"60 323 CURVE SMOOTH",
"48 246 OFFCURVE",
"104 187 OFFCURVE",
"180 185 CURVE SMOOTH"
);
}
);
width = 360;
},
{
layerId = "3C8330F3-4770-4812-9C95-859F387513C1";
paths = (
{
closed = 1;
nodes = (
"182 229 OFFCURVE",
"226 268 OFFCURVE",
"232 312 CURVE SMOOTH",
"237 360 OFFCURVE",
"202 401 OFFCURVE",
"154 401 CURVE SMOOTH",
"110 401 OFFCURVE",
"66 362 OFFCURVE",
"60 318 CURVE SMOOTH",
"54 270 OFFCURVE",
"90 229 OFFCURVE",
"137 229 CURVE SMOOTH"
);
}
);
width = 273;
}
);
unicode = 2022;
},
{
color = 5;
glyphname = asterisk;
layers = (
{
layerId = "4BC9CD2E-8AD0-40CC-97AA-8C7B556514B0";
paths = (
{
closed = 1;
nodes = (
"344 550 LINE",
"409 584 LINE",
"370 663 LINE",
"303 625 LINE",
"313 700 LINE",
"223 700 LINE",
"213 620 LINE",
"145 657 LINE",
"96 575 LINE",
"154 545 LINE",
"89 511 LINE",
"128 432 LINE",
"196 470 LINE",
"186 395 LINE",
"276 395 LINE",
"286 474 LINE",
"352 438 LINE",
"402 519 LINE"
);
}
);
width = 414;
},
{
layerId = "3C8330F3-4770-4812-9C95-859F387513C1";
paths = (
{
closed = 1;
nodes = (
"275 547 LINE",
"397 612 LINE",
"383 640 LINE",
"264 575 LINE",
"280 706 LINE",
"246 706 LINE",
"229 573 LINE",
"118 634 LINE",
"100 603 LINE",
"209 545 LINE",
"88 482 LINE",
"103 455 LINE",
"224 521 LINE",
"207 389 LINE",
"241 389 LINE",
"257 521 LINE",
"368 461 LINE",
"386 491 LINE"
);
}
);
width = 402;
}
);
unicode = 002A;
},
{
color = 5;
glyphname = numbersign;
layers = (
{
layerId = "4BC9CD2E-8AD0-40CC-97AA-8C7B556514B0";
paths = (
{
closed = 1;
nodes = (
"662 523 LINE",
"729 697 LINE",
"603 697 LINE",
"534 524 LINE",
"422 524 LINE",
"489 697 LINE",
"364 697 LINE",
"296 524 LINE",
"139 525 LINE",
"124 403 LINE",
"249 403 LINE",
"207 298 LINE",
"57 298 LINE",
"42 178 LINE",
"160 178 LINE",
"91 1 LINE",
"217 1 LINE",
"287 178 LINE",
"395 177 LINE",
"325 1 LINE",
"457 1 LINE",
"527 177 LINE",
"687 177 LINE",
"702 297 LINE",
"573 297 LINE",
"614 402 LINE",
"768 402 LINE",
"784 523 LINE"
);
},
{
closed = 1;
nodes = (
"443 297 LINE",
"333 297 LINE",
"374 403 LINE",
"486 403 LINE"
);
}
);
width = 797;
},
{
layerId = "3C8330F3-4770-4812-9C95-859F387513C1";
paths = (
{
closed = 1;
nodes = (
"628 500 LINE",
"704 697 LINE",
"655 697 LINE",
"577 501 LINE",
"357 501 LINE",
"432 697 LINE",
"386 697 LINE",
"309 501 LINE",
"142 502 LINE",
"136 456 LINE",
"290 456 LINE",
"208 246 LINE",
"49 246 LINE",
"43 201 LINE",
"190 201 LINE",
"112 1 LINE",
"160 1 LINE",
"238 201 LINE",
"457 200 LINE",
"376 1 LINE",
"432 1 LINE",
"510 200 LINE",
"680 200 LINE",
"685 244 LINE",
"528 244 LINE",
"609 455 LINE",
"772 455 LINE",
"779 500 LINE"
);
},
{
closed = 1;
nodes = (
"475 245 LINE",
"256 245 LINE",
"339 456 LINE",
"559 455 LINE"
);
}
);
width = 794;
}
);
unicode = 0023;
},
{
color = 5;
glyphname = slash;
layers = (
{
layerId = "4BC9CD2E-8AD0-40CC-97AA-8C7B556514B0";
paths = (
{
closed = 1;
nodes = (
"439 700 LINE",
"0 -104 LINE",
"122 -104 LINE",
"563 700 LINE"
);
}
);
width = 550;
},
{
layerId = "3C8330F3-4770-4812-9C95-859F387513C1";
paths = (
{
closed = 1;
nodes = (
"471 700 LINE",
"0 -104 LINE",
"45 -104 LINE",
"517 700 LINE"
);
}
);
width = 504;
}
);
unicode = 002F;
},
{
color = 5;
glyphname = backslash;
layers = (
{
layerId = "4BC9CD2E-8AD0-40CC-97AA-8C7B556514B0";
paths = (
{
closed = 1;
nodes = (
"233 700 LINE",
"113 700 LINE",
"356 -104 LINE",
"476 -104 LINE"
);
}
);
width = 576;
},
{
layerId = "3C8330F3-4770-4812-9C95-859F387513C1";
paths = (
{
closed = 1;
nodes = (
"157 700 LINE",
"113 700 LINE",
"387 -104 LINE",
"430 -104 LINE"
);
}
);
width = 530;
}
);
unicode = 005C;
},
{
color = 5;
glyphname = parenleft;
layers = (
{
layerId = "4BC9CD2E-8AD0-40CC-97AA-8C7B556514B0";
paths = (
{
closed = 1;
nodes = (
"160 12 OFFCURVE",
"147 195 OFFCURVE",
"161 309 CURVE SMOOTH",
"175 422 OFFCURVE",
"236 603 OFFCURVE",
"341 703 CURVE",
"230 707 LINE",
"144 607 OFFCURVE",
"80 489 OFFCURVE",
"60 321 CURVE SMOOTH",
"39 156 OFFCURVE",
"70 20 OFFCURVE",
"135 -88 CURVE",
"240 -92 LINE"
);
}
);
width = 308;
},
{
layerId = "3C8330F3-4770-4812-9C95-859F387513C1";
paths = (
{
closed = 1;
nodes = (
"124 5 OFFCURVE",
"89 147 OFFCURVE",
"110 312 CURVE SMOOTH",
"130 475 OFFCURVE",
"203 612 OFFCURVE",
"299 704 CURVE",
"247 706 LINE",
"149 614 OFFCURVE",
"82 491 OFFCURVE",
"60 318 CURVE SMOOTH",
"41 158 OFFCURVE",
"69 17 OFFCURVE",
"154 -89 CURVE",
"203 -91 LINE"
);
}
);
width = 271;
}
);
unicode = 0028;
},
{
color = 5;
glyphname = parenright;
layers = (
{
layerId = "4BC9CD2E-8AD0-40CC-97AA-8C7B556514B0";
paths = (
{
closed = 1;
nodes = (
"94 -92 LINE",
"186 16 OFFCURVE",
"247 150 OFFCURVE",
"266 309 CURVE SMOOTH",
"288 483 OFFCURVE",
"250 603 OFFCURVE",
"189 703 CURVE",
"84 707 LINE",
"165 607 OFFCURVE",
"178 428 OFFCURVE",
"165 321 CURVE SMOOTH",
"150 201 OFFCURVE",
"89 16 OFFCURVE",
"-17 -88 CURVE"
);
}
);
width = 308;
},
{
layerId = "3C8330F3-4770-4812-9C95-859F387513C1";
paths = (
{
closed = 1;
nodes = (
"34 -91 LINE",
"145 15 OFFCURVE",
"206 156 OFFCURVE",
"226 312 CURVE SMOOTH",
"247 489 OFFCURVE",
"209 612 OFFCURVE",
"133 704 CURVE",
"84 706 LINE",
"157 614 OFFCURVE",
"196 477 OFFCURVE",
"176 318 CURVE SMOOTH",
"156 149 OFFCURVE",
"84 7 OFFCURVE",
"-18 -89 CURVE"
);
}
);
width = 267;
}
);
unicode = 0029;
},
{
color = 5;
glyphname = braceleft;
layers = (
{
layerId = "4BC9CD2E-8AD0-40CC-97AA-8C7B556514B0";
paths = (
{
closed = 1;
nodes = (
"243 -146 LINE",
"255 -50 LINE",
"174 -50 LINE SMOOTH",
"163 -50 OFFCURVE",
"161 -40 OFFCURVE",
"160 -22 CURVE SMOOTH",
"161 39 OFFCURVE",
"194 157 OFFCURVE",
"201 217 CURVE SMOOTH",
"205 249 OFFCURVE",
"188 269 OFFCURVE",
"174 282 CURVE",
"196 299 OFFCURVE",
"214 317 OFFCURVE",
"216 343 CURVE SMOOTH",
"224 410 OFFCURVE",
"221 530 OFFCURVE",
"236 584 CURVE SMOOTH",
"241 607 OFFCURVE",
"251 622 OFFCURVE",
"261 622 CURVE SMOOTH",
"338 622 LINE",
"349 718 LINE",
"266 718 LINE SMOOTH",
"189 718 OFFCURVE",
"148 633 OFFCURVE",
"137 545 CURVE SMOOTH",
"120 405 LINE SMOOTH",
"111 329 OFFCURVE",
"114 330 OFFCURVE",
"61 330 CURVE",
"56 242 LINE",
"108 242 OFFCURVE",
"101 252 OFFCURVE",
"92 173 CURVE SMOOTH",
"74 33 LINE SMOOTH",
"63 -56 OFFCURVE",
"89 -146 OFFCURVE",
"165 -146 CURVE SMOOTH"
);
}
);
width = 319;
},
{
layerId = "3C8330F3-4770-4812-9C95-859F387513C1";
paths = (
{
closed = 1;
nodes = (
"230 -138 LINE",
"234 -109 LINE",
"168 -109 LINE SMOOTH",
"145 -109 OFFCURVE",
"135 -95 OFFCURVE",
"130 -80 CURVE SMOOTH",
"109 -10 OFFCURVE",
"162 120 OFFCURVE",
"159 198 CURVE SMOOTH",
"159 234 OFFCURVE",
"151 279 OFFCURVE",
"121 289 CURVE",
"155 301 OFFCURVE",
"173 344 OFFCURVE",
"182 376 CURVE SMOOTH",
"204 458 OFFCURVE",
"183 588 OFFCURVE",
"222 656 CURVE SMOOTH",
"230 673 OFFCURVE",
"245 689 OFFCURVE",
"268 689 CURVE SMOOTH",
"332 689 LINE",
"335 718 LINE",
"269 718 LINE SMOOTH",
"200 718 OFFCURVE",
"161 646 OFFCURVE",
"151 567 CURVE SMOOTH",
"135 431 LINE SMOOTH",
"125 350 OFFCURVE",
"121 307 OFFCURVE",
"58 305 CURVE",
"56 275 LINE",
"119 273 OFFCURVE",
"111 231 OFFCURVE",
"101 151 CURVE SMOOTH",
"83 15 LINE SMOOTH",
"73 -64 OFFCURVE",
"97 -138 OFFCURVE",
"166 -138 CURVE SMOOTH"
);
}
);
width = 305;
}
);
unicode = 007B;
},
{
color = 5;
glyphname = braceright;
layers = (
{
layerId = "4BC9CD2E-8AD0-40CC-97AA-8C7B556514B0";
paths = (
{
closed = 1;
nodes = (
"140 -146 OFFCURVE",
"182 -62 OFFCURVE",
"193 27 CURVE SMOOTH",
"210 167 LINE SMOOTH",
"220 246 OFFCURVE",
"217 242 OFFCURVE",
"269 242 CURVE",
"274 330 LINE",
"221 330 OFFCURVE",
"229 323 OFFCURVE",
"238 399 CURVE SMOOTH",
"255 539 LINE SMOOTH",
"266 627 OFFCURVE",
"242 718 OFFCURVE",
"165 718 CURVE SMOOTH",
"86 718 LINE",
"75 622 LINE",
"156 622 LINE SMOOTH",
"166 622 OFFCURVE",
"169 613 OFFCURVE",
"170 596 CURVE SMOOTH",
"170 536 OFFCURVE",
"137 416 OFFCURVE",
"129 355 CURVE SMOOTH",
"124 323 OFFCURVE",
"141 303 OFFCURVE",
"156 290 CURVE",
"134 273 OFFCURVE",
"117 255 OFFCURVE",
"113 229 CURVE SMOOTH",
"105 163 OFFCURVE",
"109 45 OFFCURVE",
"94 -10 CURVE SMOOTH",
"89 -34 OFFCURVE",
"80 -50 OFFCURVE",
"69 -50 CURVE SMOOTH",
"-8 -50 LINE",
"-20 -146 LINE",
"64 -146 LINE SMOOTH"
);
}
);
width = 320;
},
{
layerId = "3C8330F3-4770-4812-9C95-859F387513C1";
paths = (
{
closed = 1;
nodes = (
"116 -138 OFFCURVE",
"156 -66 OFFCURVE",
"166 13 CURVE SMOOTH",
"182 149 LINE SMOOTH",
"191 229 OFFCURVE",
"196 273 OFFCURVE",
"259 275 CURVE",
"261 305 LINE",
"198 307 OFFCURVE",
"206 348 OFFCURVE",
"216 429 CURVE SMOOTH",
"234 565 LINE SMOOTH",
"243 644 OFFCURVE",
"219 718 OFFCURVE",
"150 718 CURVE SMOOTH",
"86 718 LINE",
"83 689 LINE",
"149 689 LINE SMOOTH",
"172 689 OFFCURVE",
"182 675 OFFCURVE",
"187 660 CURVE SMOOTH",
"208 590 OFFCURVE",
"155 460 OFFCURVE",
"157 382 CURVE SMOOTH",
"158 346 OFFCURVE",
"166 301 OFFCURVE",
"196 291 CURVE",
"162 279 OFFCURVE",
"144 236 OFFCURVE",
"135 204 CURVE SMOOTH",
"113 122 OFFCURVE",
"134 -8 OFFCURVE",
"95 -76 CURVE SMOOTH",
"87 -93 OFFCURVE",
"72 -109 OFFCURVE",
"49 -109 CURVE SMOOTH",
"-15 -109 LINE",
"-19 -138 LINE",
"47 -138 LINE SMOOTH"
);
}
);
width = 305;
}
);
unicode = 007D;
},
{
color = 5;
glyphname = bracketleft;
layers = (
{
layerId = "4BC9CD2E-8AD0-40CC-97AA-8C7B556514B0";
paths = (
{
closed = 1;
nodes = (
"210 -37 LINE",
"122 -37 LINE",
"199 590 LINE",
"287 590 LINE",
"300 700 LINE",
"113 700 LINE",
"9 -147 LINE",
"196 -147 LINE"
);
}
);
width = 272;
},
{
layerId = "3C8330F3-4770-4812-9C95-859F387513C1";
paths = (
{
closed = 1;
nodes = (
"202 -100 LINE",
"63 -100 LINE",
"156 655 LINE",
"295 655 LINE",
"300 700 LINE",
"113 700 LINE",
"10 -145 LINE",
"197 -145 LINE"
);
}
);
width = 273;
}
);
unicode = 005B;
},
{
color = 5;
glyphname = bracketright;
layers = (
{
layerId = "4BC9CD2E-8AD0-40CC-97AA-8C7B556514B0";
paths = (
{
closed = 1;
nodes = (
"166 -147 LINE",
"270 700 LINE",
"83 700 LINE",
"70 590 LINE",
"158 590 LINE",
"81 -37 LINE",
"-7 -37 LINE",
"-21 -147 LINE"
);
}
);
width = 272;
},
{
layerId = "3C8330F3-4770-4812-9C95-859F387513C1";
paths = (
{
closed = 1;
nodes = (
"167 -145 LINE",
"270 700 LINE",
"83 700 LINE",
"78 655 LINE",
"217 655 LINE",
"124 -100 LINE",
"-15 -100 LINE",
"-20 -145 LINE"
);
}
);
width = 273;
}
);
unicode = 005D;
},
{
color = 5;
glyphname = hyphen;
layers = (
{
layerId = "4BC9CD2E-8AD0-40CC-97AA-8C7B556514B0";
paths = (
{
closed = 1;
nodes = (
"414 350 LINE",
"64 350 LINE",
"52 250 LINE",
"402 250 LINE"
);
}
);
width = 452;
},
{
layerId = "3C8330F3-4770-4812-9C95-859F387513C1";
paths = (
{
closed = 1;
nodes = (
"416 325 LINE",
"66 325 LINE",
"54 275 LINE",
"404 275 LINE"
);
}
);
width = 455;
}
);
unicode = 002D;
},
{
color = 5;
glyphname = endash;
layers = (
{
layerId = "4BC9CD2E-8AD0-40CC-97AA-8C7B556514B0";
paths = (
{
closed = 1;
nodes = (
"559 350 LINE",
"64 350 LINE",
"52 250 LINE",
"547 250 LINE"
);
}
);
width = 597;
},
{
layerId = "3C8330F3-4770-4812-9C95-859F387513C1";
paths = (
{
closed = 1;
nodes = (
"561 325 LINE",
"66 325 LINE",
"54 275 LINE",
"549 275 LINE"
);
}
);
width = 600;
}
);
unicode = 2013;
},
{
color = 5;
glyphname = emdash;
layers = (
{
layerId = "4BC9CD2E-8AD0-40CC-97AA-8C7B556514B0";
paths = (
{
closed = 1;
nodes = (
"970 350 LINE",
"64 350 LINE",
"52 250 LINE",
"958 250 LINE"
);
}
);
width = 1008;
},
{
layerId = "3C8330F3-4770-4812-9C95-859F387513C1";
paths = (
{
closed = 1;
nodes = (
"972 325 LINE",
"66 325 LINE",
"54 275 LINE",
"960 275 LINE"
);
}
);
width = 1011;
}
);
unicode = 2014;
},
{
color = 5;
glyphname = underscore;
layers = (
{
layerId = "4BC9CD2E-8AD0-40CC-97AA-8C7B556514B0";
paths = (
{
closed = 1;
nodes = (
"504 -40 LINE",
"9 -40 LINE",
"0 -120 LINE",
"495 -120 LINE"
);
}
);
width = 597;
},
{
layerId = "3C8330F3-4770-4812-9C95-859F387513C1";
paths = (
{
closed = 1;
nodes = (
"503 -80 LINE",
"7 -80 LINE",
"-2 -120 LINE",
"494 -120 LINE"
);
}
);
width = 599;
}
);
unicode = 005F;
},
{
color = 5;
glyphname = quotesinglbase;
layers = (
{
layerId = "4BC9CD2E-8AD0-40CC-97AA-8C7B556514B0";
paths = (
{
closed = 1;
nodes = (
"-13 15 OFFCURVE",
"12 -17 OFFCURVE",
"43 -14 CURVE",
"32 -46 OFFCURVE",
"20 -79 OFFCURVE",
"2 -107 CURVE",
"47 -132 LINE",
"76 -79 OFFCURVE",
"116 -1 OFFCURVE",
"121 39 CURVE SMOOTH",
"126 78 OFFCURVE",
"99 110 OFFCURVE",
"61 109 CURVE SMOOTH",
"26 108 OFFCURVE",
"-2 84 OFFCURVE",
"-8 51 CURVE SMOOTH"
);
}
);
width = 201;
},
{
layerId = "3C8330F3-4770-4812-9C95-859F387513C1";
paths = (
{
closed = 1;
nodes = (
"-9 38 OFFCURVE",
"9 16 OFFCURVE",
"38 18 CURVE",
"24 -22 OFFCURVE",
"-5 -82 OFFCURVE",
"-13 -93 CURVE",
"7 -104 LINE",
"17 -85 OFFCURVE",
"81 32 OFFCURVE",
"85 56 CURVE",
"92 83 OFFCURVE",
"72 110 OFFCURVE",
"46 110 CURVE SMOOTH",
"19 110 OFFCURVE",
"-3 89 OFFCURVE",
"-6 66 CURVE SMOOTH"
);
}
);
width = 163;
}
);
unicode = 201A;
},
{
color = 5;
glyphname = quotedblbase;
layers = (
{
layerId = "4BC9CD2E-8AD0-40CC-97AA-8C7B556514B0";
paths = (
{
closed = 1;
nodes = (
"151 15 OFFCURVE",
"176 -17 OFFCURVE",
"207 -14 CURVE",
"196 -46 OFFCURVE",
"184 -79 OFFCURVE",
"166 -107 CURVE",
"211 -132 LINE",
"240 -79 OFFCURVE",
"280 -1 OFFCURVE",
"285 39 CURVE SMOOTH",
"290 78 OFFCURVE",
"263 110 OFFCURVE",
"225 109 CURVE SMOOTH",
"190 108 OFFCURVE",
"162 84 OFFCURVE",
"156 51 CURVE SMOOTH"
);
},
{
closed = 1;
nodes = (
"-13 15 OFFCURVE",
"12 -17 OFFCURVE",
"43 -14 CURVE",
"32 -46 OFFCURVE",
"20 -79 OFFCURVE",
"2 -107 CURVE",
"47 -132 LINE",
"76 -79 OFFCURVE",
"116 -1 OFFCURVE",
"121 39 CURVE SMOOTH",
"126 78 OFFCURVE",
"99 110 OFFCURVE",
"61 109 CURVE SMOOTH",
"26 108 OFFCURVE",
"-2 84 OFFCURVE",
"-8 51 CURVE SMOOTH"
);
}
);
width = 365;
},
{
layerId = "3C8330F3-4770-4812-9C95-859F387513C1";
paths = (
{
closed = 1;
nodes = (
"135 38 OFFCURVE",
"153 16 OFFCURVE",
"182 18 CURVE",
"168 -22 OFFCURVE",
"139 -82 OFFCURVE",
"131 -93 CURVE",
"151 -104 LINE",
"161 -85 OFFCURVE",
"225 32 OFFCURVE",
"229 56 CURVE",
"236 83 OFFCURVE",
"216 110 OFFCURVE",
"190 110 CURVE SMOOTH",
"163 110 OFFCURVE",
"141 89 OFFCURVE",
"138 66 CURVE SMOOTH"
);
},
{
closed = 1;
nodes = (
"-9 38 OFFCURVE",
"9 16 OFFCURVE",
"38 18 CURVE",
"24 -22 OFFCURVE",
"-5 -82 OFFCURVE",
"-13 -93 CURVE",
"7 -104 LINE",
"17 -85 OFFCURVE",
"81 32 OFFCURVE",
"85 56 CURVE",
"92 83 OFFCURVE",
"72 110 OFFCURVE",
"46 110 CURVE SMOOTH",
"19 110 OFFCURVE",
"-3 89 OFFCURVE",
"-6 66 CURVE SMOOTH"
);
}
);
width = 307;
}
);
unicode = 201E;
},
{
color = 5;
glyphname = quotedblleft;
layers = (
{
layerId = "4BC9CD2E-8AD0-40CC-97AA-8C7B556514B0";
paths = (
{
closed = 1;
nodes = (
"396 575 OFFCURVE",
"371 607 OFFCURVE",
"340 604 CURVE",
"351 636 OFFCURVE",
"363 669 OFFCURVE",
"381 697 CURVE",
"336 722 LINE",
"307 669 OFFCURVE",
"267 591 OFFCURVE",
"262 551 CURVE SMOOTH",
"257 512 OFFCURVE",
"284 480 OFFCURVE",
"322 481 CURVE SMOOTH",
"357 482 OFFCURVE",
"386 506 OFFCURVE",
"391 539 CURVE SMOOTH"
);
},
{
closed = 1;
nodes = (
"226 575 OFFCURVE",
"201 607 OFFCURVE",
"170 604 CURVE",
"181 636 OFFCURVE",
"193 669 OFFCURVE",
"211 697 CURVE",
"166 722 LINE",
"137 669 OFFCURVE",
"97 591 OFFCURVE",
"92 551 CURVE SMOOTH",
"87 512 OFFCURVE",
"114 480 OFFCURVE",
"152 481 CURVE SMOOTH",
"187 482 OFFCURVE",
"216 506 OFFCURVE",
"221 539 CURVE SMOOTH"
);
}
);
width = 370;
},
{
layerId = "3C8330F3-4770-4812-9C95-859F387513C1";
paths = (
{
closed = 1;
nodes = (
"317 552 OFFCURVE",
"299 574 OFFCURVE",
"270 572 CURVE",
"284 612 OFFCURVE",
"313 672 OFFCURVE",
"321 683 CURVE",
"301 694 LINE",
"291 675 OFFCURVE",
"227 558 OFFCURVE",
"223 534 CURVE",
"216 507 OFFCURVE",
"236 480 OFFCURVE",
"262 480 CURVE SMOOTH",
"289 480 OFFCURVE",
"311 501 OFFCURVE",
"314 524 CURVE SMOOTH"
);
},
{
closed = 1;
nodes = (
"184 552 OFFCURVE",
"166 574 OFFCURVE",
"137 572 CURVE",
"151 612 OFFCURVE",
"180 672 OFFCURVE",
"188 683 CURVE",
"168 694 LINE",
"158 675 OFFCURVE",
"94 558 OFFCURVE",
"90 534 CURVE",
"83 507 OFFCURVE",
"103 480 OFFCURVE",
"129 480 CURVE SMOOTH",
"156 480 OFFCURVE",
"178 501 OFFCURVE",
"181 524 CURVE SMOOTH"
);
}
);
width = 295;
}
);
unicode = 201C;
},
{
color = 5;
glyphname = quotedblright;
layers = (
{
layerId = "4BC9CD2E-8AD0-40CC-97AA-8C7B556514B0";
paths = (
{
closed = 1;
nodes = (
"70 605 OFFCURVE",
"94 573 OFFCURVE",
"125 576 CURVE",
"115 544 OFFCURVE",
"103 511 OFFCURVE",
"84 483 CURVE",
"129 458 LINE",
"158 511 OFFCURVE",
"199 589 OFFCURVE",
"204 629 CURVE SMOOTH",
"208 668 OFFCURVE",
"182 700 OFFCURVE",
"143 699 CURVE SMOOTH",
"108 698 OFFCURVE",
"80 674 OFFCURVE",
"75 641 CURVE SMOOTH"
);
},
{
closed = 1;
nodes = (
"240 605 OFFCURVE",
"264 573 OFFCURVE",
"295 576 CURVE",
"285 544 OFFCURVE",
"273 511 OFFCURVE",
"254 483 CURVE",
"299 458 LINE",
"328 511 OFFCURVE",
"369 589 OFFCURVE",
"374 629 CURVE SMOOTH",
"378 668 OFFCURVE",
"352 700 OFFCURVE",
"313 699 CURVE SMOOTH",
"278 698 OFFCURVE",
"250 674 OFFCURVE",
"245 641 CURVE SMOOTH"
);
}
);
width = 371;
},
{
layerId = "3C8330F3-4770-4812-9C95-859F387513C1";
paths = (
{
closed = 1;
nodes = (
"73 628 OFFCURVE",
"92 606 OFFCURVE",
"121 608 CURVE",
"107 568 OFFCURVE",
"77 508 OFFCURVE",
"70 497 CURVE",
"90 486 LINE",
"100 505 OFFCURVE",
"164 622 OFFCURVE",
"168 646 CURVE",
"174 673 OFFCURVE",
"154 700 OFFCURVE",
"128 700 CURVE SMOOTH",
"101 700 OFFCURVE",
"80 679 OFFCURVE",
"77 656 CURVE SMOOTH"
);
},
{
closed = 1;
nodes = (
"213 628 OFFCURVE",
"232 606 OFFCURVE",
"261 608 CURVE",
"247 568 OFFCURVE",
"217 508 OFFCURVE",
"210 497 CURVE",
"230 486 LINE",
"240 505 OFFCURVE",
"304 622 OFFCURVE",
"308 646 CURVE",
"314 673 OFFCURVE",
"294 700 OFFCURVE",
"268 700 CURVE SMOOTH",
"241 700 OFFCURVE",
"220 679 OFFCURVE",
"217 656 CURVE SMOOTH"
);
}
);
width = 302;
}
);
unicode = 201D;
},
{
color = 5;
glyphname = quoteleft;
layers = (
{
layerId = "4BC9CD2E-8AD0-40CC-97AA-8C7B556514B0";
paths = (
{
closed = 1;
nodes = (
"226 575 OFFCURVE",
"201 607 OFFCURVE",
"170 604 CURVE",
"181 636 OFFCURVE",
"193 669 OFFCURVE",
"211 697 CURVE",
"166 722 LINE",
"137 669 OFFCURVE",
"97 591 OFFCURVE",
"92 551 CURVE SMOOTH",
"87 512 OFFCURVE",
"114 480 OFFCURVE",
"152 481 CURVE SMOOTH",
"187 482 OFFCURVE",
"216 506 OFFCURVE",
"221 539 CURVE SMOOTH"
);
}
);
width = 200;
},
{
layerId = "3C8330F3-4770-4812-9C95-859F387513C1";
paths = (
{
closed = 1;
nodes = (
"184 552 OFFCURVE",
"166 574 OFFCURVE",
"137 572 CURVE",
"151 612 OFFCURVE",
"180 672 OFFCURVE",
"188 683 CURVE",
"168 694 LINE",
"158 675 OFFCURVE",
"94 558 OFFCURVE",
"90 534 CURVE",
"83 507 OFFCURVE",
"103 480 OFFCURVE",
"129 480 CURVE SMOOTH",
"156 480 OFFCURVE",
"178 501 OFFCURVE",
"181 524 CURVE SMOOTH"
);
}
);
width = 162;
}
);
unicode = 2018;
},
{
color = 5;
glyphname = quoteright;
layers = (
{
layerId = "4BC9CD2E-8AD0-40CC-97AA-8C7B556514B0";
paths = (
{
closed = 1;
nodes = (
"70 605 OFFCURVE",
"94 573 OFFCURVE",
"125 576 CURVE",
"115 544 OFFCURVE",
"103 511 OFFCURVE",
"84 483 CURVE",
"129 458 LINE",
"158 511 OFFCURVE",
"199 589 OFFCURVE",
"204 629 CURVE SMOOTH",
"208 668 OFFCURVE",
"182 700 OFFCURVE",
"143 699 CURVE SMOOTH",
"108 698 OFFCURVE",
"80 674 OFFCURVE",
"75 641 CURVE SMOOTH"
);
}
);
width = 201;
},
{
layerId = "3C8330F3-4770-4812-9C95-859F387513C1";
paths = (
{
closed = 1;
nodes = (
"73 628 OFFCURVE",
"92 606 OFFCURVE",
"121 608 CURVE",
"107 568 OFFCURVE",
"77 508 OFFCURVE",
"70 497 CURVE",
"90 486 LINE",
"100 505 OFFCURVE",
"164 622 OFFCURVE",
"168 646 CURVE",
"174 673 OFFCURVE",
"154 700 OFFCURVE",
"128 700 CURVE SMOOTH",
"101 700 OFFCURVE",
"80 679 OFFCURVE",
"77 656 CURVE SMOOTH"
);
}
);
width = 162;
}
);
unicode = 2019;
},
{
color = 5;
glyphname = guillemetleft;
layers = (
{
layerId = "3C8330F3-4770-4812-9C95-859F387513C1";
paths = (
{
closed = 1;
nodes = (
"430 127 LINE",
"285 268 LINE",
"465 411 LINE",
"472 469 LINE",
"218 271 LINE",
"423 70 LINE"
);
},
{
closed = 1;
nodes = (
"254 127 LINE",
"110 268 LINE",
"289 412 LINE",
"296 469 LINE",
"43 271 LINE",
"247 70 LINE"
);
}
);
width = 498;
},
{
layerId = "4BC9CD2E-8AD0-40CC-97AA-8C7B556514B0";
paths = (
{
closed = 1;
nodes = (
"582 152 LINE",
"455 270 LINE",
"613 388 LINE",
"627 521 LINE",
"307 273 LINE",
"567 19 LINE"
);
},
{
closed = 1;
nodes = (
"319 151 LINE",
"196 270 LINE",
"350 388 LINE",
"364 521 LINE",
"43 273 LINE",
"305 21 LINE"
);
}
);
width = 649;
}
);
unicode = 00AB;
},
{
color = 5;
glyphname = guillemetright;
layers = (
{
layerId = "3C8330F3-4770-4812-9C95-859F387513C1";
paths = (
{
closed = 1;
nodes = (
"287 271 LINE",
"81 469 LINE",
"74 411 LINE",
"218 268 LINE",
"39 127 LINE",
"32 70 LINE"
);
},
{
closed = 1;
nodes = (
"462 271 LINE",
"257 469 LINE",
"250 412 LINE",
"393 268 LINE",
"215 127 LINE",
"208 70 LINE"
);
}
);
width = 499;
},
{
layerId = "4BC9CD2E-8AD0-40CC-97AA-8C7B556514B0";
paths = (
{
closed = 1;
nodes = (
"350 273 LINE",
"88 521 LINE",
"74 388 LINE",
"200 270 LINE",
"43 152 LINE",
"28 19 LINE"
);
},
{
closed = 1;
nodes = (
"614 273 LINE",
"351 521 LINE",
"337 388 LINE",
"459 270 LINE",
"306 151 LINE",
"292 21 LINE"
);
}
);
width = 651;
}
);
unicode = 00BB;
},
{
color = 5;
glyphname = guilsinglleft;
layers = (
{
layerId = "4BC9CD2E-8AD0-40CC-97AA-8C7B556514B0";
paths = (
{
closed = 1;
nodes = (
"301 150 LINE",
"183 269 LINE",
"332 387 LINE",
"346 521 LINE",
"43 272 LINE",
"286 19 LINE"
);
}
);
width = 368;
},
{
layerId = "3C8330F3-4770-4812-9C95-859F387513C1";
paths = (
{
closed = 1;
nodes = (
"255 128 LINE",
"110 269 LINE",
"290 412 LINE",
"297 470 LINE",
"43 272 LINE",
"248 71 LINE"
);
}
);
width = 323;
}
);
unicode = 2039;
},
{
color = 5;
glyphname = guilsinglright;
layers = (
{
layerId = "4BC9CD2E-8AD0-40CC-97AA-8C7B556514B0";
paths = (
{
closed = 1;
nodes = (
"333 272 LINE",
"88 521 LINE",
"74 387 LINE",
"191 269 LINE",
"43 150 LINE",
"29 19 LINE"
);
}
);
width = 370;
},
{
layerId = "3C8330F3-4770-4812-9C95-859F387513C1";
paths = (
{
closed = 1;
nodes = (
"287 272 LINE",
"81 470 LINE",
"74 412 LINE",
"218 269 LINE",
"39 128 LINE",
"32 71 LINE"
);
}
);
width = 324;
}
);
unicode = 203A;
},
{
color = 5;
glyphname = quotedbl;
layers = (
{
layerId = "4BC9CD2E-8AD0-40CC-97AA-8C7B556514B0";
paths = (
{
closed = 1;
nodes = (
"254 700 LINE",
"236 463 LINE",
"324 463 LINE",
"364 700 LINE"
);
},
{
closed = 1;
nodes = (
"83 700 LINE",
"65 463 LINE",
"153 463 LINE",
"193 700 LINE"
);
}
);
width = 351;
},
{
layerId = "3C8330F3-4770-4812-9C95-859F387513C1";
paths = (
{
closed = 1;
nodes = (
"201 700 LINE",
"178 463 LINE",
"218 463 LINE",
"253 700 LINE"
);
},
{
closed = 1;
nodes = (
"83 700 LINE",
"60 463 LINE",
"100 463 LINE",
"135 700 LINE"
);
}
);
width = 240;
}
);
unicode = 0022;
},
{
color = 5;
glyphname = quotesingle;
layers = (
{
layerId = "4BC9CD2E-8AD0-40CC-97AA-8C7B556514B0";
paths = (
{
closed = 1;
nodes = (
"83 700 LINE",
"65 463 LINE",
"153 463 LINE",
"193 700 LINE"
);
}
);
width = 180;
},
{
layerId = "3C8330F3-4770-4812-9C95-859F387513C1";
paths = (
{
closed = 1;
nodes = (
"83 700 LINE",
"60 463 LINE",
"100 463 LINE",
"135 700 LINE"
);
}
);
width = 122;
}
);
unicode = 0027;
},
{
glyphname = .notdef;
layers = (
{
layerId = "4BC9CD2E-8AD0-40CC-97AA-8C7B556514B0";
paths = (
{
closed = 1;
nodes = (
"318 -60 LINE",
"86 -60 LINE",
"166 596 LINE",
"398 596 LINE",
"407 664 LINE",
"108 664 LINE",
"11 -128 LINE",
"310 -128 LINE"
);
},
{
closed = 1;
nodes = (
"490 -128 LINE",
"587 664 LINE",
"378 664 LINE",
"369 596 LINE",
"511 596 LINE",
"431 -60 LINE",
"289 -60 LINE",
"281 -128 LINE"
);
}
);
width = 593;
},
{
associatedMasterId = "3C8330F3-4770-4812-9C95-859F387513C1";
layerId = "E1ADDF7C-A343-4E6D-B630-136BDFE64807";
paths = (
{
closed = 1;
nodes = (
"366 -38 LINE",
"132 -38 LINE",
"132 574 LINE",
"366 574 LINE",
"366 664 LINE",
"50 664 LINE",
"50 -128 LINE",
"366 -128 LINE"
);
},
{
closed = 1;
nodes = (
"529 -128 LINE",
"529 664 LINE",
"320 664 LINE",
"320 574 LINE",
"447 574 LINE",
"447 -38 LINE",
"320 -38 LINE",
"320 -128 LINE"
);
}
);
width = 579;
},
{
layerId = "3C8330F3-4770-4812-9C95-859F387513C1";
paths = (
{
closed = 1;
nodes = (
"315 -84 LINE",
"64 -84 LINE",
"150 620 LINE",
"401 620 LINE",
"407 664 LINE",
"108 664 LINE",
"11 -128 LINE",
"310 -128 LINE"
);
},
{
closed = 1;
nodes = (
"490 -128 LINE",
"587 664 LINE",
"378 664 LINE",
"372 620 LINE",
"533 620 LINE",
"447 -84 LINE",
"286 -84 LINE",
"281 -128 LINE"
);
}
);
width = 593;
}
);
},
{
color = 5;
glyphname = cent;
layers = (
{
components = (
{
name = c;
transform = "{1, 0, 0, 1, 23, 94}";
}
);
layerId = "4BC9CD2E-8AD0-40CC-97AA-8C7B556514B0";
paths = (
{
closed = 1;
nodes = (
"296 539 LINE",
"386 539 LINE",
"399 639 LINE",
"309 639 LINE"
);
},
{
closed = 1;
nodes = (
"236 49 LINE",
"326 49 LINE",
"339 149 LINE",
"249 149 LINE"
);
}
);
width = 530;
},
{
components = (
{
name = c;
transform = "{1, 0, 0, 1, 23, 92}";
}
);
layerId = "3C8330F3-4770-4812-9C95-859F387513C1";
paths = (
{
closed = 1;
nodes = (
"316 551 LINE",
"356 551 LINE",
"366 636 LINE",
"326 636 LINE"
);
},
{
closed = 1;
nodes = (
"254 49 LINE",
"294 49 LINE",
"304 130 LINE",
"264 130 LINE"
);
}
);
width = 508;
}
);
unicode = 00A2;
},
{
color = 5;
glyphname = currency;
layers = (
{
layerId = "4BC9CD2E-8AD0-40CC-97AA-8C7B556514B0";
paths = (
{
closed = 1;
nodes = (
"528 217 LINE",
"554 252 OFFCURVE",
"570 291 OFFCURVE",
"575 331 CURVE SMOOTH",
"581 379 OFFCURVE",
"571 419 OFFCURVE",
"555 454 CURVE",
"653 544 LINE",
"586 620 LINE",
"485 532 LINE",
"454 552 OFFCURVE",
"417 567 OFFCURVE",
"370 567 CURVE SMOOTH",
"327 567 OFFCURVE",
"288 554 OFFCURVE",
"251 534 CURVE",
"175 620 LINE",
"91 544 LINE",
"166 459 LINE",
"141 424 OFFCURVE",
"124 385 OFFCURVE",
"118 343 CURVE SMOOTH",
"113 297 OFFCURVE",
"122 257 OFFCURVE",
"138 222 CURVE",
"41 133 LINE",
"109 57 LINE",
"207 143 LINE",
"239 123 OFFCURVE",
"276 108 OFFCURVE",
"324 108 CURVE SMOOTH",
"366 108 OFFCURVE",
"406 121 OFFCURVE",
"444 142 CURVE",
"520 57 LINE",
"603 133 LINE"
);
},
{
closed = 1;
nodes = (
"459 400 OFFCURVE",
"467 372 OFFCURVE",
"463 343 CURVE SMOOTH",
"459 308 OFFCURVE",
"441 278 OFFCURVE",
"416 259 CURVE SMOOTH",
"394 236 OFFCURVE",
"362 221 OFFCURVE",
"327 221 CURVE SMOOTH",
"298 221 OFFCURVE",
"271 232 OFFCURVE",
"251 251 CURVE SMOOTH",
"234 274 OFFCURVE",
"226 302 OFFCURVE",
"230 331 CURVE SMOOTH",
"234 366 OFFCURVE",
"253 396 OFFCURVE",
"278 415 CURVE SMOOTH",
"300 438 OFFCURVE",
"331 453 OFFCURVE",
"366 453 CURVE SMOOTH",
"395 453 OFFCURVE",
"422 442 OFFCURVE",
"443 423 CURVE SMOOTH"
);
}
);
width = 669;
},
{
layerId = "3C8330F3-4770-4812-9C95-859F387513C1";
paths = (
{
closed = 1;
nodes = (
"482 191 LINE",
"526 244 OFFCURVE",
"546 289 OFFCURVE",
"551 334 CURVE SMOOTH",
"557 383 OFFCURVE",
"548 427 OFFCURVE",
"516 483 CURVE",
"624 579 LINE",
"603 602 LINE",
"495 505 LINE",
"445 544 OFFCURVE",
"402 559 OFFCURVE",
"356 559 CURVE SMOOTH",
"312 559 OFFCURVE",
"265 546 OFFCURVE",
"206 507 CURVE",
"123 603 LINE",
"96 579 LINE",
"181 485 LINE",
"134 429 OFFCURVE",
"116 385 OFFCURVE",
"110 340 CURVE SMOOTH",
"104 291 OFFCURVE",
"114 246 OFFCURVE",
"145 193 CURVE",
"37 98 LINE",
"59 74 LINE",
"165 170 LINE",
"215 131 OFFCURVE",
"258 116 OFFCURVE",
"306 116 CURVE SMOOTH",
"352 116 OFFCURVE",
"399 130 OFFCURVE",
"456 169 CURVE",
"540 75 LINE",
"565 98 LINE"
);
},
{
closed = 1;
nodes = (
"493 426 OFFCURVE",
"505 382 OFFCURVE",
"499 338 CURVE SMOOTH",
"493 287 OFFCURVE",
"471 246 OFFCURVE",
"434 216 CURVE SMOOTH",
"400 184 OFFCURVE",
"354 164 OFFCURVE",
"306 164 CURVE SMOOTH",
"259 164 OFFCURVE",
"219 182 OFFCURVE",
"191 212 CURVE SMOOTH",
"164 244 OFFCURVE",
"151 285 OFFCURVE",
"157 332 CURVE SMOOTH",
"164 382 OFFCURVE",
"187 424 OFFCURVE",
"223 454 CURVE SMOOTH",
"259 486 OFFCURVE",
"304 505 OFFCURVE",
"350 505 CURVE SMOOTH",
"396 505 OFFCURVE",
"438 488 OFFCURVE",
"467 458 CURVE SMOOTH"
);
}
);
width = 636;
}
);
unicode = 00A4;
},
{
color = 5;
glyphname = dollar;
layers = (
{
components = (
{
name = S;
transform = "{1, 0, 0, 1, 10, 0}";
}
);
layerId = "4BC9CD2E-8AD0-40CC-97AA-8C7B556514B0";
paths = (
{
closed = 1;
nodes = (
"200 -65 LINE",
"295 -65 LINE",
"397 762 LINE",
"302 762 LINE"
);
}
);
width = 574;
},
{
components = (
{
name = S;
transform = "{1, 0, 0, 1, 10, 0}";
}
);
layerId = "3C8330F3-4770-4812-9C95-859F387513C1";
paths = (
{
closed = 1;
nodes = (
"220 -46 LINE",
"266 -46 LINE",
"363 745 LINE",
"317 745 LINE"
);
}
);
width = 556;
}
);
unicode = 0024;
},
{
color = 5;
glyphname = euro;
layers = (
{
layerId = "3C8330F3-4770-4812-9C95-859F387513C1";
paths = (
{
closed = 1;
nodes = (
"480 -5 LINE",
"486 44 LINE",
"423 44 LINE SMOOTH",
"296 44 OFFCURVE",
"195 129 OFFCURVE",
"169 251 CURVE",
"432 252 LINE",
"437 287 LINE",
"164 286 LINE",
"161 325 OFFCURVE",
"168 376 OFFCURVE",
"181 413 CURVE",
"452 414 LINE",
"456 449 LINE",
"195 448 LINE",
"250 567 OFFCURVE",
"370 656 OFFCURVE",
"500 656 CURVE SMOOTH",
"561 656 LINE",
"567 705 LINE",
"504 705 LINE SMOOTH",
"349 705 OFFCURVE",
"198 600 OFFCURVE",
"138 450 CURVE",
"78 449 LINE",
"74 414 LINE",
"126 415 LINE",
"115 376 OFFCURVE",
"109 333 OFFCURVE",
"111 288 CURVE",
"59 287 LINE",
"54 252 LINE",
"115 253 LINE",
"137 102 OFFCURVE",
"263 -5 OFFCURVE",
"419 -5 CURVE SMOOTH"
);
}
);
width = 566;
},
{
layerId = "4BC9CD2E-8AD0-40CC-97AA-8C7B556514B0";
paths = (
{
closed = 1;
nodes = (
"483 -5 LINE",
"498 119 LINE",
"419 119 LINE SMOOTH",
"326 119 OFFCURVE",
"272 158 OFFCURVE",
"246 222 CURVE",
"443 225 LINE",
"455 320 LINE",
"230 317 LINE",
"228 338 OFFCURVE",
"232 359 OFFCURVE",
"238 380 CURVE",
"462 383 LINE",
"474 478 LINE",
"282 475 LINE",
"323 538 OFFCURVE",
"390 581 OFFCURVE",
"481 581 CURVE SMOOTH",
"555 581 LINE",
"570 705 LINE",
"491 705 LINE SMOOTH",
"343 705 OFFCURVE",
"215 629 OFFCURVE",
"151 481 CURVE",
"82 478 LINE",
"70 383 LINE",
"120 386 LINE",
"116 365 OFFCURVE",
"114 344 OFFCURVE",
"113 323 CURVE",
"63 320 LINE",
"51 225 LINE",
"120 228 LINE",
"147 86 OFFCURVE",
"253 -5 OFFCURVE",
"409 -5 CURVE SMOOTH"
);
}
);
width = 569;
}
);
unicode = 20AC;
},
{
color = 5;
glyphname = sterling;
layers = (
{
layerId = "4BC9CD2E-8AD0-40CC-97AA-8C7B556514B0";
paths = (
{
closed = 1;
nodes = (
"401 0 LINE",
"415 111 LINE",
"157 109 LINE",
"197 165 OFFCURVE",
"229 241 OFFCURVE",
"244 308 CURVE",
"365 311 LINE",
"378 412 LINE",
"255 409 LINE",
"242 473 OFFCURVE",
"243 505 OFFCURVE",
"255 528 CURVE",
"262 551 OFFCURVE",
"276 562 OFFCURVE",
"290 568 CURVE SMOOTH",
"318 589 OFFCURVE",
"382 609 OFFCURVE",
"471 592 CURVE",
"479 696 LINE",
"371 715 OFFCURVE",
"272 708 OFFCURVE",
"206 654 CURVE SMOOTH",
"180 628 OFFCURVE",
"160 597 OFFCURVE",
"146 559 CURVE SMOOTH",
"131 512 OFFCURVE",
"131 463 OFFCURVE",
"140 415 CURVE",
"79 412 LINE",
"66 311 LINE",
"134 314 LINE",
"124 258 OFFCURVE",
"86 180 OFFCURVE",
"29 100 CURVE",
"18 0 LINE"
);
}
);
width = 486;
},
{
layerId = "3C8330F3-4770-4812-9C95-859F387513C1";
paths = (
{
closed = 1;
nodes = (
"404 0 LINE",
"411 51 LINE",
"79 50 LINE",
"144 127 OFFCURVE",
"195 217 OFFCURVE",
"216 315 CURVE",
"362 316 LINE",
"367 357 LINE",
"222 356 LINE",
"219 395 OFFCURVE",
"207 473 OFFCURVE",
"209 505 CURVE",
"211 551 OFFCURVE",
"229 599 OFFCURVE",
"282 630 CURVE SMOOTH",
"339 663 OFFCURVE",
"416 661 OFFCURVE",
"491 653 CURVE",
"494 699 LINE",
"418 709 OFFCURVE",
"321 709 OFFCURVE",
"256 670 CURVE SMOOTH",
"232 655 OFFCURVE",
"213 637 OFFCURVE",
"198 621 CURVE SMOOTH",
"148 559 OFFCURVE",
"160 483 OFFCURVE",
"174 358 CURVE",
"84 357 LINE",
"79 316 LINE",
"170 317 LINE",
"147 222 OFFCURVE",
"109 154 OFFCURVE",
"23 55 CURVE",
"17 0 LINE"
);
}
);
width = 489;
}
);
unicode = 00A3;
},
{
color = 5;
glyphname = notequal;
layers = (
{
components = (
{
name = endash;
transform = "{0.95, 0, 0.24556, 1, -71, -75}";
},
{
name = endash;
transform = "{0.95, 0, 0.24556, 1, -33, 75}";
}
);
layerId = "4BC9CD2E-8AD0-40CC-97AA-8C7B556514B0";
paths = (
{
closed = 1;
nodes = (
"214 107 LINE",
"503 506 LINE",
"397 506 LINE",
"107 107 LINE"
);
}
);
width = 609;
},
{
components = (
{
name = endash;
transform = "{0.95, 0, 0.12278, 1, -40, -75}";
},
{
name = endash;
transform = "{0.95, 0, 0.12278, 1, -21, 75}";
}
);
layerId = "3C8330F3-4770-4812-9C95-859F387513C1";
paths = (
{
closed = 1;
nodes = (
"197 107 LINE",
"437 506 LINE",
"383 506 LINE",
"142 107 LINE"
);
}
);
width = 583;
}
);
unicode = 2260;
},
{
color = 5;
glyphname = greater;
layers = (
{
layerId = "4BC9CD2E-8AD0-40CC-97AA-8C7B556514B0";
paths = (
{
closed = 1;
nodes = (
"490 326 LINE",
"91 544 LINE",
"74 405 LINE",
"354 272 LINE",
"41 136 LINE",
"24 -4 LINE",
"477 217 LINE"
);
}
);
width = 522;
},
{
layerId = "3C8330F3-4770-4812-9C95-859F387513C1";
paths = (
{
closed = 1;
nodes = (
"473 297 LINE",
"72 511 LINE",
"65 456 LINE",
"417 270 LINE",
"19 83 LINE",
"13 30 LINE",
"466 243 LINE"
);
}
);
width = 507;
}
);
unicode = 003E;
},
{
color = 5;
glyphname = greaterequal;
layers = (
{
layerId = "4BC9CD2E-8AD0-40CC-97AA-8C7B556514B0";
paths = (
{
closed = 1;
nodes = (
"501 411 LINE",
"93 558 LINE",
"77 425 LINE",
"358 356 LINE",
"59 287 LINE",
"43 154 LINE",
"487 297 LINE"
);
},
{
closed = 1;
nodes = (
"463 100 LINE",
"37 100 LINE",
"24 0 LINE",
"450 0 LINE"
);
}
);
width = 525;
},
{
layerId = "3C8330F3-4770-4812-9C95-859F387513C1";
paths = (
{
closed = 1;
nodes = (
"477 339 LINE",
"68 476 LINE",
"61 424 LINE",
"427 306 LINE",
"33 192 LINE",
"27 141 LINE",
"469 272 LINE"
);
},
{
closed = 1;
nodes = (
"441 50 LINE",
"15 50 LINE",
"9 0 LINE",
"435 0 LINE"
);
}
);
width = 506;
}
);
unicode = 2265;
},
{
color = 5;
glyphname = plusminus;
layers = (
{
layerId = "4BC9CD2E-8AD0-40CC-97AA-8C7B556514B0";
paths = (
{
closed = 1;
nodes = (
"566 396 LINE",
"376 396 LINE",
"386 474 LINE",
"276 474 LINE",
"266 396 LINE",
"71 396 LINE",
"58 288 LINE",
"253 288 LINE",
"243 209 LINE",
"353 209 LINE",
"363 288 LINE",
"553 288 LINE"
);
},
{
closed = 1;
nodes = (
"535 146 LINE",
"40 146 LINE",
"27 38 LINE",
"522 38 LINE"
);
}
);
width = 602;
},
{
layerId = "3C8330F3-4770-4812-9C95-859F387513C1";
paths = (
{
closed = 1;
nodes = (
"531 328 LINE",
"321 328 LINE",
"332 419 LINE",
"282 419 LINE",
"271 328 LINE",
"61 328 LINE",
"54 278 LINE",
"264 278 LINE",
"253 186 LINE",
"303 186 LINE",
"314 278 LINE",
"524 278 LINE"
);
},
{
closed = 1;
nodes = (
"501 88 LINE",
"31 88 LINE",
"25 38 LINE",
"495 38 LINE"
);
}
);
width = 575;
}
);
unicode = 00B1;
},
{
color = 5;
glyphname = approxequal;
layers = (
{
layerId = "4BC9CD2E-8AD0-40CC-97AA-8C7B556514B0";
paths = (
{
closed = 1;
nodes = (
"165 299 LINE",
"170 341 OFFCURVE",
"201 371 OFFCURVE",
"241 371 CURVE SMOOTH",
"280 371 OFFCURVE",
"345 311 OFFCURVE",
"414 311 CURVE SMOOTH",
"497 311 OFFCURVE",
"571 382 OFFCURVE",
"583 480 CURVE",
"477 486 LINE",
"470 433 OFFCURVE",
"437 411 OFFCURVE",
"404 415 CURVE",
"380 421 OFFCURVE",
"318 469 OFFCURVE",
"271 473 CURVE",
"226 482 OFFCURVE",
"175 469 OFFCURVE",
"133 442 CURVE SMOOTH",
"95 411 OFFCURVE",
"65 368 OFFCURVE",
"58 305 CURVE"
);
},
{
closed = 1;
nodes = (
"170 99 LINE",
"176 141 OFFCURVE",
"207 171 OFFCURVE",
"246 171 CURVE SMOOTH",
"286 171 OFFCURVE",
"350 111 OFFCURVE",
"419 111 CURVE SMOOTH",
"502 111 OFFCURVE",
"577 182 OFFCURVE",
"589 280 CURVE",
"482 286 LINE",
"476 233 OFFCURVE",
"443 211 OFFCURVE",
"410 215 CURVE",
"385 221 OFFCURVE",
"324 269 OFFCURVE",
"277 273 CURVE",
"231 282 OFFCURVE",
"180 269 OFFCURVE",
"138 242 CURVE SMOOTH",
"100 211 OFFCURVE",
"71 168 OFFCURVE",
"63 105 CURVE"
);
}
);
width = 635;
},
{
layerId = "3C8330F3-4770-4812-9C95-859F387513C1";
paths = (
{
closed = 1;
nodes = (
"106 320 LINE",
"125 370 OFFCURVE",
"182 408 OFFCURVE",
"241 402 CURVE SMOOTH",
"294 396 OFFCURVE",
"350 332 OFFCURVE",
"417 332 CURVE SMOOTH",
"481 332 OFFCURVE",
"546 390 OFFCURVE",
"562 454 CURVE",
"516 456 LINE",
"501 403 OFFCURVE",
"454 371 OFFCURVE",
"399 379 CURVE SMOOTH",
"366 384 OFFCURVE",
"289 440 OFFCURVE",
"249 445 CURVE",
"211 452 OFFCURVE",
"168 442 OFFCURVE",
"129 417 CURVE SMOOTH",
"95 392 OFFCURVE",
"70 358 OFFCURVE",
"60 322 CURVE"
);
},
{
closed = 1;
nodes = (
"96 130 LINE",
"116 180 OFFCURVE",
"173 218 OFFCURVE",
"231 212 CURVE SMOOTH",
"285 206 OFFCURVE",
"341 142 OFFCURVE",
"408 142 CURVE SMOOTH",
"472 142 OFFCURVE",
"537 200 OFFCURVE",
"553 264 CURVE",
"507 266 LINE",
"491 213 OFFCURVE",
"444 181 OFFCURVE",
"389 189 CURVE SMOOTH",
"357 194 OFFCURVE",
"280 250 OFFCURVE",
"240 255 CURVE",
"201 262 OFFCURVE",
"158 252 OFFCURVE",
"119 227 CURVE SMOOTH",
"85 202 OFFCURVE",
"61 168 OFFCURVE",
"50 132 CURVE"
);
}
);
width = 601;
}
);
unicode = 2248;
},
{
color = 5;
glyphname = asciitilde;
layers = (
{
layerId = "4BC9CD2E-8AD0-40CC-97AA-8C7B556514B0";
paths = (
{
closed = 1;
nodes = (
"551 180 OFFCURVE",
"599 260 OFFCURVE",
"612 363 CURVE",
"496 369 LINE",
"489 317 OFFCURVE",
"452 289 OFFCURVE",
"414 289 CURVE SMOOTH",
"356 289 OFFCURVE",
"377 373 OFFCURVE",
"234 373 CURVE SMOOTH",
"111 373 OFFCURVE",
"56 305 OFFCURVE",
"42 190 CURVE",
"159 184 LINE",
"165 235 OFFCURVE",
"201 257 OFFCURVE",
"240 257 CURVE",
"297 257 OFFCURVE",
"280 176 OFFCURVE",
"423 178 CURVE SMOOTH"
);
}
);
width = 646;
},
{
layerId = "3C8330F3-4770-4812-9C95-859F387513C1";
paths = (
{
closed = 1;
nodes = (
"533 202 OFFCURVE",
"580 285 OFFCURVE",
"589 353 CURVE",
"533 355 LINE",
"525 294 OFFCURVE",
"492 256 OFFCURVE",
"431 256 CURVE SMOOTH",
"365 256 OFFCURVE",
"307 345 OFFCURVE",
"215 345 CURVE SMOOTH",
"113 345 OFFCURVE",
"52 275 OFFCURVE",
"41 188 CURVE",
"97 186 LINE",
"105 252 OFFCURVE",
"151 291 OFFCURVE",
"208 291 CURVE SMOOTH",
"295 291 OFFCURVE",
"320 202 OFFCURVE",
"426 202 CURVE SMOOTH"
);
}
);
width = 625;
}
);
unicode = 007E;
},
{
color = 5;
glyphname = logicalnot;
layers = (
{
layerId = "4BC9CD2E-8AD0-40CC-97AA-8C7B556514B0";
paths = (
{
closed = 1;
nodes = (
"488 320 LINE",
"60 320 LINE",
"47 219 LINE",
"369 219 LINE",
"353 90 LINE",
"459 90 LINE"
);
}
);
width = 531;
},
{
layerId = "3C8330F3-4770-4812-9C95-859F387513C1";
paths = (
{
closed = 1;
nodes = (
"488 320 LINE",
"60 320 LINE",
"54 271 LINE",
"438 271 LINE",
"414 81 LINE",
"458 81 LINE"
);
}
);
width = 532;
}
);
unicode = 00AC;
},
{
color = 5;
glyphname = asciicircum;
layers = (
{
layerId = "4BC9CD2E-8AD0-40CC-97AA-8C7B556514B0";
paths = (
{
closed = 1;
nodes = (
"389 700 LINE",
"287 700 LINE",
"67 370 LINE",
"201 370 LINE",
"326 565 LINE",
"400 370 LINE",
"531 370 LINE"
);
}
);
width = 564;
},
{
layerId = "3C8330F3-4770-4812-9C95-859F387513C1";
paths = (
{
closed = 1;
nodes = (
"334 700 LINE",
"278 700 LINE",
"67 370 LINE",
"125 370 LINE",
"302 654 LINE",
"408 370 LINE",
"464 370 LINE"
);
}
);
width = 497;
}
);
unicode = 005E;
},
{
color = 5;
glyphname = emptyset;
layers = (
{
layerId = "4BC9CD2E-8AD0-40CC-97AA-8C7B556514B0";
paths = (
{
closed = 1;
nodes = (
"497 38 OFFCURVE",
"645 170 OFFCURVE",
"665 334 CURVE SMOOTH",
"686 503 OFFCURVE",
"565 641 OFFCURVE",
"396 641 CURVE SMOOTH",
"232 641 OFFCURVE",
"84 509 OFFCURVE",
"64 346 CURVE SMOOTH",
"43 176 OFFCURVE",
"164 38 OFFCURVE",
"332 38 CURVE SMOOTH"
);
},
{
closed = 1;
nodes = (
"235 151 OFFCURVE",
"163 233 OFFCURVE",
"175 334 CURVE SMOOTH",
"188 440 OFFCURVE",
"287 528 OFFCURVE",
"392 528 CURVE SMOOTH",
"494 528 OFFCURVE",
"566 446 OFFCURVE",
"554 346 CURVE SMOOTH",
"541 239 OFFCURVE",
"442 151 OFFCURVE",
"336 151 CURVE SMOOTH"
);
},
{
closed = 1;
nodes = (
"33 113 LINE",
"103 35 LINE",
"694 567 LINE",
"624 645 LINE"
);
}
);
width = 703;
},
{
layerId = "3C8330F3-4770-4812-9C95-859F387513C1";
paths = (
{
closed = 1;
nodes = (
"495 38 OFFCURVE",
"645 172 OFFCURVE",
"666 337 CURVE SMOOTH",
"686 505 OFFCURVE",
"567 641 OFFCURVE",
"399 641 CURVE SMOOTH",
"234 641 OFFCURVE",
"84 507 OFFCURVE",
"63 343 CURVE SMOOTH",
"43 174 OFFCURVE",
"162 38 OFFCURVE",
"329 38 CURVE SMOOTH"
);
},
{
closed = 1;
nodes = (
"194 88 OFFCURVE",
"96 200 OFFCURVE",
"113 337 CURVE SMOOTH",
"130 477 OFFCURVE",
"258 591 OFFCURVE",
"397 591 CURVE SMOOTH",
"535 591 OFFCURVE",
"633 479 OFFCURVE",
"616 343 CURVE SMOOTH",
"599 202 OFFCURVE",
"471 88 OFFCURVE",
"331 88 CURVE SMOOTH"
);
},
{
closed = 1;
nodes = (
"53 92 LINE",
"85 57 LINE",
"675 588 LINE",
"642 623 LINE"
);
}
);
width = 704;
}
);
unicode = 2205;
},
{
color = 5;
glyphname = infinity;
layers = (
{
layerId = "4BC9CD2E-8AD0-40CC-97AA-8C7B556514B0";
paths = (
{
closed = 1;
nodes = (
"795 114 OFFCURVE",
"808 218 CURVE SMOOTH",
"822 328 OFFCURVE",
"741 420 OFFCURVE",
"623 420 CURVE SMOOTH",
"558 420 OFFCURVE",
"493 388 OFFCURVE",
"437 335 CURVE",
"399 384 OFFCURVE",
"339 420 OFFCURVE",
"270 420 CURVE SMOOTH",
"159 420 OFFCURVE",
"60 336 OFFCURVE",
"47 230 CURVE SMOOTH",
"33 122 OFFCURVE",
"115 29 OFFCURVE",
"232 29 CURVE SMOOTH",
"290 29 OFFCURVE",
"363 60 OFFCURVE",
"417 114 CURVE",
"458 65 OFFCURVE",
"517 29 OFFCURVE",
"585 29 CURVE SMOOTH",
"693 29 OFFCURVE"
);
},
{
closed = 1;
nodes = (
"702 280 OFFCURVE",
"696 230 CURVE SMOOTH",
"689 177 OFFCURVE",
"638 138 OFFCURVE",
"588 138 CURVE SMOOTH",
"540 138 OFFCURVE",
"479 178 OFFCURVE",
"484 218 CURVE SMOOTH",
"490 264 OFFCURVE",
"561 310 OFFCURVE",
"619 310 CURVE SMOOTH",
"663 310 OFFCURVE"
);
},
{
closed = 1;
nodes = (
"376 272 OFFCURVE",
"371 230 CURVE SMOOTH",
"365 184 OFFCURVE",
"294 138 OFFCURVE",
"235 138 CURVE SMOOTH",
"194 138 OFFCURVE",
"153 171 OFFCURVE",
"159 218 CURVE SMOOTH",
"165 270 OFFCURVE",
"215 310 OFFCURVE",
"266 310 CURVE SMOOTH",
"318 310 OFFCURVE"
);
}
);
width = 863;
},
{
layerId = "3C8330F3-4770-4812-9C95-859F387513C1";
paths = (
{
closed = 1;
nodes = (
"805 124 OFFCURVE",
"817 221 CURVE SMOOTH",
"830 322 OFFCURVE",
"769 420 OFFCURVE",
"652 420 CURVE SMOOTH",
"586 420 OFFCURVE",
"482 384 OFFCURVE",
"440 300 CURVE",
"421 382 OFFCURVE",
"325 420 OFFCURVE",
"257 420 CURVE SMOOTH",
"145 420 OFFCURVE",
"59 325 OFFCURVE",
"47 227 CURVE SMOOTH",
"35 129 OFFCURVE",
"99 29 OFFCURVE",
"213 29 CURVE SMOOTH",
"279 29 OFFCURVE",
"382 67 OFFCURVE",
"423 147 CURVE",
"444 69 OFFCURVE",
"540 29 OFFCURVE",
"608 29 CURVE SMOOTH",
"723 29 OFFCURVE"
);
},
{
closed = 1;
nodes = (
"787 313 OFFCURVE",
"776 227 CURVE SMOOTH",
"766 140 OFFCURVE",
"691 70 OFFCURVE",
"609 70 CURVE SMOOTH",
"524 70 OFFCURVE",
"443 140 OFFCURVE",
"453 221 CURVE SMOOTH",
"464 307 OFFCURVE",
"562 378 OFFCURVE",
"651 378 CURVE SMOOTH",
"730 378 OFFCURVE"
);
},
{
closed = 1;
nodes = (
"421 309 OFFCURVE",
"411 227 CURVE SMOOTH",
"401 145 OFFCURVE",
"307 70 OFFCURVE",
"214 70 CURVE SMOOTH",
"136 70 OFFCURVE",
"78 136 OFFCURVE",
"88 221 CURVE SMOOTH",
"99 308 OFFCURVE",
"173 378 OFFCURVE",
"256 378 CURVE SMOOTH",
"345 378 OFFCURVE"
);
}
);
width = 871;
}
);
unicode = 221E;
},
{
color = 5;
glyphname = integral;
layers = (
{
layerId = "4BC9CD2E-8AD0-40CC-97AA-8C7B556514B0";
paths = (
{
closed = 1;
nodes = (
"578 707 LINE",
"479 707 LINE SMOOTH",
"349 707 OFFCURVE",
"302 533 OFFCURVE",
"238 311 CURVE SMOOTH",
"201 170 OFFCURVE",
"145 -38 OFFCURVE",
"98 -38 CURVE SMOOTH",
"10 -38 LINE",
"-5 -158 LINE",
"94 -158 LINE SMOOTH",
"222 -158 OFFCURVE",
"275 7 OFFCURVE",
"330 199 CURVE SMOOTH",
"425 529 OFFCURVE",
"445 587 OFFCURVE",
"475 587 CURVE SMOOTH",
"563 587 LINE"
);
}
);
width = 566;
},
{
layerId = "3C8330F3-4770-4812-9C95-859F387513C1";
paths = (
{
closed = 1;
nodes = (
"577 707 LINE",
"506 707 LINE SMOOTH",
"380 707 OFFCURVE",
"338 519 OFFCURVE",
"272 304 CURVE SMOOTH",
"199 63 OFFCURVE",
"154 -113 OFFCURVE",
"61 -113 CURVE SMOOTH",
"-1 -113 LINE",
"-6 -158 LINE",
"65 -158 LINE SMOOTH",
"194 -158 OFFCURVE",
"237 32 OFFCURVE",
"323 301 CURVE SMOOTH",
"390 516 OFFCURVE",
"422 662 OFFCURVE",
"510 662 CURVE SMOOTH",
"572 662 LINE"
);
}
);
width = 564;
}
);
unicode = 222B;
},
{
color = 5;
glyphname = product;
layers = (
{
layerId = "4BC9CD2E-8AD0-40CC-97AA-8C7B556514B0";
paths = (
{
closed = 1;
nodes = (
"608 700 LINE",
"113 700 LINE",
"101 600 LINE",
"199 600 LINE",
"113 -101 LINE",
"220 -101 LINE",
"306 600 LINE",
"401 600 LINE",
"315 -101 LINE",
"423 -101 LINE",
"509 600 LINE",
"596 600 LINE"
);
}
);
width = 597;
},
{
layerId = "3C8330F3-4770-4812-9C95-859F387513C1";
paths = (
{
closed = 1;
nodes = (
"608 700 LINE",
"113 700 LINE",
"107 652 LINE",
"220 652 LINE",
"128 -101 LINE",
"174 -101 LINE",
"266 652 LINE",
"455 652 LINE",
"363 -101 LINE",
"409 -101 LINE",
"501 652 LINE",
"602 652 LINE"
);
}
);
width = 596;
}
);
unicode = 220F;
},
{
color = 5;
glyphname = summation;
layers = (
{
guideLines = (
{
angle = 57.1715;
position = "{290, 162}";
},
{
angle = -57.1715;
position = "{359, 441}";
}
);
layerId = "4BC9CD2E-8AD0-40CC-97AA-8C7B556514B0";
paths = (
{
closed = 1;
nodes = (
"500 12 LINE",
"188 12 LINE",
"408 301 LINE",
"257 590 LINE",
"571 590 LINE",
"584 700 LINE",
"113 700 LINE",
"102 602 LINE",
"276 301 LINE",
"26 0 LINE",
"15 -98 LINE",
"486 -98 LINE"
);
}
);
width = 585;
},
{
layerId = "3C8330F3-4770-4812-9C95-859F387513C1";
paths = (
{
closed = 1;
nodes = (
"491 -58 LINE",
"72 -58 LINE",
"366 297 LINE",
"158 652 LINE",
"578 652 LINE",
"584 700 LINE",
"113 700 LINE",
"107 646 LINE",
"309 297 LINE",
"21 -52 LINE",
"14 -106 LINE",
"485 -106 LINE"
);
}
);
width = 585;
}
);
unicode = 2211;
},
{
color = 5;
glyphname = radical;
layers = (
{
layerId = "4BC9CD2E-8AD0-40CC-97AA-8C7B556514B0";
paths = (
{
closed = 1;
nodes = (
"664 700 LINE",
"409 700 LINE",
"200 17 LINE",
"162 211 LINE",
"45 211 LINE",
"121 -145 LINE",
"262 -145 LINE",
"496 585 LINE",
"650 585 LINE"
);
}
);
width = 653;
},
{
layerId = "3C8330F3-4770-4812-9C95-859F387513C1";
paths = (
{
closed = 1;
nodes = (
"614 700 LINE",
"400 700 LINE",
"136 -97 LINE",
"89 152 LINE",
"36 152 LINE",
"95 -151 LINE",
"170 -151 LINE",
"436 656 LINE",
"609 656 LINE"
);
}
);
width = 602;
}
);
unicode = 221A;
},
{
color = 5;
glyphname = partialdiff;
layers = (
{
layerId = "4BC9CD2E-8AD0-40CC-97AA-8C7B556514B0";
paths = (
{
closed = 1;
nodes = (
"357 -17 OFFCURVE",
"493 71 OFFCURVE",
"526 203 CURVE SMOOTH",
"567 368 OFFCURVE",
"491 520 OFFCURVE",
"398 697 CURVE",
"268 703 LINE",
"267 702 OFFCURVE",
"336 618 OFFCURVE",
"384 459 CURVE",
"259 517 OFFCURVE",
"91 426 OFFCURVE",
"54 274 CURVE SMOOTH",
"24 145 OFFCURVE",
"100 14 OFFCURVE",
"233 -1 CURVE SMOOTH"
);
},
{
closed = 1;
nodes = (
"196 132 OFFCURVE",
"158 185 OFFCURVE",
"174 248 CURVE SMOOTH",
"189 309 OFFCURVE",
"249 355 OFFCURVE",
"318 354 CURVE SMOOTH",
"388 353 OFFCURVE",
"422 291 OFFCURVE",
"406 231 CURVE",
"394 169 OFFCURVE",
"329 112 OFFCURVE",
"252 122 CURVE SMOOTH"
);
}
);
width = 585;
},
{
layerId = "3C8330F3-4770-4812-9C95-859F387513C1";
paths = (
{
closed = 1;
nodes = (
"350 -18 OFFCURVE",
"482 65 OFFCURVE",
"514 191 CURVE SMOOTH",
"558 368 OFFCURVE",
"472 523 OFFCURVE",
"369 699 CURVE",
"310 701 LINE",
"385 585 OFFCURVE",
"430 490 OFFCURVE",
"464 381 CURVE",
"362 519 OFFCURVE",
"100 444 OFFCURVE",
"52 255 CURVE SMOOTH",
"21 125 OFFCURVE",
"104 13 OFFCURVE",
"231 -3 CURVE SMOOTH"
);
},
{
closed = 1;
nodes = (
"140 59 OFFCURVE",
"79 147 OFFCURVE",
"103 242 CURVE SMOOTH",
"127 338 OFFCURVE",
"223 409 OFFCURVE",
"326 397 CURVE SMOOTH",
"420 386 OFFCURVE",
"484 303 OFFCURVE",
"460 203 CURVE SMOOTH",
"436 104 OFFCURVE",
"331 36 OFFCURVE",
"236 47 CURVE SMOOTH"
);
}
);
width = 575;
}
);
unicode = 2202;
},
{
color = 5;
glyphname = percent;
layers = (
{
layerId = "4BC9CD2E-8AD0-40CC-97AA-8C7B556514B0";
paths = (
{
closed = 1;
nodes = (
"333 -1 LINE",
"731 701 LINE",
"611 701 LINE",
"212 -1 LINE"
);
},
{
closed = 1;
nodes = (
"338 358 OFFCURVE",
"424 427 OFFCURVE",
"436 524 CURVE SMOOTH",
"448 625 OFFCURVE",
"379 703 OFFCURVE",
"280 703 CURVE SMOOTH",
"187 703 OFFCURVE",
"102 635 OFFCURVE",
"90 536 CURVE SMOOTH",
"78 436 OFFCURVE",
"149 358 OFFCURVE",
"248 358 CURVE SMOOTH"
);
},
{
closed = 1;
nodes = (
"212 462 OFFCURVE",
"189 488 OFFCURVE",
"194 524 CURVE SMOOTH",
"199 566 OFFCURVE",
"234 598 OFFCURVE",
"278 598 CURVE SMOOTH",
"312 598 OFFCURVE",
"338 572 OFFCURVE",
"333 536 CURVE SMOOTH",
"328 494 OFFCURVE",
"290 462 OFFCURVE",
"251 462 CURVE SMOOTH"
);
},
{
closed = 1;
nodes = (
"754 -3 OFFCURVE",
"841 67 OFFCURVE",
"852 163 CURVE SMOOTH",
"865 264 OFFCURVE",
"796 342 OFFCURVE",
"695 342 CURVE SMOOTH",
"599 342 OFFCURVE",
"518 270 OFFCURVE",
"507 175 CURVE SMOOTH",
"495 77 OFFCURVE",
"565 -3 OFFCURVE",
"663 -3 CURVE SMOOTH"
);
},
{
closed = 1;
nodes = (
"629 102 OFFCURVE",
"605 129 OFFCURVE",
"609 163 CURVE SMOOTH",
"614 205 OFFCURVE",
"651 238 OFFCURVE",
"693 238 CURVE SMOOTH",
"729 238 OFFCURVE",
"753 212 OFFCURVE",
"749 175 CURVE SMOOTH",
"744 135 OFFCURVE",
"707 102 OFFCURVE",
"666 102 CURVE SMOOTH"
);
}
);
width = 914;
},
{
layerId = "3C8330F3-4770-4812-9C95-859F387513C1";
paths = (
{
closed = 1;
nodes = (
"242 -1 LINE",
"636 701 LINE",
"578 701 LINE",
"184 -1 LINE"
);
},
{
closed = 1;
nodes = (
"289 426 OFFCURVE",
"357 481 OFFCURVE",
"367 560 CURVE SMOOTH",
"377 640 OFFCURVE",
"324 701 OFFCURVE",
"246 701 CURVE SMOOTH",
"169 701 OFFCURVE",
"103 641 OFFCURVE",
"94 566 CURVE SMOOTH",
"85 492 OFFCURVE",
"137 426 OFFCURVE",
"217 426 CURVE SMOOTH"
);
},
{
closed = 1;
nodes = (
"169 472 OFFCURVE",
"133 512 OFFCURVE",
"139 560 CURVE SMOOTH",
"146 615 OFFCURVE",
"191 655 OFFCURVE",
"245 655 CURVE SMOOTH",
"294 655 OFFCURVE",
"328 615 OFFCURVE",
"322 566 CURVE SMOOTH",
"316 517 OFFCURVE",
"272 472 OFFCURVE",
"218 472 CURVE SMOOTH"
);
},
{
closed = 1;
nodes = (
"667 -4 OFFCURVE",
"736 51 OFFCURVE",
"745 130 CURVE SMOOTH",
"755 210 OFFCURVE",
"703 271 OFFCURVE",
"625 271 CURVE SMOOTH",
"548 271 OFFCURVE",
"481 211 OFFCURVE",
"472 136 CURVE SMOOTH",
"463 62 OFFCURVE",
"515 -4 OFFCURVE",
"595 -4 CURVE SMOOTH"
);
},
{
closed = 1;
nodes = (
"547 42 OFFCURVE",
"511 82 OFFCURVE",
"517 130 CURVE SMOOTH",
"524 185 OFFCURVE",
"569 225 OFFCURVE",
"623 225 CURVE SMOOTH",
"672 225 OFFCURVE",
"706 185 OFFCURVE",
"700 136 CURVE SMOOTH",
"694 87 OFFCURVE",
"650 42 OFFCURVE",
"596 42 CURVE SMOOTH"
);
}
);
width = 812;
}
);
unicode = 0025;
},
{
color = 5;
glyphname = perthousand;
layers = (
{
layerId = "4BC9CD2E-8AD0-40CC-97AA-8C7B556514B0";
paths = (
{
closed = 1;
nodes = (
"358 -1 LINE",
"761 701 LINE",
"638 701 LINE",
"234 -1 LINE"
);
},
{
closed = 1;
nodes = (
"342 358 OFFCURVE",
"430 427 OFFCURVE",
"442 524 CURVE SMOOTH",
"454 622 OFFCURVE",
"388 703 OFFCURVE",
"282 703 CURVE SMOOTH",
"184 703 OFFCURVE",
"102 633 OFFCURVE",
"90 536 CURVE SMOOTH",
"78 438 OFFCURVE",
"146 358 OFFCURVE",
"250 358 CURVE SMOOTH"
);
},
{
closed = 1;
nodes = (
"214 462 OFFCURVE",
"190 490 OFFCURVE",
"195 524 CURVE SMOOTH",
"200 566 OFFCURVE",
"236 598 OFFCURVE",
"280 598 CURVE SMOOTH",
"316 598 OFFCURVE",
"342 572 OFFCURVE",
"337 536 CURVE SMOOTH",
"332 496 OFFCURVE",
"294 462 OFFCURVE",
"253 462 CURVE SMOOTH"
);
},
{
closed = 1;
nodes = (
"804 -3 OFFCURVE",
"890 70 OFFCURVE",
"901 163 CURVE SMOOTH",
"913 261 OFFCURVE",
"846 342 OFFCURVE",
"741 342 CURVE SMOOTH",
"645 342 OFFCURVE",
"560 270 OFFCURVE",
"549 175 CURVE SMOOTH",
"537 77 OFFCURVE",
"611 -3 OFFCURVE",
"709 -3 CURVE SMOOTH"
);
},
{
closed = 1;
nodes = (
"675 102 OFFCURVE",
"651 129 OFFCURVE",
"655 163 CURVE SMOOTH",
"660 205 OFFCURVE",
"697 238 OFFCURVE",
"739 238 CURVE SMOOTH",
"775 238 OFFCURVE",
"800 212 OFFCURVE",
"796 175 CURVE SMOOTH",
"791 135 OFFCURVE",
"754 102 OFFCURVE",
"712 102 CURVE SMOOTH"
);
},
{
closed = 1;
nodes = (
"1215 -3 OFFCURVE",
"1302 66 OFFCURVE",
"1314 163 CURVE SMOOTH",
"1326 262 OFFCURVE",
"1261 342 OFFCURVE",
"1155 342 CURVE SMOOTH",
"1057 342 OFFCURVE",
"975 271 OFFCURVE",
"963 175 CURVE SMOOTH",
"951 77 OFFCURVE",
"1019 -3 OFFCURVE",
"1123 -3 CURVE SMOOTH"
);
},
{
closed = 1;
nodes = (
"1087 102 OFFCURVE",
"1063 129 OFFCURVE",
"1067 163 CURVE SMOOTH",
"1072 205 OFFCURVE",
"1109 238 OFFCURVE",
"1153 238 CURVE SMOOTH",
"1189 238 OFFCURVE",
"1214 212 OFFCURVE",
"1210 175 CURVE SMOOTH",
"1205 135 OFFCURVE",
"1167 102 OFFCURVE",
"1126 102 CURVE SMOOTH"
);
}
);
width = 1376;
},
{
layerId = "3C8330F3-4770-4812-9C95-859F387513C1";
paths = (
{
closed = 1;
nodes = (
"262 -1 LINE",
"656 701 LINE",
"598 701 LINE",
"204 -1 LINE"
);
},
{
closed = 1;
nodes = (
"289 426 OFFCURVE",
"357 481 OFFCURVE",
"367 560 CURVE SMOOTH",
"377 640 OFFCURVE",
"324 701 OFFCURVE",
"246 701 CURVE SMOOTH",
"169 701 OFFCURVE",
"103 641 OFFCURVE",
"94 566 CURVE SMOOTH",
"85 492 OFFCURVE",
"137 426 OFFCURVE",
"217 426 CURVE SMOOTH"
);
},
{
closed = 1;
nodes = (
"169 472 OFFCURVE",
"133 512 OFFCURVE",
"139 560 CURVE SMOOTH",
"146 615 OFFCURVE",
"191 655 OFFCURVE",
"245 655 CURVE SMOOTH",
"294 655 OFFCURVE",
"328 615 OFFCURVE",
"322 566 CURVE SMOOTH",
"316 517 OFFCURVE",
"272 472 OFFCURVE",
"218 472 CURVE SMOOTH"
);
},
{
closed = 1;
nodes = (
"686 -4 OFFCURVE",
"755 51 OFFCURVE",
"764 130 CURVE SMOOTH",
"774 210 OFFCURVE",
"722 271 OFFCURVE",
"644 271 CURVE SMOOTH",
"567 271 OFFCURVE",
"500 211 OFFCURVE",
"491 136 CURVE SMOOTH",
"482 62 OFFCURVE",
"534 -4 OFFCURVE",
"614 -4 CURVE SMOOTH"
);
},
{
closed = 1;
nodes = (
"566 41 OFFCURVE",
"530 85 OFFCURVE",
"535 130 CURVE SMOOTH",
"542 186 OFFCURVE",
"587 226 OFFCURVE",
"642 226 CURVE SMOOTH",
"692 226 OFFCURVE",
"726 182 OFFCURVE",
"720 136 CURVE SMOOTH",
"714 85 OFFCURVE",
"664 41 OFFCURVE",
"615 41 CURVE SMOOTH"
);
},
{
closed = 1;
nodes = (
"1039 -4 OFFCURVE",
"1108 51 OFFCURVE",
"1117 130 CURVE SMOOTH",
"1127 210 OFFCURVE",
"1075 271 OFFCURVE",
"997 271 CURVE SMOOTH",
"920 271 OFFCURVE",
"853 211 OFFCURVE",
"844 136 CURVE SMOOTH",
"835 62 OFFCURVE",
"887 -4 OFFCURVE",
"967 -4 CURVE SMOOTH"
);
},
{
closed = 1;
nodes = (
"919 41 OFFCURVE",
"883 85 OFFCURVE",
"888 130 CURVE SMOOTH",
"895 186 OFFCURVE",
"940 226 OFFCURVE",
"995 226 CURVE SMOOTH",
"1045 226 OFFCURVE",
"1079 182 OFFCURVE",
"1073 136 CURVE SMOOTH",
"1067 85 OFFCURVE",
"1017 41 OFFCURVE",
"968 41 CURVE SMOOTH"
);
}
);
width = 1184;
}
);
unicode = 2030;
},
{
color = 5;
glyphname = lozenge;
layers = (
{
layerId = "4BC9CD2E-8AD0-40CC-97AA-8C7B556514B0";
paths = (
{
closed = 1;
nodes = (
"372 660 LINE",
"270 660 LINE",
"61 330 LINE",
"191 0 LINE",
"293 0 LINE",
"504 330 LINE"
);
},
{
closed = 1;
nodes = (
"258 139 LINE",
"191 330 LINE",
"308 521 LINE",
"374 330 LINE"
);
}
);
width = 543;
},
{
layerId = "3C8330F3-4770-4812-9C95-859F387513C1";
paths = (
{
closed = 1;
nodes = (
"351 660 LINE",
"283 660 LINE",
"61 330 LINE",
"203 0 LINE",
"271 0 LINE",
"494 330 LINE"
);
},
{
closed = 1;
nodes = (
"242 41 LINE",
"114 330 LINE",
"314 620 LINE",
"441 330 LINE"
);
}
);
width = 533;
}
);
unicode = 25CA;
},
{
color = 5;
glyphname = at;
layers = (
{
layerId = "4BC9CD2E-8AD0-40CC-97AA-8C7B556514B0";
paths = (
{
closed = 1;
nodes = (
"461 -1 LINE",
"276 -37 OFFCURVE",
"138 76 OFFCURVE",
"159 251 CURVE SMOOTH",
"179 413 OFFCURVE",
"326 550 OFFCURVE",
"486 550 CURVE SMOOTH",
"633 550 OFFCURVE",
"730 430 OFFCURVE",
"720 285 CURVE SMOOTH",
"712 193 OFFCURVE",
"681 100 OFFCURVE",
"602 100 CURVE",
"592 101 OFFCURVE",
"589 102 OFFCURVE",
"590 110 CURVE SMOOTH",
"618 343 LINE SMOOTH",
"629 431 OFFCURVE",
"567 484 OFFCURVE",
"477 484 CURVE SMOOTH",
"415 484 OFFCURVE",
"346 455 OFFCURVE",
"280 402 CURVE",
"333 339 LINE",
"366 371 OFFCURVE",
"426 395 OFFCURVE",
"466 395 CURVE SMOOTH",
"495 395 OFFCURVE",
"515 379 OFFCURVE",
"511 346 CURVE SMOOTH",
"506 325 LINE",
"364 325 OFFCURVE",
"263 298 OFFCURVE",
"249 188 CURVE SMOOTH",
"233 58 OFFCURVE",
"381 7 OFFCURVE",
"482 97 CURVE",
"479 27 OFFCURVE",
"534 -3 OFFCURVE",
"594 -3 CURVE SMOOTH",
"733 -3 OFFCURVE",
"806 121 OFFCURVE",
"821 283 CURVE SMOOTH",
"842 493 OFFCURVE",
"699 660 OFFCURVE",
"495 660 CURVE SMOOTH",
"279 660 OFFCURVE",
"78 481 OFFCURVE",
"52 267 CURVE SMOOTH",
"22 26 OFFCURVE",
"201 -142 OFFCURVE",
"453 -108 CURVE"
);
},
{
closed = 1;
nodes = (
"358 147 OFFCURVE",
"342 154 OFFCURVE",
"345 177 CURVE SMOOTH",
"351 228 OFFCURVE",
"441 247 OFFCURVE",
"502 247 CURVE",
"490 185 LINE",
"466 168 OFFCURVE",
"417 147 OFFCURVE",
"379 147 CURVE SMOOTH"
);
}
);
width = 867;
},
{
layerId = "3C8330F3-4770-4812-9C95-859F387513C1";
paths = (
{
closed = 1;
nodes = (
"436 -72 LINE",
"213 -84 OFFCURVE",
"76 35 OFFCURVE",
"101 245 CURVE SMOOTH",
"126 442 OFFCURVE",
"303 607 OFFCURVE",
"505 607 CURVE SMOOTH",
"680 607 OFFCURVE",
"807 470 OFFCURVE",
"790 283 CURVE SMOOTH",
"779 163 OFFCURVE",
"744 81 OFFCURVE",
"696 49 CURVE SMOOTH",
"639 9 OFFCURVE",
"575 21 OFFCURVE",
"582 82 CURVE SMOOTH",
"615 344 LINE SMOOTH",
"624 419 OFFCURVE",
"570 464 OFFCURVE",
"491 464 CURVE SMOOTH",
"429 464 OFFCURVE",
"358 435 OFFCURVE",
"309 394 CURVE",
"337 357 LINE",
"379 386 OFFCURVE",
"441 413 OFFCURVE",
"493 413 CURVE SMOOTH",
"546 413 OFFCURVE",
"569 388 OFFCURVE",
"563 342 CURVE SMOOTH",
"557 301 LINE",
"424 301 OFFCURVE",
"285 280 OFFCURVE",
"271 165 CURVE SMOOTH",
"254 32 OFFCURVE",
"400 19 OFFCURVE",
"536 113 CURVE",
"524 21 OFFCURVE",
"546 -25 OFFCURVE",
"629 -25 CURVE SMOOTH",
"749 -25 OFFCURVE",
"821 83 OFFCURVE",
"840 276 CURVE SMOOTH",
"861 495 OFFCURVE",
"713 660 OFFCURVE",
"507 660 CURVE SMOOTH",
"290 660 OFFCURVE",
"78 478 OFFCURVE",
"51 256 CURVE SMOOTH",
"20 8 OFFCURVE",
"187 -145 OFFCURVE",
"432 -123 CURVE"
);
},
{
closed = 1;
nodes = (
"362 91 OFFCURVE",
"312 95 OFFCURVE",
"320 159 CURVE SMOOTH",
"328 226 OFFCURVE",
"402 255 OFFCURVE",
"555 256 CURVE",
"542 164 LINE",
"506 141 OFFCURVE",
"466 122 OFFCURVE",
"431 113 CURVE SMOOTH"
);
}
);
width = 887;
}
);
unicode = 0040;
},
{
color = 5;
glyphname = ampersand;
layers = (
{
layerId = "4BC9CD2E-8AD0-40CC-97AA-8C7B556514B0";
paths = (
{
closed = 1;
nodes = (
"663 0 LINE",
"546 147 LINE",
"591 210 OFFCURVE",
"602 282 OFFCURVE",
"613 385 CURVE",
"507 391 LINE",
"504 323 OFFCURVE",
"492 277 OFFCURVE",
"479 240 CURVE",
"281 506 LINE",
"260 542 OFFCURVE",
"307 602 OFFCURVE",
"353 603 CURVE SMOOTH",
"397 604 OFFCURVE",
"416 591 OFFCURVE",
"427 538 CURVE",
"537 570 LINE",
"513 664 OFFCURVE",
"467 712 OFFCURVE",
"357 712 CURVE SMOOTH",
"225 712 OFFCURVE",
"119 567 OFFCURVE",
"178 454 CURVE",
"202 412 LINE",
"-144 215 OFFCURVE",
"136 -164 OFFCURVE",
"465 66 CURVE",
"519 0 LINE"
);
},
{
closed = 1;
nodes = (
"200 30 OFFCURVE",
"69 203 OFFCURVE",
"257 337 CURVE",
"400 149 LINE"
);
}
);
width = 748;
},
{
layerId = "3C8330F3-4770-4812-9C95-859F387513C1";
paths = (
{
closed = 1;
nodes = (
"619 0 LINE",
"515 131 LINE",
"572 203 OFFCURVE",
"582 263 OFFCURVE",
"593 357 CURVE",
"543 359 LINE",
"531 259 OFFCURVE",
"522 225 OFFCURVE",
"487 174 CURVE",
"243 493 LINE",
"186 566 OFFCURVE",
"250 655 OFFCURVE",
"343 662 CURVE",
"409 664 OFFCURVE",
"443 637 OFFCURVE",
"458 582 CURVE",
"503 598 LINE",
"483 674 OFFCURVE",
"436 712 OFFCURVE",
"346 712 CURVE SMOOTH",
"206 712 OFFCURVE",
"122 568 OFFCURVE",
"187 478 CURVE",
"231 413 LINE",
"-169 229 OFFCURVE",
"139 -198 OFFCURVE",
"477 92 CURVE",
"554 0 LINE"
);
},
{
closed = 1;
nodes = (
"172 -108 OFFCURVE",
"-82 229 OFFCURVE",
"263 374 CURVE",
"448 130 LINE"
);
}
);
width = 704;
}
);
unicode = 0026;
},
{
color = 5;
glyphname = paragraph;
layers = (
{
layerId = "4BC9CD2E-8AD0-40CC-97AA-8C7B556514B0";
paths = (
{
closed = 1;
nodes = (
"346 -56 LINE",
"439 700 LINE",
"268 700 LINE SMOOTH",
"181 700 OFFCURVE",
"102 622 OFFCURVE",
"91 539 CURVE SMOOTH",
"80 449 OFFCURVE",
"140 369 OFFCURVE",
"235 369 CURVE SMOOTH",
"254 369 OFFCURVE",
"275 372 OFFCURVE",
"295 381 CURVE",
"239 -56 LINE"
);
},
{
closed = 1;
nodes = (
"524 -56 LINE",
"617 700 LINE",
"512 700 LINE",
"419 -56 LINE"
);
}
);
width = 617;
},
{
layerId = "3C8330F3-4770-4812-9C95-859F387513C1";
paths = (
{
closed = 1;
nodes = (
"295 -56 LINE",
"388 700 LINE",
"256 700 LINE SMOOTH",
"177 700 OFFCURVE",
"104 637 OFFCURVE",
"94 562 CURVE SMOOTH",
"84 481 OFFCURVE",
"147 420 OFFCURVE",
"225 420 CURVE SMOOTH",
"252 420 OFFCURVE",
"279 429 OFFCURVE",
"309 444 CURVE",
"246 -56 LINE"
);
},
{
closed = 1;
nodes = (
"391 -56 LINE",
"484 700 LINE",
"435 700 LINE",
"342 -56 LINE"
);
}
);
width = 484;
}
);
unicode = 00B6;
},
{
color = 5;
glyphname = section;
layers = (
{
layerId = "4BC9CD2E-8AD0-40CC-97AA-8C7B556514B0";
paths = (
{
closed = 1;
nodes = (
"296 -13 OFFCURVE",
"374 58 OFFCURVE",
"386 150 CURVE SMOOTH",
"391 192 OFFCURVE",
"378 230 OFFCURVE",
"351 245 CURVE",
"388 262 OFFCURVE",
"410 308 OFFCURVE",
"415 346 CURVE SMOOTH",
"422 402 OFFCURVE",
"393 456 OFFCURVE",
"339 480 CURVE",
"304 504 OFFCURVE",
"274 502 OFFCURVE",
"244 510 CURVE",
"176 531 OFFCURVE",
"211 608 OFFCURVE",
"283 599 CURVE SMOOTH",
"306 594 OFFCURVE",
"334 584 OFFCURVE",
"365 551 CURVE",
"450 628 LINE",
"404 679 OFFCURVE",
"346 711 OFFCURVE",
"279 711 CURVE SMOOTH",
"185 711 OFFCURVE",
"105 641 OFFCURVE",
"94 552 CURVE SMOOTH",
"88 506 OFFCURVE",
"113 473 OFFCURVE",
"130 454 CURVE",
"97 428 OFFCURVE",
"69 390 OFFCURVE",
"64 352 CURVE SMOOTH",
"58 295 OFFCURVE",
"91 240 OFFCURVE",
"141 218 CURVE",
"194 184 OFFCURVE",
"279 199 OFFCURVE",
"272 148 CURVE SMOOTH",
"269 123 OFFCURVE",
"242 99 OFFCURVE",
"209 99 CURVE SMOOTH",
"180 99 OFFCURVE",
"143 117 OFFCURVE",
"114 147 CURVE",
"30 70 LINE",
"73 20 OFFCURVE",
"135 -13 OFFCURVE",
"201 -13 CURVE SMOOTH"
);
},
{
closed = 1;
nodes = (
"203 295 OFFCURVE",
"161 311 OFFCURVE",
"165 348 CURVE SMOOTH",
"167 367 OFFCURVE",
"186 394 OFFCURVE",
"227 394 CURVE SMOOTH",
"287 394 OFFCURVE",
"315 369 OFFCURVE",
"318 350 CURVE",
"325 314 OFFCURVE",
"282 295 OFFCURVE",
"242 295 CURVE"
);
}
);
width = 452;
},
{
layerId = "3C8330F3-4770-4812-9C95-859F387513C1";
paths = (
{
closed = 1;
nodes = (
"274 -5 OFFCURVE",
"358 53 OFFCURVE",
"367 131 CURVE SMOOTH",
"373 179 OFFCURVE",
"350 208 OFFCURVE",
"315 240 CURVE",
"368 271 OFFCURVE",
"394 306 OFFCURVE",
"399 349 CURVE SMOOTH",
"408 422 OFFCURVE",
"345 463 OFFCURVE",
"258 478 CURVE SMOOTH",
"210 485 OFFCURVE",
"141 515 OFFCURVE",
"146 560 CURVE SMOOTH",
"154 622 OFFCURVE",
"207 657 OFFCURVE",
"280 657 CURVE SMOOTH",
"311 657 OFFCURVE",
"344 647 OFFCURVE",
"376 622 CURVE",
"416 654 LINE",
"377 683 OFFCURVE",
"321 703 OFFCURVE",
"274 703 CURVE SMOOTH",
"190 703 OFFCURVE",
"106 645 OFFCURVE",
"96 567 CURVE SMOOTH",
"90 519 OFFCURVE",
"113 490 OFFCURVE",
"148 458 CURVE",
"87 428 OFFCURVE",
"69 392 OFFCURVE",
"64 349 CURVE SMOOTH",
"55 276 OFFCURVE",
"118 235 OFFCURVE",
"205 220 CURVE SMOOTH",
"254 212 OFFCURVE",
"326 183 OFFCURVE",
"320 138 CURVE SMOOTH",
"313 76 OFFCURVE",
"256 41 OFFCURVE",
"183 41 CURVE SMOOTH",
"152 41 OFFCURVE",
"119 52 OFFCURVE",
"86 77 CURVE",
"47 44 LINE",
"86 15 OFFCURVE",
"143 -5 OFFCURVE",
"190 -5 CURVE SMOOTH"
);
},
{
closed = 1;
nodes = (
"165 264 OFFCURVE",
"101 292 OFFCURVE",
"109 357 CURVE SMOOTH",
"115 404 OFFCURVE",
"172 438 OFFCURVE",
"220 438 CURVE SMOOTH",
"294 438 OFFCURVE",
"366 404 OFFCURVE",
"358 344 CURVE SMOOTH",
"353 298 OFFCURVE",
"302 264 OFFCURVE",
"229 264 CURVE SMOOTH"
);
}
);
width = 435;
}
);
unicode = 00A7;
},
{
color = 5;
glyphname = copyright;
layers = (
{
layerId = "4BC9CD2E-8AD0-40CC-97AA-8C7B556514B0";
paths = (
{
closed = 1;
nodes = (
"41 160 OFFCURVE",
"176 -3 OFFCURVE",
"369 -3 CURVE SMOOTH",
"566 -3 OFFCURVE",
"725 150 OFFCURVE",
"749 344 CURVE SMOOTH",
"773 542 OFFCURVE",
"639 703 OFFCURVE",
"445 703 CURVE SMOOTH",
"247 703 OFFCURVE",
"88 546 OFFCURVE",
"65 356 CURVE SMOOTH"
);
},
{
closed = 1;
nodes = (
"188 480 OFFCURVE",
"299 597 OFFCURVE",
"443 597 CURVE SMOOTH",
"568 597 OFFCURVE",
"658 490 OFFCURVE",
"642 356 CURVE SMOOTH",
"625 219 OFFCURVE",
"515 103 OFFCURVE",
"372 103 CURVE SMOOTH",
"243 103 OFFCURVE",
"156 214 OFFCURVE",
"172 344 CURVE SMOOTH"
);
},
{
closed = 1;
nodes = (
"198 169 OFFCURVE",
"387 82 OFFCURVE",
"532 208 CURVE",
"479 286 LINE",
"411 220 OFFCURVE",
"312 249 OFFCURVE",
"324 345 CURVE SMOOTH",
"336 444 OFFCURVE",
"443 488 OFFCURVE",
"497 420 CURVE",
"562 490 LINE",
"451 615 OFFCURVE",
"244 540 OFFCURVE",
"221 357 CURVE SMOOTH"
);
}
);
width = 786;
},
{
layerId = "3C8330F3-4770-4812-9C95-859F387513C1";
paths = (
{
closed = 1;
nodes = (
"40 156 OFFCURVE",
"173 -3 OFFCURVE",
"363 -3 CURVE SMOOTH",
"559 -3 OFFCURVE",
"719 150 OFFCURVE",
"743 344 CURVE SMOOTH",
"766 539 OFFCURVE",
"636 703 OFFCURVE",
"446 703 CURVE SMOOTH",
"253 703 OFFCURVE",
"88 543 OFFCURVE",
"64 350 CURVE SMOOTH"
);
},
{
closed = 1;
nodes = (
"137 512 OFFCURVE",
"271 658 OFFCURVE",
"444 658 CURVE SMOOTH",
"605 658 OFFCURVE",
"710 513 OFFCURVE",
"690 350 CURVE SMOOTH",
"670 184 OFFCURVE",
"537 42 OFFCURVE",
"364 42 CURVE SMOOTH",
"203 42 OFFCURVE",
"97 182 OFFCURVE",
"117 344 CURVE SMOOTH"
);
},
{
closed = 1;
nodes = (
"188 161 OFFCURVE",
"365 57 OFFCURVE",
"527 186 CURVE",
"504 222 LINE",
"381 118 OFFCURVE",
"235 191 OFFCURVE",
"253 341 CURVE SMOOTH",
"271 490 OFFCURVE",
"427 552 OFFCURVE",
"536 464 CURVE",
"564 495 LINE",
"433 613 OFFCURVE",
"233 529 OFFCURVE",
"211 347 CURVE SMOOTH"
);
}
);
width = 780;
}
);
unicode = 00A9;
},
{
color = 5;
glyphname = registered;
layers = (
{
layerId = "4BC9CD2E-8AD0-40CC-97AA-8C7B556514B0";
paths = (
{
closed = 1;
nodes = (
"351 322 OFFCURVE",
"440 408 OFFCURVE",
"452 505 CURVE SMOOTH",
"465 606 OFFCURVE",
"396 700 OFFCURVE",
"289 700 CURVE SMOOTH",
"189 700 OFFCURVE",
"100 615 OFFCURVE",
"88 517 CURVE SMOOTH",
"75 415 OFFCURVE",
"146 322 OFFCURVE",
"253 322 CURVE SMOOTH"
);
},
{
closed = 1;
nodes = (
"191 384 OFFCURVE",
"141 436 OFFCURVE",
"149 505 CURVE SMOOTH",
"158 572 OFFCURVE",
"217 637 OFFCURVE",
"292 637 CURVE SMOOTH",
"353 637 OFFCURVE",
"400 586 OFFCURVE",
"392 517 CURVE SMOOTH",
"383 445 OFFCURVE",
"317 384 OFFCURVE",
"250 384 CURVE SMOOTH"
);
},
{
closed = 1;
nodes = (
"245 426 LINE",
"253 483 LINE",
"253 483 LINE",
"284 426 LINE",
"334 426 LINE",
"306 492 LINE",
"323 502 OFFCURVE",
"332 518 OFFCURVE",
"334 532 CURVE SMOOTH",
"338 565 OFFCURVE",
"316 593 OFFCURVE",
"286 593 CURVE SMOOTH",
"217 593 LINE",
"197 426 LINE"
);
},
{
closed = 1;
nodes = (
"258 554 LINE",
"286 554 LINE",
"289 554 OFFCURVE",
"293 552 OFFCURVE",
"292 545 CURVE SMOOTH",
"290 528 OFFCURVE",
"280 523 OFFCURVE",
"276 523 CURVE",
"255 523 LINE"
);
}
);
width = 466;
},
{
layerId = "3C8330F3-4770-4812-9C95-859F387513C1";
paths = (
{
closed = 1;
nodes = (
"347 322 OFFCURVE",
"440 404 OFFCURVE",
"453 508 CURVE SMOOTH",
"466 613 OFFCURVE",
"395 700 OFFCURVE",
"292 700 CURVE SMOOTH",
"190 700 OFFCURVE",
"100 615 OFFCURVE",
"87 514 CURVE SMOOTH",
"75 410 OFFCURVE",
"148 322 OFFCURVE",
"250 322 CURVE SMOOTH"
);
},
{
closed = 1;
nodes = (
"175 359 OFFCURVE",
"115 426 OFFCURVE",
"125 508 CURVE SMOOTH",
"135 592 OFFCURVE",
"210 662 OFFCURVE",
"292 662 CURVE SMOOTH",
"372 662 OFFCURVE",
"426 593 OFFCURVE",
"416 514 CURVE SMOOTH",
"406 431 OFFCURVE",
"329 359 OFFCURVE",
"250 359 CURVE SMOOTH"
);
},
{
closed = 1;
nodes = (
"232 419 LINE",
"241 492 LINE",
"259 492 LINE",
"295 419 LINE",
"336 419 LINE",
"298 496 LINE",
"324 510 OFFCURVE",
"337 528 OFFCURVE",
"340 548 CURVE SMOOTH",
"344 581 OFFCURVE",
"322 609 OFFCURVE",
"293 609 CURVE SMOOTH",
"220 609 LINE",
"197 419 LINE"
);
},
{
closed = 1;
nodes = (
"251 574 LINE",
"291 574 LINE SMOOTH",
"299 574 OFFCURVE",
"306 564 OFFCURVE",
"304 554 CURVE SMOOTH",
"303 540 OFFCURVE",
"291 527 OFFCURVE",
"282 527 CURVE SMOOTH",
"245 527 LINE"
);
}
);
width = 467;
}
);
unicode = 00AE;
},
{
color = 5;
glyphname = trademark;
layers = (
{
layerId = "4BC9CD2E-8AD0-40CC-97AA-8C7B556514B0";
paths = (
{
closed = 1;
nodes = (
"726 700 LINE",
"598 700 LINE",
"512 529 LINE",
"467 700 LINE",
"113 700 LINE",
"102 608 LINE",
"196 608 LINE",
"163 342 LINE",
"261 342 LINE",
"294 608 LINE",
"333 608 LINE",
"300 342 LINE",
"398 342 LINE",
"424 543 LINE",
"424 543 LINE",
"460 393 LINE",
"536 393 LINE",
"609 543 LINE",
"608 543 LINE",
"583 342 LINE",
"682 342 LINE"
);
}
);
width = 719;
},
{
layerId = "3C8330F3-4770-4812-9C95-859F387513C1";
paths = (
{
closed = 1;
nodes = (
"714 700 LINE",
"619 700 LINE",
"506 463 LINE",
"451 700 LINE",
"113 700 LINE",
"108 659 LINE",
"212 659 LINE",
"174 350 LINE",
"217 350 LINE",
"255 659 LINE",
"352 659 LINE",
"314 350 LINE",
"357 350 LINE",
"395 659 LINE",
"415 659 LINE",
"476 404 LINE",
"522 404 LINE",
"647 659 LINE",
"665 659 LINE",
"627 350 LINE",
"671 350 LINE"
);
}
);
width = 707;
}
);
unicode = 2122;
},
{
color = 5;
glyphname = degree;
layers = (
{
layerId = "4BC9CD2E-8AD0-40CC-97AA-8C7B556514B0";
paths = (
{
closed = 1;
nodes = (
"370 470 OFFCURVE",
"380 550 CURVE SMOOTH",
"390 634 OFFCURVE",
"334 700 OFFCURVE",
"250 700 CURVE SMOOTH",
"173 700 OFFCURVE",
"104 639 OFFCURVE",
"94 562 CURVE SMOOTH",
"85 484 OFFCURVE",
"142 413 OFFCURVE",
"225 413 CURVE SMOOTH",
"300 413 OFFCURVE"
);
},
{
closed = 1;
nodes = (
"283 619 OFFCURVE",
"304 594 OFFCURVE",
"300 562 CURVE SMOOTH",
"296 524 OFFCURVE",
"262 494 OFFCURVE",
"225 494 CURVE SMOOTH",
"192 494 OFFCURVE",
"170 518 OFFCURVE",
"174 550 CURVE SMOOTH",
"179 588 OFFCURVE",
"213 619 OFFCURVE",
"250 619 CURVE SMOOTH"
);
}
);
width = 388;
},
{
layerId = "3C8330F3-4770-4812-9C95-859F387513C1";
paths = (
{
closed = 1;
nodes = (
"369 472 OFFCURVE",
"379 553 CURVE SMOOTH",
"389 636 OFFCURVE",
"334 700 OFFCURVE",
"252 700 CURVE SMOOTH",
"173 700 OFFCURVE",
"103 637 OFFCURVE",
"93 559 CURVE SMOOTH",
"84 482 OFFCURVE",
"139 413 OFFCURVE",
"221 413 CURVE SMOOTH",
"297 413 OFFCURVE"
);
},
{
closed = 1;
nodes = (
"307 656 OFFCURVE",
"343 613 OFFCURVE",
"336 559 CURVE SMOOTH",
"329 501 OFFCURVE",
"279 457 OFFCURVE",
"222 457 CURVE SMOOTH",
"170 457 OFFCURVE",
"129 496 OFFCURVE",
"136 553 CURVE SMOOTH",
"143 612 OFFCURVE",
"193 656 OFFCURVE",
"251 656 CURVE SMOOTH"
);
}
);
width = 386;
}
);
unicode = 00B0;
},
{
color = 5;
glyphname = bar;
layers = (
{
layerId = "4BC9CD2E-8AD0-40CC-97AA-8C7B556514B0";
paths = (
{
closed = 1;
nodes = (
"222 698 LINE",
"113 698 LINE",
"20 -58 LINE",
"129 -58 LINE"
);
}
);
width = 222;
},
{
layerId = "3C8330F3-4770-4812-9C95-859F387513C1";
paths = (
{
closed = 1;
nodes = (
"163 698 LINE",
"113 698 LINE",
"20 -58 LINE",
"70 -58 LINE"
);
}
);
width = 163;
}
);
unicode = 007C;
},
{
color = 5;
glyphname = brokenbar;
layers = (
{
layerId = "4BC9CD2E-8AD0-40CC-97AA-8C7B556514B0";
paths = (
{
closed = 1;
nodes = (
"223 700 LINE",
"113 700 LINE",
"72 360 LINE",
"182 360 LINE"
);
},
{
closed = 1;
nodes = (
"162 203 LINE",
"52 203 LINE",
"10 -137 LINE",
"120 -137 LINE"
);
}
);
width = 224;
},
{
layerId = "3C8330F3-4770-4812-9C95-859F387513C1";
paths = (
{
closed = 1;
nodes = (
"163 700 LINE",
"113 700 LINE",
"72 360 LINE",
"122 360 LINE"
);
},
{
closed = 1;
nodes = (
"102 203 LINE",
"52 203 LINE",
"10 -137 LINE",
"60 -137 LINE"
);
}
);
width = 164;
}
);
unicode = 00A6;
},
{
color = 5;
glyphname = dagger;
layers = (
{
layerId = "4BC9CD2E-8AD0-40CC-97AA-8C7B556514B0";
paths = (
{
closed = 1;
nodes = (
"358 594 LINE",
"283 594 LINE",
"296 700 LINE",
"186 700 LINE",
"173 593 LINE",
"98 593 LINE",
"87 504 LINE",
"162 504 LINE",
"125 205 LINE",
"235 205 LINE",
"272 504 LINE",
"347 504 LINE"
);
}
);
width = 361;
},
{
layerId = "3C8330F3-4770-4812-9C95-859F387513C1";
paths = (
{
closed = 1;
nodes = (
"358 594 LINE",
"253 594 LINE",
"266 700 LINE",
"216 700 LINE",
"203 593 LINE",
"98 593 LINE",
"92 544 LINE",
"197 544 LINE",
"155 205 LINE",
"205 205 LINE",
"247 544 LINE",
"352 544 LINE"
);
}
);
width = 361;
}
);
unicode = 2020;
},
{
color = 5;
glyphname = daggerdbl;
layers = (
{
layerId = "4BC9CD2E-8AD0-40CC-97AA-8C7B556514B0";
paths = (
{
closed = 1;
nodes = (
"336 411 LINE",
"261 411 LINE",
"270 487 LINE",
"345 487 LINE",
"359 597 LINE",
"284 597 LINE",
"296 701 LINE",
"186 701 LINE",
"173 595 LINE",
"98 595 LINE",
"85 487 LINE",
"160 487 LINE",
"151 411 LINE",
"76 411 LINE",
"62 301 LINE",
"137 301 LINE",
"126 206 LINE",
"236 206 LINE",
"247 302 LINE",
"322 302 LINE"
);
}
);
width = 365;
},
{
layerId = "3C8330F3-4770-4812-9C95-859F387513C1";
paths = (
{
closed = 1;
nodes = (
"335 411 LINE",
"230 411 LINE",
"239 487 LINE",
"344 487 LINE",
"350 537 LINE",
"245 537 LINE",
"265 701 LINE",
"215 701 LINE",
"195 535 LINE",
"90 535 LINE",
"84 487 LINE",
"189 487 LINE",
"180 411 LINE",
"75 411 LINE",
"69 361 LINE",
"174 361 LINE",
"155 206 LINE",
"205 206 LINE",
"224 363 LINE",
"329 363 LINE"
);
}
);
width = 363;
}
);
unicode = 2021;
},
{
glyphname = dieresiscomb;
layers = (
{
anchors = (
{
name = _top;
position = "{217, 530}";
},
{
name = top;
position = "{239, 705}";
}
);
layerId = "4BC9CD2E-8AD0-40CC-97AA-8C7B556514B0";
paths = (
{
closed = 1;
nodes = (
"167 600 OFFCURVE",
"191 621 OFFCURVE",
"194 647 CURVE SMOOTH",
"198 678 OFFCURVE",
"174 705 OFFCURVE",
"143 705 CURVE SMOOTH",
"117 705 OFFCURVE",
"93 684 OFFCURVE",
"90 659 CURVE SMOOTH",
"86 627 OFFCURVE",
"110 600 OFFCURVE",
"140 600 CURVE SMOOTH"
);
},
{
closed = 1;
nodes = (
"347 600 OFFCURVE",
"371 621 OFFCURVE",
"374 647 CURVE SMOOTH",
"378 678 OFFCURVE",
"354 705 OFFCURVE",
"323 705 CURVE SMOOTH",
"297 705 OFFCURVE",
"273 684 OFFCURVE",
"270 659 CURVE SMOOTH",
"266 627 OFFCURVE",
"290 600 OFFCURVE",
"320 600 CURVE SMOOTH"
);
}
);
width = 365;
},
{
anchors = (
{
name = _top;
position = "{200, 540}";
},
{
name = top;
position = "{219, 698}";
}
);
layerId = "3C8330F3-4770-4812-9C95-859F387513C1";
paths = (
{
closed = 1;
nodes = (
"146 620 OFFCURVE",
"165 637 OFFCURVE",
"168 656 CURVE SMOOTH",
"171 679 OFFCURVE",
"154 698 OFFCURVE",
"132 698 CURVE SMOOTH",
"112 698 OFFCURVE",
"93 681 OFFCURVE",
"91 662 CURVE SMOOTH",
"88 639 OFFCURVE",
"104 620 OFFCURVE",
"126 620 CURVE SMOOTH"
);
},
{
closed = 1;
nodes = (
"325 620 OFFCURVE",
"344 637 OFFCURVE",
"347 656 CURVE SMOOTH",
"350 679 OFFCURVE",
"333 698 OFFCURVE",
"311 698 CURVE SMOOTH",
"291 698 OFFCURVE",
"272 681 OFFCURVE",
"270 662 CURVE SMOOTH",
"267 639 OFFCURVE",
"283 620 OFFCURVE",
"305 620 CURVE SMOOTH"
);
}
);
width = 337;
}
);
unicode = 0308;
},
{
glyphname = dotaccentcomb;
layers = (
{
anchors = (
{
name = _top;
position = "{127, 530}";
},
{
name = top;
position = "{149, 705}";
}
);
layerId = "4BC9CD2E-8AD0-40CC-97AA-8C7B556514B0";
paths = (
{
closed = 1;
nodes = (
"167 600 OFFCURVE",
"191 621 OFFCURVE",
"194 647 CURVE SMOOTH",
"198 678 OFFCURVE",
"174 705 OFFCURVE",
"143 705 CURVE SMOOTH",
"117 705 OFFCURVE",
"93 684 OFFCURVE",
"90 659 CURVE SMOOTH",
"86 627 OFFCURVE",
"110 600 OFFCURVE",
"140 600 CURVE SMOOTH"
);
}
);
width = 185;
},
{
anchors = (
{
name = _top;
position = "{115, 540}";
},
{
name = top;
position = "{134, 698}";
}
);
layerId = "3C8330F3-4770-4812-9C95-859F387513C1";
paths = (
{
closed = 1;
nodes = (
"146 620 OFFCURVE",
"165 637 OFFCURVE",
"168 656 CURVE SMOOTH",
"171 679 OFFCURVE",
"154 698 OFFCURVE",
"132 698 CURVE SMOOTH",
"112 698 OFFCURVE",
"93 681 OFFCURVE",
"91 662 CURVE SMOOTH",
"88 639 OFFCURVE",
"104 620 OFFCURVE",
"126 620 CURVE SMOOTH"
);
}
);
width = 158;
}
);
unicode = 0307;
},
{
glyphname = gravecomb;
layers = (
{
anchors = (
{
name = _top;
position = "{130, 530}";
},
{
name = top;
position = "{156, 739}";
}
);
layerId = "4BC9CD2E-8AD0-40CC-97AA-8C7B556514B0";
paths = (
{
closed = 1;
nodes = (
"175 739 LINE",
"101 739 LINE",
"123 604 LINE",
"181 604 LINE"
);
}
);
width = 178;
},
{
anchors = (
{
name = _top;
position = "{133, 540}";
},
{
name = top;
position = "{157, 739}";
}
);
layerId = "3C8330F3-4770-4812-9C95-859F387513C1";
paths = (
{
closed = 1;
nodes = (
"155 739 LINE",
"100 739 LINE",
"124 606 LINE",
"166 606 LINE"
);
}
);
width = 162;
}
);
unicode = 0300;
},
{
glyphname = acutecomb;
layers = (
{
anchors = (
{
name = _top;
position = "{106, 530}";
},
{
name = top;
position = "{132, 739}";
}
);
layerId = "4BC9CD2E-8AD0-40CC-97AA-8C7B556514B0";
paths = (
{
closed = 1;
nodes = (
"138 604 LINE",
"194 739 LINE",
"118 739 LINE",
"78 604 LINE"
);
}
);
width = 173;
},
{
anchors = (
{
name = _top;
position = "{103, 540}";
},
{
name = top;
position = "{127, 739}";
}
);
layerId = "3C8330F3-4770-4812-9C95-859F387513C1";
paths = (
{
closed = 1;
nodes = (
"126 606 LINE",
"182 739 LINE",
"127 739 LINE",
"84 606 LINE"
);
}
);
width = 162;
}
);
unicode = 0301;
},
{
glyphname = hungarumlautcomb;
layers = (
{
anchors = (
{
name = _top;
position = "{167, 530}";
},
{
name = top;
position = "{193, 739}";
}
);
layerId = "4BC9CD2E-8AD0-40CC-97AA-8C7B556514B0";
paths = (
{
closed = 1;
nodes = (
"138 604 LINE",
"194 739 LINE",
"118 739 LINE",
"78 604 LINE"
);
},
{
closed = 1;
nodes = (
"243 605 LINE",
"299 740 LINE",
"223 740 LINE",
"183 605 LINE"
);
}
);
width = 278;
},
{
anchors = (
{
name = _top;
position = "{169, 540}";
},
{
name = top;
position = "{193, 739}";
}
);
layerId = "3C8330F3-4770-4812-9C95-859F387513C1";
paths = (
{
closed = 1;
nodes = (
"126 606 LINE",
"182 739 LINE",
"127 739 LINE",
"84 606 LINE"
);
},
{
closed = 1;
nodes = (
"226 607 LINE",
"282 740 LINE",
"227 740 LINE",
"184 607 LINE"
);
}
);
width = 262;
}
);
unicode = 030B;
},
{
glyphname = circumflexcomb;
layers = (
{
anchors = (
{
name = _top;
position = "{203, 520}";
},
{
name = top;
position = "{225, 700}";
}
);
layerId = "4BC9CD2E-8AD0-40CC-97AA-8C7B556514B0";
paths = (
{
closed = 1;
nodes = (
"170 589 LINE",
"220 639 LINE",
"256 589 LINE",
"341 589 LINE",
"252 700 LINE",
"196 700 LINE",
"81 589 LINE"
);
}
);
width = 340;
},
{
anchors = (
{
name = _top;
position = "{193, 520}";
},
{
name = top;
position = "{215, 700}";
}
);
layerId = "3C8330F3-4770-4812-9C95-859F387513C1";
paths = (
{
closed = 1;
nodes = (
"138 589 LINE",
"211 662 LINE",
"266 589 LINE",
"321 589 LINE",
"234 700 LINE",
"196 700 LINE",
"81 589 LINE"
);
}
);
width = 320;
}
);
unicode = 0302;
},
